<svg  height="123" viewBox="0 0 884 585" fill="none" xmlns="http://www.w3.org/2000/svg">
<path d="M863.091 17.0551C844.547 1.12321 30.4247 6.43383 17.4432 17.0551C4.4617 27.6764 2.60703 556.966 17.4432 569.357C32.2793 581.749 844.546 579.979 863.091 569.357C881.636 558.736 881.636 32.987 863.091 17.0551Z" fill="white" stroke="black" stroke-width="13" stroke-linecap="round" stroke-linejoin="round"/>
<path d="M618.503 213.395C618.365 231.645 618.545 270.19 620.181 308.203C620.272 310.317 621.992 311.99 624.107 312.019C666.742 312.616 742.72 313.371 748.8 311.966C756.628 310.157 775.298 237.803 770.886 234.814C769.724 234.027 761.661 233.557 750.425 233.343V230.716C750.425 230.568 750.433 230.423 750.448 230.276C750.672 228.182 752.365 211.709 750.425 209.458C748.509 207.235 706.143 209.122 684.686 209.42C682.179 209.455 680.324 207.144 680.059 204.651C679.692 201.208 678.133 197.589 673.855 196.795C665.725 195.288 639.272 195.2 634.342 196.795C630.643 197.993 629.595 202.146 629.09 205.928C628.822 207.937 627.163 209.458 625.136 209.458H622.493C620.302 209.458 618.519 211.205 618.503 213.395Z" fill="white"/>
<path d="M643.98 287.251C652.916 246.519 660.515 238.219 663.405 236.048C666.046 234.066 719.924 232.761 750.425 233.343M750.425 233.343C761.661 233.557 769.724 234.027 770.886 234.814C775.298 237.803 756.628 310.157 748.8 311.966C742.72 313.371 666.742 312.616 624.107 312.019C621.992 311.99 620.272 310.317 620.181 308.203C618.545 270.19 618.365 231.645 618.503 213.395C618.519 211.205 620.302 209.458 622.493 209.458H625.136C627.163 209.458 628.822 207.937 629.09 205.928C629.595 202.146 630.643 197.993 634.342 196.795C639.272 195.2 665.725 195.288 673.855 196.795C678.133 197.589 679.692 201.208 680.059 204.651C680.324 207.144 682.179 209.455 684.686 209.42C706.143 209.122 748.509 207.235 750.425 209.458C752.365 211.709 750.672 228.182 750.448 230.276C750.433 230.423 750.425 230.568 750.425 230.716V233.343Z" stroke="#0077D7" stroke-width="13" stroke-linecap="round" stroke-linejoin="round"/>
<path d="M577.912 265.584C577.775 283.833 577.954 322.378 579.59 360.392C579.681 362.505 581.401 364.178 583.517 364.208C626.151 364.805 702.129 365.559 708.209 364.154C716.038 362.345 734.707 289.992 730.295 287.003C729.134 286.216 721.07 285.746 709.834 285.531V282.904C709.834 282.757 709.842 282.611 709.857 282.464C710.081 280.37 711.774 263.897 709.834 261.646C707.918 259.424 665.552 261.31 644.095 261.608C641.588 261.643 639.733 259.332 639.468 256.839C639.102 253.397 637.542 249.777 633.264 248.984C625.134 247.476 598.682 247.388 593.752 248.984C590.053 250.181 589.004 254.334 588.499 258.117C588.231 260.125 586.572 261.646 584.546 261.646H581.902C579.712 261.646 577.929 263.393 577.912 265.584Z" fill="white"/>
<path d="M603.389 339.439C612.325 298.708 619.924 290.408 622.815 288.237C625.455 286.254 679.333 284.949 709.834 285.531M709.834 285.531C721.07 285.746 729.134 286.216 730.295 287.003C734.707 289.992 716.038 362.345 708.209 364.154C702.129 365.559 626.151 364.805 583.517 364.208C581.401 364.178 579.681 362.505 579.59 360.392C577.954 322.378 577.775 283.833 577.912 265.584C577.929 263.393 579.712 261.646 581.902 261.646H584.546C586.572 261.646 588.231 260.125 588.499 258.117C589.004 254.334 590.053 250.181 593.752 248.984C598.682 247.388 625.134 247.476 633.264 248.984C637.542 249.777 639.102 253.397 639.468 256.839C639.733 259.332 641.588 261.643 644.095 261.608C665.552 261.31 707.918 259.424 709.834 261.646C711.774 263.897 710.081 280.37 709.857 282.464C709.842 282.611 709.834 282.757 709.834 282.904V285.531Z" stroke="#0077D7" stroke-width="13" stroke-linecap="round" stroke-linejoin="round"/>
<path d="M537.321 317.772C537.184 336.022 537.364 374.566 538.999 412.58C539.09 414.694 540.81 416.367 542.926 416.396C585.561 416.993 661.538 417.748 667.618 416.343C675.447 414.534 694.116 342.18 689.704 339.191C688.543 338.404 680.479 337.934 669.243 337.719V335.093C669.243 334.945 669.251 334.799 669.267 334.652C669.491 332.559 671.183 316.086 669.243 313.835C667.327 311.612 624.961 313.499 603.504 313.797C600.998 313.831 599.143 311.52 598.877 309.028C598.511 305.585 596.951 301.965 592.673 301.172C584.543 299.664 558.091 299.576 553.161 301.172C549.462 302.369 548.413 306.523 547.909 310.305C547.64 312.314 545.981 313.835 543.955 313.835H541.311C539.121 313.835 537.338 315.582 537.321 317.772Z" fill="white"/>
<path d="M562.798 391.627C571.734 350.896 579.333 342.596 582.224 340.425C584.864 338.442 638.742 337.138 669.243 337.719M669.243 337.719C680.479 337.934 688.543 338.404 689.704 339.191C694.116 342.18 675.447 414.534 667.618 416.343C661.538 417.748 585.561 416.993 542.926 416.396C540.81 416.367 539.09 414.694 538.999 412.58C537.364 374.566 537.184 336.022 537.321 317.772C537.338 315.582 539.121 313.835 541.311 313.835H543.955C545.981 313.835 547.64 312.314 547.909 310.305C548.413 306.523 549.462 302.369 553.161 301.172C558.091 299.576 584.543 299.664 592.673 301.172C596.951 301.965 598.511 305.585 598.877 309.028C599.143 311.52 600.998 313.831 603.504 313.797C624.961 313.499 667.327 311.612 669.243 313.835C671.183 316.086 669.491 332.559 669.267 334.652C669.251 334.799 669.243 334.945 669.243 335.093V337.719Z" stroke="#0077D7" stroke-width="13" stroke-linecap="round" stroke-linejoin="round"/>
<path d="M654.756 155.153C576.399 155.51 498.401 157.621 495.949 160.434C491.04 166.069 490.339 446.842 495.949 453.415C501.56 459.989 808.727 459.05 815.74 453.415C822.753 447.781 822.753 168.886 815.74 160.434C812.229 156.203 733.313 154.796 654.756 155.153ZM654.756 155.153V111" stroke="black" stroke-width="13" stroke-linecap="round" stroke-linejoin="round"/>
<path d="M614.904 497.336C619.576 497.336 622.136 498.68 622.136 502.2C622.136 505.912 619.64 507.704 615.352 507.704H609.976V497.336H614.904ZM615.288 517.24C627.576 517.24 632.632 510.2 632.632 502.2C632.632 494.2 627.576 487.8 615.288 487.8H599.736V531H609.976V517.24H615.288ZM651.661 507.704C654.605 507.704 656.461 510.264 656.589 513.336H645.645C646.221 509.496 648.269 507.704 651.661 507.704ZM652.877 531.896C659.341 531.896 662.861 530.296 665.165 529.08V521.016C662.605 522.488 658.509 523.832 654.285 523.832C650.125 523.832 646.605 522.68 645.709 518.392H665.293V515.192C665.293 508.216 662.541 499.832 651.789 499.832C642.189 499.832 635.853 506.296 635.853 516.28C635.853 525.944 642.893 531.896 652.877 531.896ZM685.099 507.704C688.043 507.704 689.899 510.264 690.027 513.336H679.083C679.659 509.496 681.707 507.704 685.099 507.704ZM686.315 531.896C692.779 531.896 696.299 530.296 698.603 529.08V521.016C696.043 522.488 691.947 523.832 687.723 523.832C683.562 523.832 680.043 522.68 679.147 518.392H698.731V515.192C698.731 508.216 695.979 499.832 685.227 499.832C675.627 499.832 669.291 506.296 669.291 516.28C669.291 525.944 676.331 531.896 686.315 531.896ZM724.36 499.96C724.168 499.896 723.592 499.832 723.208 499.832C718.792 499.832 715.72 503.288 713.992 507.192V500.728H704.584V531H713.992V513.464C715.272 511.224 717.896 510.136 720.648 510.136H724.36V499.96Z" fill="black"/>
<path d="M671.5 93C671.5 100.34 664.596 107.5 654.5 107.5C644.404 107.5 637.5 100.34 637.5 93C637.5 85.6601 644.404 78.5 654.5 78.5C664.596 78.5 671.5 85.6601 671.5 93Z" stroke="black" stroke-width="13"/>
<path d="M615.641 72C612.673 78.1559 611 85.1221 611 92.5C611 99.8779 612.673 106.844 615.641 113M692.359 113C695.327 106.844 697 99.8779 697 92.5C697 85.1221 695.327 78.1559 692.359 72" stroke="black" stroke-width="13" stroke-linecap="round"/>
<path d="M593.394 62C588.665 71.309 586 81.8431 586 93C586 104.157 588.665 114.691 593.394 124M715.606 124C720.335 114.691 723 104.157 723 93C723 81.8431 720.335 71.309 715.606 62" stroke="black" stroke-width="13" stroke-linecap="round"/>
<path d="M385.756 162.318C378.765 153.892 71.8314 156.701 66.9372 162.318C62.043 167.936 61.3438 447.875 66.9372 454.429C72.5306 460.983 378.765 460.047 385.756 454.429C392.748 448.812 392.748 170.744 385.756 162.318Z" fill="black" stroke="black" stroke-width="13" stroke-linecap="round" stroke-linejoin="round"/>
<path d="M128.184 487.8H117.112L108.664 503.928L100.216 487.8H89.144L103.48 513.976V531H113.656V514.232L128.184 487.8ZM140.179 531.896C149.459 531.896 156.755 525.496 156.755 515.768C156.755 506.104 149.459 499.832 140.179 499.832C130.899 499.832 123.603 506.104 123.603 515.768C123.603 525.496 130.899 531.896 140.179 531.896ZM133.331 515.768C133.331 510.712 136.403 508.216 140.179 508.216C143.955 508.216 147.091 510.712 147.091 515.768C147.091 520.952 143.955 523.512 140.179 523.512C136.403 523.512 133.331 520.952 133.331 515.768ZM191.716 531V500.728H182.308V520.248C181.028 522.424 178.724 523.512 176.356 523.512C172.836 523.512 171.172 521.784 171.172 518.264V500.728H161.764V520.12C161.764 527.032 165.156 531.896 172.58 531.896C176.74 531.896 179.94 529.976 182.308 527.416V531H191.716ZM218.673 499.96C218.481 499.896 217.905 499.832 217.521 499.832C213.105 499.832 210.033 503.288 208.305 507.192V500.728H198.897V531H208.305V513.464C209.585 511.224 212.208 510.136 214.961 510.136H218.673V499.96ZM238.522 486.648V531H247.93V486.648H238.522ZM269.804 531.896C279.084 531.896 286.38 525.496 286.38 515.768C286.38 506.104 279.084 499.832 269.804 499.832C260.524 499.832 253.228 506.104 253.228 515.768C253.228 525.496 260.524 531.896 269.804 531.896ZM262.956 515.768C262.956 510.712 266.028 508.216 269.804 508.216C273.58 508.216 276.716 510.712 276.716 515.768C276.716 520.952 273.58 523.512 269.804 523.512C266.028 523.512 262.956 520.952 262.956 515.768ZM305.085 516.024C302.333 516.024 300.157 514.296 300.157 511.352C300.157 508.344 302.333 506.616 305.085 506.616C307.773 506.616 310.013 508.344 310.013 511.352C310.013 514.296 307.773 516.024 305.085 516.024ZM305.213 541.176C299.709 541.176 297.725 539.576 297.725 537.656C297.725 535.928 299.773 534.328 304.509 534.328H306.685C311.549 534.328 313.341 535.8 313.341 537.464C313.341 539.512 310.845 541.176 305.213 541.176ZM291.069 511.416C291.069 516.408 294.397 519.48 297.533 520.632V520.888C294.845 521.656 292.093 523.512 292.093 526.456C292.093 528.632 294.013 530.168 296.445 531.064V531.256C293.501 532.28 288.701 534.264 288.701 539.064C288.701 543.928 294.013 547.448 304.189 547.448C316.157 547.448 322.365 542.968 322.365 536.184C322.365 530.872 317.949 527.16 309.117 526.968L305.341 526.904C302.205 526.84 300.221 525.88 300.221 524.6C300.221 523.768 300.669 523 301.693 522.424C302.845 522.744 304.125 522.872 305.405 522.872C314.237 522.872 319.101 517.944 319.101 511.8C319.101 510.072 318.717 508.408 318.013 506.872L322.621 507.064V500.152L311.165 500.92C309.245 500.216 307.069 499.832 304.637 499.832C296.893 499.832 291.069 504.376 291.069 511.416ZM327.209 500.728V531H336.617V500.728H327.209ZM331.945 485.496C328.809 485.496 326.441 487.8 326.441 490.808C326.441 493.816 328.809 496.312 331.945 496.312C335.017 496.312 337.449 493.816 337.449 490.808C337.449 487.8 335.017 485.496 331.945 485.496ZM358.172 531.896C363.804 531.896 366.876 529.784 368.54 528.44V519.544C366.3 521.592 362.908 523.448 359.644 523.448C355.932 523.448 351.644 521.912 351.644 516.024C351.644 510.904 354.716 508.28 359.324 508.28C362.396 508.28 365.084 509.304 368.092 511.608V502.456C365.468 500.856 362.396 499.832 358.492 499.832C347.74 499.832 341.916 506.68 341.916 516.152C341.916 525.56 348.764 531.896 358.172 531.896Z" fill="black"/>
<path d="M118 201C153.296 201 227.109 201 240 201" stroke="white" stroke-width="13" stroke-linecap="round" stroke-linejoin="round"/>
<path d="M154 232H231" stroke="white" stroke-width="13" stroke-linecap="round" stroke-linejoin="round"/>
<path d="M118 421H194" stroke="white" stroke-width="13" stroke-linecap="round" stroke-linejoin="round"/>
<path d="M194.001 264.056H267.645" stroke="white" stroke-width="13" stroke-linecap="round" stroke-linejoin="round"/>
<path d="M296.059 264.056H332.011" stroke="white" stroke-width="13" stroke-linecap="round" stroke-linejoin="round"/>
<path d="M180.084 389.308C215.65 389.308 290.028 389.308 303.017 389.308" stroke="white" stroke-width="13" stroke-linecap="round" stroke-linejoin="round"/>
<path d="M117.459 389.308H153.411" stroke="white" stroke-width="13" stroke-linecap="round" stroke-linejoin="round"/>
<path d="M194 296H230" stroke="white" stroke-width="13" stroke-linecap="round" stroke-linejoin="round"/>
<path d="M194 327H255" stroke="white" stroke-width="13" stroke-linecap="round" stroke-linejoin="round"/>
<path d="M155 358H214" stroke="white" stroke-width="13" stroke-linecap="round" stroke-linejoin="round"/>
<path d="M391 313H492" stroke="black" stroke-width="13" stroke-linecap="round" stroke-linejoin="round" stroke-dasharray="26 26"/>
</svg>
