<svg width="188" viewBox="0 0 897 857" fill="none" xmlns="http://www.w3.org/2000/svg">
<path d="M875.883 21.8449C857.062 -1.67624 30.7747 6.16413 17.5992 21.8449C4.42377 37.5258 2.54139 818.947 17.5992 837.241C32.6571 855.535 857.061 852.921 875.883 837.241C894.705 821.56 894.705 45.3661 875.883 21.8449Z" fill="white" stroke="black" stroke-width="13" stroke-linecap="round" stroke-linejoin="round"/>
<path d="M618.503 116.395C618.365 134.645 618.545 173.19 620.181 211.203C620.272 213.317 621.992 214.99 624.107 215.019C666.742 215.616 742.72 216.371 748.8 214.966C756.628 213.157 775.298 140.803 770.886 137.814C769.724 137.027 761.661 136.557 750.425 136.343V133.716C750.425 133.568 750.433 133.423 750.448 133.276C750.672 131.182 752.365 114.709 750.425 112.458C748.509 110.235 706.143 112.122 684.686 112.42C682.179 112.455 680.324 110.144 680.059 107.651C679.692 104.208 678.133 100.589 673.855 99.7953C665.725 98.2878 639.272 98.1996 634.342 99.7953C630.643 100.993 629.595 105.146 629.09 108.928C628.822 110.937 627.163 112.458 625.136 112.458H622.493C620.302 112.458 618.519 114.205 618.503 116.395Z" fill="white"/>
<path d="M643.98 190.251C652.916 149.519 660.515 141.219 663.405 139.048C666.046 137.066 719.924 135.761 750.425 136.343M750.425 136.343C761.661 136.557 769.724 137.027 770.886 137.814C775.298 140.803 756.628 213.157 748.8 214.966C742.72 216.371 666.742 215.616 624.107 215.019C621.992 214.99 620.272 213.317 620.181 211.203C618.545 173.19 618.365 134.645 618.503 116.395C618.519 114.205 620.302 112.458 622.493 112.458H625.136C627.163 112.458 628.822 110.937 629.09 108.928C629.595 105.146 630.643 100.993 634.342 99.7953C639.272 98.1996 665.725 98.2878 673.855 99.7953C678.133 100.589 679.692 104.208 680.059 107.651C680.324 110.144 682.179 112.455 684.686 112.42C706.143 112.122 748.509 110.235 750.425 112.458C752.365 114.709 750.672 131.182 750.448 133.276C750.433 133.423 750.425 133.568 750.425 133.716V136.343Z" stroke="#0077D7" stroke-width="13" stroke-linecap="round" stroke-linejoin="round"/>
<path d="M577.912 168.584C577.775 186.833 577.954 225.378 579.59 263.392C579.681 265.505 581.401 267.178 583.517 267.208C626.151 267.805 702.129 268.559 708.209 267.154C716.038 265.345 734.707 192.992 730.295 190.003C729.134 189.216 721.07 188.746 709.834 188.531V185.904C709.834 185.757 709.842 185.611 709.857 185.464C710.081 183.37 711.774 166.897 709.834 164.646C707.918 162.424 665.552 164.31 644.095 164.608C641.588 164.643 639.733 162.332 639.468 159.839C639.102 156.397 637.542 152.777 633.264 151.984C625.134 150.476 598.682 150.388 593.752 151.984C590.053 153.181 589.004 157.334 588.499 161.117C588.231 163.125 586.572 164.646 584.546 164.646H581.902C579.712 164.646 577.929 166.393 577.912 168.584Z" fill="white"/>
<path d="M603.389 242.439C612.325 201.708 619.924 193.408 622.815 191.237C625.455 189.254 679.333 187.949 709.834 188.531M709.834 188.531C721.07 188.746 729.134 189.216 730.295 190.003C734.707 192.992 716.038 265.345 708.209 267.154C702.129 268.559 626.151 267.805 583.517 267.208C581.401 267.178 579.681 265.505 579.59 263.392C577.954 225.378 577.775 186.833 577.912 168.584C577.929 166.393 579.712 164.646 581.902 164.646H584.546C586.572 164.646 588.231 163.125 588.499 161.117C589.004 157.334 590.053 153.181 593.752 151.984C598.682 150.388 625.134 150.476 633.264 151.984C637.542 152.777 639.102 156.397 639.468 159.839C639.733 162.332 641.588 164.643 644.095 164.608C665.552 164.31 707.918 162.424 709.834 164.646C711.774 166.897 710.081 183.37 709.857 185.464C709.842 185.611 709.834 185.757 709.834 185.904V188.531Z" stroke="#0077D7" stroke-width="13" stroke-linecap="round" stroke-linejoin="round"/>
<path d="M537.321 220.772C537.184 239.022 537.364 277.566 538.999 315.58C539.09 317.694 540.81 319.367 542.926 319.396C585.561 319.993 661.538 320.748 667.618 319.343C675.447 317.534 694.116 245.18 689.704 242.191C688.543 241.404 680.479 240.934 669.243 240.719V238.093C669.243 237.945 669.251 237.799 669.267 237.652C669.491 235.559 671.183 219.086 669.243 216.835C667.327 214.612 624.961 216.499 603.504 216.797C600.998 216.831 599.143 214.52 598.877 212.028C598.511 208.585 596.951 204.965 592.673 204.172C584.543 202.664 558.091 202.576 553.161 204.172C549.462 205.369 548.413 209.523 547.909 213.305C547.64 215.314 545.981 216.835 543.955 216.835H541.311C539.121 216.835 537.338 218.582 537.321 220.772Z" fill="white"/>
<path d="M562.798 294.627C571.734 253.896 579.333 245.596 582.224 243.425C584.864 241.442 638.742 240.138 669.243 240.719M669.243 240.719C680.479 240.934 688.543 241.404 689.704 242.191C694.116 245.18 675.447 317.534 667.618 319.343C661.538 320.748 585.561 319.993 542.926 319.396C540.81 319.367 539.09 317.694 538.999 315.58C537.364 277.566 537.184 239.022 537.321 220.772C537.338 218.582 539.121 216.835 541.311 216.835H543.955C545.981 216.835 547.64 215.314 547.909 213.305C548.413 209.523 549.462 205.369 553.161 204.172C558.091 202.576 584.543 202.664 592.673 204.172C596.951 204.965 598.511 208.585 598.877 212.028C599.143 214.52 600.998 216.831 603.504 216.797C624.961 216.499 667.327 214.612 669.243 216.835C671.183 219.086 669.491 235.559 669.267 237.652C669.251 237.799 669.243 237.945 669.243 238.093V240.719Z" stroke="#0077D7" stroke-width="13" stroke-linecap="round" stroke-linejoin="round"/>
<path d="M614.904 400.336C619.576 400.336 622.136 401.68 622.136 405.2C622.136 408.912 619.64 410.704 615.352 410.704H609.976V400.336H614.904ZM615.288 420.24C627.576 420.24 632.632 413.2 632.632 405.2C632.632 397.2 627.576 390.8 615.288 390.8H599.736V434H609.976V420.24H615.288ZM651.661 410.704C654.605 410.704 656.461 413.264 656.589 416.336H645.645C646.221 412.496 648.269 410.704 651.661 410.704ZM652.877 434.896C659.341 434.896 662.861 433.296 665.165 432.08V424.016C662.605 425.488 658.509 426.832 654.285 426.832C650.125 426.832 646.605 425.68 645.709 421.392H665.293V418.192C665.293 411.216 662.541 402.832 651.789 402.832C642.189 402.832 635.853 409.296 635.853 419.28C635.853 428.944 642.893 434.896 652.877 434.896ZM685.099 410.704C688.043 410.704 689.899 413.264 690.027 416.336H679.083C679.659 412.496 681.707 410.704 685.099 410.704ZM686.315 434.896C692.779 434.896 696.299 433.296 698.603 432.08V424.016C696.043 425.488 691.947 426.832 687.723 426.832C683.562 426.832 680.043 425.68 679.147 421.392H698.731V418.192C698.731 411.216 695.979 402.832 685.227 402.832C675.627 402.832 669.291 409.296 669.291 419.28C669.291 428.944 676.331 434.896 686.315 434.896ZM724.36 402.96C724.168 402.896 723.592 402.832 723.208 402.832C718.792 402.832 715.72 406.288 713.992 410.192V403.728H704.584V434H713.992V416.464C715.272 414.224 717.896 413.136 720.648 413.136H724.36V402.96Z" fill="#AD3CFF"/>
<path d="M128.184 572.8H117.112L108.664 588.928L100.216 572.8H89.144L103.48 598.976V616H113.656V599.232L128.184 572.8ZM140.179 616.896C149.459 616.896 156.755 610.496 156.755 600.768C156.755 591.104 149.459 584.832 140.179 584.832C130.899 584.832 123.603 591.104 123.603 600.768C123.603 610.496 130.899 616.896 140.179 616.896ZM133.331 600.768C133.331 595.712 136.403 593.216 140.179 593.216C143.955 593.216 147.091 595.712 147.091 600.768C147.091 605.952 143.955 608.512 140.179 608.512C136.403 608.512 133.331 605.952 133.331 600.768ZM191.716 616V585.728H182.308V605.248C181.028 607.424 178.724 608.512 176.356 608.512C172.836 608.512 171.172 606.784 171.172 603.264V585.728H161.764V605.12C161.764 612.032 165.156 616.896 172.58 616.896C176.74 616.896 179.94 614.976 182.308 612.416V616H191.716ZM218.673 584.96C218.481 584.896 217.905 584.832 217.521 584.832C213.105 584.832 210.033 588.288 208.305 592.192V585.728H198.897V616H208.305V598.464C209.585 596.224 212.208 595.136 214.961 595.136H218.673V584.96ZM238.522 571.648V616H247.93V571.648H238.522ZM269.804 616.896C279.084 616.896 286.38 610.496 286.38 600.768C286.38 591.104 279.084 584.832 269.804 584.832C260.524 584.832 253.228 591.104 253.228 600.768C253.228 610.496 260.524 616.896 269.804 616.896ZM262.956 600.768C262.956 595.712 266.028 593.216 269.804 593.216C273.58 593.216 276.716 595.712 276.716 600.768C276.716 605.952 273.58 608.512 269.804 608.512C266.028 608.512 262.956 605.952 262.956 600.768ZM305.085 601.024C302.333 601.024 300.157 599.296 300.157 596.352C300.157 593.344 302.333 591.616 305.085 591.616C307.773 591.616 310.013 593.344 310.013 596.352C310.013 599.296 307.773 601.024 305.085 601.024ZM305.213 626.176C299.709 626.176 297.725 624.576 297.725 622.656C297.725 620.928 299.773 619.328 304.509 619.328H306.685C311.549 619.328 313.341 620.8 313.341 622.464C313.341 624.512 310.845 626.176 305.213 626.176ZM291.069 596.416C291.069 601.408 294.397 604.48 297.533 605.632V605.888C294.845 606.656 292.093 608.512 292.093 611.456C292.093 613.632 294.013 615.168 296.445 616.064V616.256C293.501 617.28 288.701 619.264 288.701 624.064C288.701 628.928 294.013 632.448 304.189 632.448C316.157 632.448 322.365 627.968 322.365 621.184C322.365 615.872 317.949 612.16 309.117 611.968L305.341 611.904C302.205 611.84 300.221 610.88 300.221 609.6C300.221 608.768 300.669 608 301.693 607.424C302.845 607.744 304.125 607.872 305.405 607.872C314.237 607.872 319.101 602.944 319.101 596.8C319.101 595.072 318.717 593.408 318.013 591.872L322.621 592.064V585.152L311.165 585.92C309.245 585.216 307.069 584.832 304.637 584.832C296.893 584.832 291.069 589.376 291.069 596.416ZM327.209 585.728V616H336.617V585.728H327.209ZM331.945 570.496C328.809 570.496 326.441 572.8 326.441 575.808C326.441 578.816 328.809 581.312 331.945 581.312C335.017 581.312 337.449 578.816 337.449 575.808C337.449 572.8 335.017 570.496 331.945 570.496ZM358.172 616.896C363.804 616.896 366.876 614.784 368.54 613.44V604.544C366.3 606.592 362.908 608.448 359.644 608.448C355.932 608.448 351.644 606.912 351.644 601.024C351.644 595.904 354.716 593.28 359.324 593.28C362.396 593.28 365.084 594.304 368.092 596.608V587.456C365.468 585.856 362.396 584.832 358.492 584.832C347.74 584.832 341.916 591.68 341.916 601.152C341.916 610.56 348.764 616.896 358.172 616.896Z" fill="black"/>
<path d="M539.688 781.184C542.12 782.592 547.432 784.896 554.088 784.896C562.92 784.896 569.704 780.608 569.704 771.392C569.704 757.696 550.952 758.784 550.952 752.704C550.952 750.528 552.68 748.864 556.776 748.864C559.976 748.864 563.688 750.528 567.272 753.408V742.976C564.648 741.12 559.72 739.904 554.728 739.904C547.176 739.904 540.264 744.192 540.264 752.64C540.264 766.336 558.952 764.8 558.952 771.584C558.952 774.336 556.456 775.936 553.384 775.936C547.816 775.936 542.952 772.992 539.688 770.24V781.184ZM594.519 753.728L588.247 772.736L581.975 753.728H572.055L584.343 784.704L583.895 786.048C582.615 790.016 580.247 791.36 577.431 791.36C575.575 791.36 573.783 790.912 572.439 790.208V798.784C573.463 799.296 575.383 799.872 578.071 799.872C584.279 799.872 587.927 796.288 590.615 789.44L604.503 753.728H594.519ZM628.316 768.192V784H637.724V765.568C637.724 757.376 634.076 752.832 626.588 752.832C622.748 752.832 619.612 754.752 617.18 757.696V753.728H607.772V784H617.18V764.352C618.46 762.304 620.764 761.216 623.196 761.216C626.716 761.216 628.316 763.584 628.316 768.192ZM658.984 784.896C664.616 784.896 667.688 782.784 669.352 781.44V772.544C667.112 774.592 663.72 776.448 660.456 776.448C656.744 776.448 652.456 774.912 652.456 769.024C652.456 763.904 655.528 761.28 660.136 761.28C663.208 761.28 665.896 762.304 668.904 764.608V755.456C666.28 753.856 663.208 752.832 659.304 752.832C648.552 752.832 642.728 759.68 642.728 769.152C642.728 778.56 649.576 784.896 658.984 784.896ZM689.161 760.704C692.105 760.704 693.961 763.264 694.089 766.336H683.145C683.721 762.496 685.769 760.704 689.161 760.704ZM690.377 784.896C696.841 784.896 700.361 783.296 702.665 782.08V774.016C700.105 775.488 696.009 776.832 691.785 776.832C687.625 776.832 684.105 775.68 683.209 771.392H702.793V768.192C702.793 761.216 700.041 752.832 689.289 752.832C679.689 752.832 673.353 759.296 673.353 769.28C673.353 778.944 680.393 784.896 690.377 784.896ZM728.423 752.96C728.231 752.896 727.655 752.832 727.271 752.832C722.855 752.832 719.783 756.288 718.055 760.192V753.728H708.647V784H718.055V766.464C719.335 764.224 721.958 763.136 724.711 763.136H728.423V752.96ZM732.498 766.976C732.498 782.336 740.946 790.976 748.306 796.672L752.402 791.488C746.322 786.752 740.178 778.752 740.178 766.976C740.178 755.264 746.322 747.264 752.402 742.528L748.306 737.344C740.946 743.04 732.498 751.68 732.498 766.976ZM765.939 784.896C772.531 784.896 778.291 781.952 778.291 775.296C778.291 765.056 764.467 766.272 764.467 762.56C764.467 761.408 765.491 760.768 767.795 760.768C769.779 760.768 773.363 761.664 776.435 763.776V754.752C774.387 753.728 770.547 752.832 767.283 752.832C760.051 752.832 754.867 756.544 754.867 762.688C754.867 773.12 768.691 772.224 768.691 775.68C768.691 776.96 767.539 777.536 765.619 777.536C762.099 777.536 757.747 775.616 755.187 773.376V781.824C756.851 783.232 761.267 784.896 765.939 784.896ZM799.909 766.976C799.909 751.68 791.525 743.04 784.101 737.344L780.005 742.528C786.085 747.2 792.293 755.264 792.293 766.976C792.293 778.752 786.085 786.752 780.005 791.488L784.101 796.672C791.525 790.976 799.909 782.336 799.909 766.976Z" fill="black"/>
<path d="M391 401L482 203" stroke="#CACACA" stroke-width="13" stroke-linecap="round" stroke-linejoin="round" stroke-dasharray="26 26"/>
<path d="M394 434L618 665" stroke="#CACACA" stroke-width="13" stroke-linecap="round" stroke-linejoin="round" stroke-dasharray="26 26"/>
<path d="M815.74 356.415C822.753 350.781 822.753 71.8857 815.74 63.4343C812.229 59.2032 733.313 57.7964 654.756 58.1535C576.399 58.5097 498.401 60.6207 495.949 63.4343C491.04 69.0686 490.339 349.842 495.949 356.415C501.56 362.989 808.727 362.05 815.74 356.415Z" stroke="#AD3CFF" stroke-width="13" stroke-linecap="round" stroke-linejoin="round"/>
<path d="M385.756 244.318C378.765 235.892 71.8314 238.701 66.9372 244.318C62.043 249.936 61.3438 529.875 66.9372 536.429C72.5306 542.983 378.765 542.047 385.756 536.429C392.748 530.812 392.748 252.744 385.756 244.318Z" fill="black" stroke="black" stroke-width="13" stroke-linecap="round" stroke-linejoin="round"/>
<path d="M118 283C153.296 283 227.109 283 240 283" stroke="white" stroke-width="13" stroke-linecap="round" stroke-linejoin="round"/>
<path d="M154 314H231" stroke="white" stroke-width="13" stroke-linecap="round" stroke-linejoin="round"/>
<path d="M118 503H194" stroke="white" stroke-width="13" stroke-linecap="round" stroke-linejoin="round"/>
<path d="M194.001 346.056H267.645" stroke="white" stroke-width="13" stroke-linecap="round" stroke-linejoin="round"/>
<path d="M296.059 346.056H332.011" stroke="white" stroke-width="13" stroke-linecap="round" stroke-linejoin="round"/>
<path d="M180.084 471.308C215.65 471.308 290.028 471.308 303.017 471.308" stroke="white" stroke-width="13" stroke-linecap="round" stroke-linejoin="round"/>
<path d="M117.459 471.308H153.411" stroke="white" stroke-width="13" stroke-linecap="round" stroke-linejoin="round"/>
<path d="M194 378H230" stroke="white" stroke-width="13" stroke-linecap="round" stroke-linejoin="round"/>
<path d="M194 409H255" stroke="white" stroke-width="13" stroke-linecap="round" stroke-linejoin="round"/>
<path d="M155 440H214" stroke="white" stroke-width="13" stroke-linecap="round" stroke-linejoin="round"/>
<path d="M715.417 717.375C717.528 715.378 717.528 616.519 715.417 613.523C714.361 612.023 690.614 611.524 666.975 611.651C643.397 611.777 619.926 612.526 619.188 613.523C617.711 615.52 617.5 715.045 619.188 717.375C620.877 719.705 713.307 719.372 715.417 717.375Z" fill="white"/>
<path d="M666.975 611.651C643.397 611.777 619.926 612.526 619.188 613.523C617.711 615.52 617.5 715.045 619.188 717.375C620.877 719.705 713.307 719.372 715.417 717.375C717.528 715.378 717.528 616.519 715.417 613.523C714.361 612.023 690.614 611.524 666.975 611.651ZM666.975 611.651V585" stroke="black" stroke-width="13" stroke-linecap="round" stroke-linejoin="round"/>
<path d="M691.217 692.152C692.261 691.111 692.261 639.549 691.217 637.986C690.694 637.204 678.94 636.944 667.24 637.01C655.57 637.076 643.953 637.466 643.588 637.986C642.857 639.028 642.753 690.937 643.588 692.152C644.424 693.368 690.172 693.194 691.217 692.152Z" fill="white" stroke="#AD3CFF" stroke-width="13" stroke-linecap="round" stroke-linejoin="round"/>
<path d="M686.026 563.614C686.026 573.325 677.64 581.758 666.585 581.758C655.53 581.758 647.145 573.325 647.145 563.614C647.145 553.904 655.53 545.47 666.585 545.47C677.64 545.47 686.026 553.904 686.026 563.614Z" fill="white" stroke="black" stroke-width="13"/>
<path d="M629.479 542C626.615 548.006 625 554.802 625 562C625 569.198 626.615 575.994 629.479 582M703.521 582C706.385 575.994 708 569.198 708 562C708 554.802 706.385 548.006 703.521 542" stroke="#0077D7" stroke-width="13" stroke-linecap="round"/>
<path d="M608.124 531C603.568 540.459 601 551.163 601 562.5C601 573.837 603.568 584.541 608.124 594M725.876 594C730.432 584.541 733 573.837 733 562.5C733 551.163 730.432 540.459 725.876 531" stroke="#0077D7" stroke-width="13" stroke-linecap="round"/>
</svg>
