<svg width="764" height="579" viewBox="0 0 764 579" fill="none" xmlns="http://www.w3.org/2000/svg">
<path d="M745.01 15.6816C729.023 1.92599 27.1937 6.51117 16.0027 15.6816C4.81181 24.852 3.21296 481.839 16.0027 492.538C28.7925 503.237 729.023 501.708 745.01 492.538C760.997 483.368 760.997 29.4371 745.01 15.6816Z" stroke="black" stroke-width="13" stroke-linecap="round" stroke-linejoin="round"/>
<path d="M534.028 185.859C533.918 201.722 534.083 234.311 535.456 266.548C535.547 268.662 537.267 270.335 539.382 270.364C576.239 270.878 641.164 271.517 646.382 270.311C653.132 268.751 669.23 206.363 665.426 203.786C664.425 203.108 657.471 202.702 647.783 202.517V200.283C647.783 200.135 647.791 199.993 647.806 199.846C648.01 197.935 649.448 183.854 647.783 181.922C646.151 180.028 610.466 181.594 591.768 181.88C589.261 181.918 587.417 179.594 587.022 177.119C586.582 174.361 585.176 171.637 581.76 171.004C574.75 169.704 551.941 169.628 547.69 171.004C544.658 171.985 543.691 175.27 543.229 178.394C542.933 180.399 541.289 181.922 539.262 181.922H538.017C535.826 181.922 534.043 183.669 534.028 185.859Z" fill="white"/>
<path d="M556 249C563.705 213.879 570.257 206.722 572.75 204.85C575.027 203.14 621.483 202.015 647.783 202.517M647.783 202.517C657.471 202.702 664.425 203.108 665.426 203.786C669.23 206.363 653.132 268.751 646.382 270.311C641.164 271.517 576.239 270.878 539.382 270.364C537.267 270.335 535.547 268.662 535.456 266.548C534.083 234.311 533.918 201.722 534.028 185.859C534.043 183.669 535.826 181.922 538.017 181.922H539.262C541.289 181.922 542.933 180.399 543.229 178.394C543.691 175.27 544.658 171.985 547.69 171.004C551.941 169.628 574.75 169.704 581.76 171.004C585.176 171.637 586.582 174.361 587.022 177.119C587.417 179.594 589.261 181.918 591.768 181.88C610.466 181.594 646.151 180.028 647.783 181.922C649.448 183.854 648.01 197.935 647.806 199.846C647.791 199.993 647.783 200.135 647.783 200.283V202.517Z" stroke="#0077D7" stroke-width="13" stroke-linecap="round" stroke-linejoin="round"/>
<path d="M499.028 230.859C498.918 246.722 499.083 279.311 500.456 311.548C500.547 313.662 502.267 315.335 504.382 315.364C541.239 315.878 606.164 316.517 611.382 315.311C618.132 313.751 634.23 251.363 630.426 248.786C629.425 248.108 622.471 247.702 612.783 247.517V245.283C612.783 245.135 612.791 244.993 612.806 244.846C613.01 242.935 614.448 228.854 612.783 226.922C611.151 225.028 575.466 226.594 556.768 226.88C554.261 226.918 552.417 224.594 552.022 222.119C551.582 219.361 550.176 216.637 546.76 216.004C539.75 214.704 516.941 214.628 512.69 216.004C509.658 216.985 508.691 220.27 508.229 223.394C507.933 225.399 506.289 226.922 504.262 226.922H503.017C500.826 226.922 499.043 228.669 499.028 230.859Z" fill="white"/>
<path d="M521 294C528.705 258.879 535.257 251.722 537.75 249.85C540.027 248.14 586.483 247.015 612.783 247.517M612.783 247.517C622.471 247.702 629.425 248.108 630.426 248.786C634.23 251.363 618.132 313.751 611.382 315.311C606.164 316.517 541.239 315.878 504.382 315.364C502.267 315.335 500.547 313.662 500.456 311.548C499.083 279.311 498.918 246.722 499.028 230.859C499.043 228.669 500.826 226.922 503.017 226.922H504.262C506.289 226.922 507.933 225.399 508.229 223.394C508.691 220.27 509.658 216.985 512.69 216.004C516.941 214.628 539.75 214.704 546.76 216.004C550.176 216.637 551.582 219.361 552.022 222.119C552.417 224.594 554.261 226.918 556.768 226.88C575.466 226.594 611.151 225.028 612.783 226.922C614.448 228.854 613.01 242.935 612.806 244.846C612.791 244.993 612.783 245.135 612.783 245.283V247.517Z" stroke="#0077D7" stroke-width="13" stroke-linecap="round" stroke-linejoin="round"/>
<path d="M464.028 275.859C463.918 291.722 464.083 324.311 465.456 356.548C465.547 358.662 467.267 360.335 469.382 360.364C506.239 360.878 571.164 361.517 576.382 360.311C583.132 358.751 599.23 296.363 595.426 293.786C594.425 293.108 587.471 292.702 577.783 292.517V290.283C577.783 290.135 577.791 289.993 577.806 289.846C578.01 287.935 579.448 273.854 577.783 271.922C576.151 270.028 540.466 271.594 521.768 271.88C519.261 271.918 517.417 269.594 517.022 267.119C516.582 264.361 515.176 261.637 511.76 261.004C504.75 259.704 481.941 259.628 477.69 261.004C474.658 261.985 473.691 265.27 473.229 268.394C472.933 270.399 471.289 271.922 469.262 271.922H468.017C465.826 271.922 464.043 273.669 464.028 275.859Z" fill="white"/>
<path d="M486 339C493.705 303.879 500.257 296.722 502.75 294.85C505.027 293.14 551.483 292.015 577.783 292.517M577.783 292.517C587.471 292.702 594.425 293.108 595.426 293.786C599.23 296.363 583.132 358.751 576.382 360.311C571.164 361.517 506.239 360.878 469.382 360.364C467.267 360.335 465.547 358.662 465.456 356.548C464.083 324.311 463.918 291.722 464.028 275.859C464.043 273.669 465.826 271.922 468.017 271.922H469.262C471.289 271.922 472.933 270.399 473.229 268.394C473.691 265.27 474.658 261.985 477.69 261.004C481.941 259.628 504.75 259.704 511.76 261.004C515.176 261.637 516.582 264.361 517.022 267.119C517.417 269.594 519.261 271.918 521.768 271.88C540.466 271.594 576.151 270.028 577.783 271.922C579.448 273.854 578.01 287.935 577.806 289.846C577.791 289.993 577.783 290.135 577.783 290.283V292.517Z" stroke="#0077D7" stroke-width="13" stroke-linecap="round" stroke-linejoin="round"/>
<path d="M565 135.046C497.599 135.353 430.506 137.172 428.397 139.596C424.174 144.451 423.571 386.386 428.397 392.05C433.223 397.714 697.443 396.904 703.476 392.05C709.508 387.195 709.508 146.878 703.476 139.596C700.456 135.95 632.573 134.738 565 135.046ZM565 135.046V97" stroke="black" stroke-width="13" stroke-linecap="round" stroke-linejoin="round"/>
<path d="M528.928 426.752C532.432 426.752 534.352 427.76 534.352 430.4C534.352 433.184 532.48 434.528 529.264 434.528H525.232V426.752H528.928ZM529.216 441.68C538.432 441.68 542.224 436.4 542.224 430.4C542.224 424.4 538.432 419.6 529.216 419.6H517.552V452H525.232V441.68H529.216ZM556.496 434.528C558.704 434.528 560.096 436.448 560.192 438.752H551.984C552.416 435.872 553.952 434.528 556.496 434.528ZM557.408 452.672C562.256 452.672 564.896 451.472 566.624 450.56V444.512C564.704 445.616 561.632 446.624 558.464 446.624C555.344 446.624 552.704 445.76 552.032 442.544H566.72V440.144C566.72 434.912 564.656 428.624 556.592 428.624C549.392 428.624 544.64 433.472 544.64 440.96C544.64 448.208 549.92 452.672 557.408 452.672ZM581.574 434.528C583.782 434.528 585.174 436.448 585.27 438.752H577.062C577.494 435.872 579.03 434.528 581.574 434.528ZM582.486 452.672C587.334 452.672 589.974 451.472 591.702 450.56V444.512C589.782 445.616 586.71 446.624 583.542 446.624C580.422 446.624 577.782 445.76 577.11 442.544H591.798V440.144C591.798 434.912 589.734 428.624 581.67 428.624C574.47 428.624 569.718 433.472 569.718 440.96C569.718 448.208 574.998 452.672 582.486 452.672ZM611.02 428.72C610.876 428.672 610.444 428.624 610.156 428.624C606.844 428.624 604.54 431.216 603.244 434.144V429.296H596.188V452H603.244V438.848C604.204 437.168 606.172 436.352 608.236 436.352H611.02V428.72Z" fill="black"/>
<path d="M578.5 82C578.5 87.724 573.117 93.5 565 93.5C556.883 93.5 551.5 87.724 551.5 82C551.5 76.276 556.883 70.5 565 70.5C573.117 70.5 578.5 76.276 578.5 82Z" stroke="black" stroke-width="13"/>
<path d="M531.994 64C529.44 69.1049 528 74.8817 528 81C528 87.1183 529.44 92.8951 531.994 98M598.006 98C600.56 92.8951 602 87.1183 602 81C602 74.8817 600.56 69.1049 598.006 64" stroke="black" stroke-width="13" stroke-linecap="round"/>
<path d="M512.368 54C508.296 62.1078 506 71.2827 506 81C506 90.7173 508.296 99.8922 512.368 108M617.632 108C621.704 99.8922 624 90.7173 624 81C624 71.2827 621.704 62.1078 617.632 54" stroke="black" stroke-width="13" stroke-linecap="round"/>
<path d="M289.432 567L275.896 533.928H272.392L258.76 567H266.248L267.976 562.536H280.264L281.944 567H289.432ZM277.816 556.056H270.424L274.12 546.36L277.816 556.056ZM303.394 561.384C301.426 561.384 299.794 560.424 298.882 558.792V552.168C300.034 550.728 301.474 549.912 303.394 549.912C305.842 549.912 308.434 551.592 308.434 555.528C308.434 559.512 305.842 561.384 303.394 561.384ZM305.17 567.672C310.882 567.672 315.682 562.296 315.682 555.528C315.682 548.28 311.218 543.624 305.554 543.624C302.242 543.624 300.082 545.064 298.738 546.408L298.066 544.296H291.922V577.8H298.882V565.512C300.754 566.952 302.962 567.672 305.17 567.672ZM331.144 561.384C329.176 561.384 327.544 560.424 326.632 558.792V552.168C327.784 550.728 329.224 549.912 331.144 549.912C333.592 549.912 336.184 551.592 336.184 555.528C336.184 559.512 333.592 561.384 331.144 561.384ZM332.92 567.672C338.632 567.672 343.432 562.296 343.432 555.528C343.432 548.28 338.968 543.624 333.304 543.624C329.992 543.624 327.832 545.064 326.488 546.408L325.816 544.296H319.672V577.8H326.632V565.512C328.504 566.952 330.712 567.672 332.92 567.672ZM347.422 533.736V567H354.478V533.736H347.422ZM359.844 544.296V567H366.9V544.296H359.844ZM363.396 532.872C361.044 532.872 359.268 534.6 359.268 536.856C359.268 539.112 361.044 540.984 363.396 540.984C365.7 540.984 367.524 539.112 367.524 536.856C367.524 534.6 365.7 532.872 363.396 532.872ZM383.066 567.672C387.29 567.672 389.594 566.088 390.842 565.08V558.408C389.162 559.944 386.618 561.336 384.17 561.336C381.386 561.336 378.17 560.184 378.17 555.768C378.17 551.928 380.474 549.96 383.93 549.96C386.234 549.96 388.25 550.728 390.506 552.456V545.592C388.538 544.392 386.234 543.624 383.306 543.624C375.242 543.624 370.874 548.76 370.874 555.864C370.874 562.92 376.01 567.672 383.066 567.672ZM412.563 568.104L416.787 563.4L414.051 561V553.512C414.051 547.752 411.603 543.624 404.115 543.624C400.419 543.624 397.299 544.776 395.427 545.928V552.072C397.587 550.632 400.083 549.672 402.963 549.672C405.891 549.672 407.139 551.016 407.331 552.648L401.571 553.944C397.731 554.808 393.939 556.536 393.939 561.144C393.939 565.128 397.011 567.672 401.427 567.672C404.547 567.672 406.899 566.568 408.963 564.936L412.563 568.104ZM400.947 560.28C400.947 558.84 402.051 557.928 403.971 557.448L407.331 556.584V560.424C406.563 561.384 405.075 562.248 403.203 562.248C401.907 562.248 400.947 561.576 400.947 560.28ZM428.873 567.672C431.993 567.672 434.057 566.856 435.209 565.992V560.232C434.297 561 432.905 561.576 431.129 561.576C429.689 561.576 427.961 560.952 427.961 558.648V549.672H434.585V544.296H427.961V537.528H427.529L416.729 549.192V549.672H420.953V560.616C420.953 565.32 425.129 567.672 428.873 567.672ZM439.11 544.296V567H446.166V544.296H439.11ZM442.662 532.872C440.31 532.872 438.534 534.6 438.534 536.856C438.534 539.112 440.31 540.984 442.662 540.984C444.966 540.984 446.79 539.112 446.79 536.856C446.79 534.6 444.966 532.872 442.662 532.872ZM462.572 567.672C469.532 567.672 475.004 562.872 475.004 555.576C475.004 548.328 469.532 543.624 462.572 543.624C455.612 543.624 450.14 548.328 450.14 555.576C450.14 562.872 455.612 567.672 462.572 567.672ZM457.436 555.576C457.436 551.784 459.74 549.912 462.572 549.912C465.404 549.912 467.756 551.784 467.756 555.576C467.756 559.464 465.404 561.384 462.572 561.384C459.74 561.384 457.436 559.464 457.436 555.576ZM494.409 555.144V567H501.465V553.176C501.465 547.032 498.729 543.624 493.113 543.624C490.233 543.624 487.881 545.064 486.057 547.272V544.296H479.001V567H486.057V552.264C487.017 550.728 488.745 549.912 490.569 549.912C493.209 549.912 494.409 551.688 494.409 555.144Z" fill="black"/>
<path d="M333.476 141.579C327.443 134.324 62.6197 136.742 58.397 141.579C54.1743 146.415 53.571 387.422 58.397 393.065C63.223 398.707 327.443 397.901 333.476 393.065C339.508 388.228 339.508 148.833 333.476 141.579Z" fill="black" stroke="black" stroke-width="13" stroke-linecap="round" stroke-linejoin="round"/>
<path d="M119.888 417.6H111.584L105.248 429.696L98.912 417.6H90.608L101.36 437.232V450H108.992V437.424L119.888 417.6ZM128.884 450.672C135.844 450.672 141.316 445.872 141.316 438.576C141.316 431.328 135.844 426.624 128.884 426.624C121.924 426.624 116.452 431.328 116.452 438.576C116.452 445.872 121.924 450.672 128.884 450.672ZM123.748 438.576C123.748 434.784 126.052 432.912 128.884 432.912C131.716 432.912 134.068 434.784 134.068 438.576C134.068 442.464 131.716 444.384 128.884 444.384C126.052 444.384 123.748 442.464 123.748 438.576ZM167.537 450V427.296H160.481V441.936C159.521 443.568 157.793 444.384 156.017 444.384C153.377 444.384 152.129 443.088 152.129 440.448V427.296H145.073V441.84C145.073 447.024 147.617 450.672 153.185 450.672C156.305 450.672 158.705 449.232 160.481 447.312V450H167.537ZM187.754 426.72C187.61 426.672 187.178 426.624 186.89 426.624C183.578 426.624 181.274 429.216 179.978 432.144V427.296H172.922V450H179.978V436.848C180.938 435.168 182.906 434.352 184.97 434.352H187.754V426.72ZM202.641 416.736V450H209.697V416.736H202.641ZM226.103 450.672C233.063 450.672 238.535 445.872 238.535 438.576C238.535 431.328 233.063 426.624 226.103 426.624C219.143 426.624 213.671 431.328 213.671 438.576C213.671 445.872 219.143 450.672 226.103 450.672ZM220.967 438.576C220.967 434.784 223.271 432.912 226.103 432.912C228.935 432.912 231.287 434.784 231.287 438.576C231.287 442.464 228.935 444.384 226.103 444.384C223.271 444.384 220.967 442.464 220.967 438.576ZM252.564 438.768C250.5 438.768 248.868 437.472 248.868 435.264C248.868 433.008 250.5 431.712 252.564 431.712C254.58 431.712 256.26 433.008 256.26 435.264C256.26 437.472 254.58 438.768 252.564 438.768ZM252.66 457.632C248.532 457.632 247.044 456.432 247.044 454.992C247.044 453.696 248.58 452.496 252.132 452.496H253.764C257.412 452.496 258.756 453.6 258.756 454.848C258.756 456.384 256.884 457.632 252.66 457.632ZM242.052 435.312C242.052 439.056 244.548 441.36 246.9 442.224V442.416C244.884 442.992 242.82 444.384 242.82 446.592C242.82 448.224 244.26 449.376 246.084 450.048V450.192C243.876 450.96 240.276 452.448 240.276 456.048C240.276 459.696 244.26 462.336 251.892 462.336C260.868 462.336 265.524 458.976 265.524 453.888C265.524 449.904 262.212 447.12 255.588 446.976L252.756 446.928C250.404 446.88 248.916 446.16 248.916 445.2C248.916 444.576 249.252 444 250.02 443.568C250.884 443.808 251.844 443.904 252.804 443.904C259.428 443.904 263.076 440.208 263.076 435.6C263.076 434.304 262.788 433.056 262.26 431.904L265.716 432.048V426.864L257.124 427.44C255.684 426.912 254.052 426.624 252.228 426.624C246.42 426.624 242.052 430.032 242.052 435.312ZM269.157 427.296V450H276.213V427.296H269.157ZM272.709 415.872C270.357 415.872 268.581 417.6 268.581 419.856C268.581 422.112 270.357 423.984 272.709 423.984C275.013 423.984 276.837 422.112 276.837 419.856C276.837 417.6 275.013 415.872 272.709 415.872ZM292.379 450.672C296.603 450.672 298.907 449.088 300.155 448.08V441.408C298.475 442.944 295.931 444.336 293.483 444.336C290.699 444.336 287.483 443.184 287.483 438.768C287.483 434.928 289.787 432.96 293.243 432.96C295.547 432.96 297.563 433.728 299.819 435.456V428.592C297.851 427.392 295.547 426.624 292.619 426.624C284.555 426.624 280.187 431.76 280.187 438.864C280.187 445.92 285.323 450.672 292.379 450.672Z" fill="black"/>
<path d="M102 175C132.667 175 196.8 175 208 175" stroke="white" stroke-width="13" stroke-linecap="round" stroke-linejoin="round"/>
<path d="M133.5 202H199.5" stroke="white" stroke-width="13" stroke-linecap="round" stroke-linejoin="round"/>
<path d="M102 364H168" stroke="white" stroke-width="13" stroke-linecap="round" stroke-linejoin="round"/>
<path d="M168 229H231.5" stroke="white" stroke-width="13" stroke-linecap="round" stroke-linejoin="round"/>
<path d="M256 229H287" stroke="white" stroke-width="13" stroke-linecap="round" stroke-linejoin="round"/>
<path d="M156 337C186.667 337 250.8 337 262 337" stroke="white" stroke-width="13" stroke-linecap="round" stroke-linejoin="round"/>
<path d="M102 337H133" stroke="white" stroke-width="13" stroke-linecap="round" stroke-linejoin="round"/>
<path d="M168 256H199" stroke="white" stroke-width="13" stroke-linecap="round" stroke-linejoin="round"/>
<path d="M168 283H220" stroke="white" stroke-width="13" stroke-linecap="round" stroke-linejoin="round"/>
<path d="M134 310H186" stroke="white" stroke-width="13" stroke-linecap="round" stroke-linejoin="round"/>
<path d="M338 271H425" stroke="black" stroke-width="13" stroke-linecap="round" stroke-linejoin="round" stroke-dasharray="26 26"/>
</svg>
