<svg height="144" viewBox="0 0 986 686" fill="none" xmlns="http://www.w3.org/2000/svg">
<path d="M963.461 18.8337C942.742 0.0837059 33.171 6.33368 18.6675 18.8337C4.1641 31.3337 2.09199 654.246 18.6675 668.829C35.2431 683.412 942.741 681.329 963.461 668.829C984.18 656.329 984.18 37.5837 963.461 18.8337Z" fill="white" stroke="black" stroke-width="13" stroke-linecap="round" stroke-linejoin="round"/>
<path d="M680.904 584.336C685.576 584.336 688.136 585.68 688.136 589.2C688.136 592.912 685.64 594.704 681.352 594.704H675.976V584.336H680.904ZM681.288 604.24C693.576 604.24 698.632 597.2 698.632 589.2C698.632 581.2 693.576 574.8 681.288 574.8H665.736V618H675.976V604.24H681.288ZM717.661 594.704C720.605 594.704 722.461 597.264 722.589 600.336H711.645C712.221 596.496 714.269 594.704 717.661 594.704ZM718.877 618.896C725.341 618.896 728.861 617.296 731.165 616.08V608.016C728.605 609.488 724.509 610.832 720.285 610.832C716.125 610.832 712.605 609.68 711.709 605.392H731.293V602.192C731.293 595.216 728.541 586.832 717.789 586.832C708.189 586.832 701.853 593.296 701.853 603.28C701.853 612.944 708.893 618.896 718.877 618.896ZM751.099 594.704C754.043 594.704 755.899 597.264 756.027 600.336H745.083C745.659 596.496 747.707 594.704 751.099 594.704ZM752.315 618.896C758.779 618.896 762.299 617.296 764.603 616.08V608.016C762.043 609.488 757.947 610.832 753.723 610.832C749.562 610.832 746.043 609.68 745.147 605.392H764.731V602.192C764.731 595.216 761.979 586.832 751.227 586.832C741.627 586.832 735.291 593.296 735.291 603.28C735.291 612.944 742.331 618.896 752.315 618.896ZM790.36 586.96C790.168 586.896 789.592 586.832 789.208 586.832C784.792 586.832 781.72 590.288 779.992 594.192V587.728H770.584V618H779.992V600.464C781.272 598.224 783.896 597.136 786.648 597.136H790.36V586.96Z" fill="#AD3CFF"/>
<path d="M151.184 571.8H140.112L131.664 587.928L123.216 571.8H112.144L126.48 597.976V615H136.656V598.232L151.184 571.8ZM163.179 615.896C172.459 615.896 179.755 609.496 179.755 599.768C179.755 590.104 172.459 583.832 163.179 583.832C153.899 583.832 146.603 590.104 146.603 599.768C146.603 609.496 153.899 615.896 163.179 615.896ZM156.331 599.768C156.331 594.712 159.403 592.216 163.179 592.216C166.955 592.216 170.091 594.712 170.091 599.768C170.091 604.952 166.955 607.512 163.179 607.512C159.403 607.512 156.331 604.952 156.331 599.768ZM214.716 615V584.728H205.308V604.248C204.028 606.424 201.724 607.512 199.356 607.512C195.836 607.512 194.172 605.784 194.172 602.264V584.728H184.764V604.12C184.764 611.032 188.156 615.896 195.58 615.896C199.74 615.896 202.94 613.976 205.308 611.416V615H214.716ZM241.673 583.96C241.481 583.896 240.905 583.832 240.521 583.832C236.105 583.832 233.033 587.288 231.305 591.192V584.728H221.897V615H231.305V597.464C232.585 595.224 235.208 594.136 237.961 594.136H241.673V583.96ZM261.522 570.648V615H270.93V570.648H261.522ZM292.804 615.896C302.084 615.896 309.38 609.496 309.38 599.768C309.38 590.104 302.084 583.832 292.804 583.832C283.524 583.832 276.228 590.104 276.228 599.768C276.228 609.496 283.524 615.896 292.804 615.896ZM285.956 599.768C285.956 594.712 289.028 592.216 292.804 592.216C296.58 592.216 299.716 594.712 299.716 599.768C299.716 604.952 296.58 607.512 292.804 607.512C289.028 607.512 285.956 604.952 285.956 599.768ZM328.085 600.024C325.333 600.024 323.157 598.296 323.157 595.352C323.157 592.344 325.333 590.616 328.085 590.616C330.773 590.616 333.013 592.344 333.013 595.352C333.013 598.296 330.773 600.024 328.085 600.024ZM328.213 625.176C322.709 625.176 320.725 623.576 320.725 621.656C320.725 619.928 322.773 618.328 327.509 618.328H329.685C334.549 618.328 336.341 619.8 336.341 621.464C336.341 623.512 333.845 625.176 328.213 625.176ZM314.069 595.416C314.069 600.408 317.397 603.48 320.533 604.632V604.888C317.845 605.656 315.093 607.512 315.093 610.456C315.093 612.632 317.013 614.168 319.445 615.064V615.256C316.501 616.28 311.701 618.264 311.701 623.064C311.701 627.928 317.013 631.448 327.189 631.448C339.157 631.448 345.365 626.968 345.365 620.184C345.365 614.872 340.949 611.16 332.117 610.968L328.341 610.904C325.205 610.84 323.221 609.88 323.221 608.6C323.221 607.768 323.669 607 324.693 606.424C325.845 606.744 327.125 606.872 328.405 606.872C337.237 606.872 342.101 601.944 342.101 595.8C342.101 594.072 341.717 592.408 341.013 590.872L345.621 591.064V584.152L334.165 584.92C332.245 584.216 330.069 583.832 327.637 583.832C319.893 583.832 314.069 588.376 314.069 595.416ZM350.209 584.728V615H359.617V584.728H350.209ZM354.945 569.496C351.809 569.496 349.441 571.8 349.441 574.808C349.441 577.816 351.809 580.312 354.945 580.312C358.017 580.312 360.449 577.816 360.449 574.808C360.449 571.8 358.017 569.496 354.945 569.496ZM381.172 615.896C386.804 615.896 389.876 613.784 391.54 612.44V603.544C389.3 605.592 385.908 607.448 382.644 607.448C378.932 607.448 374.644 605.912 374.644 600.024C374.644 594.904 377.716 592.28 382.324 592.28C385.396 592.28 388.084 593.304 391.092 595.608V586.456C388.468 584.856 385.396 583.832 381.492 583.832C370.74 583.832 364.916 590.68 364.916 600.152C364.916 609.56 371.764 615.896 381.172 615.896Z" fill="black"/>
<path d="M418 358H529" stroke="#CACACA" stroke-width="13" stroke-linecap="round" stroke-linejoin="round" stroke-dasharray="26 26"/>
<path d="M897.133 523.533C904.956 516.814 904.956 184.236 897.133 174.158C893.216 169.113 805.185 167.435 717.555 167.861C630.148 168.286 543.14 170.803 540.405 174.158C534.929 180.877 534.147 515.694 540.405 523.533C546.664 531.371 889.31 530.252 897.133 523.533Z" fill="white"/>
<path d="M717.555 167.861C630.148 168.286 543.14 170.803 540.405 174.158C534.929 180.877 534.147 515.694 540.405 523.533C546.664 531.371 889.31 530.252 897.133 523.533C904.956 516.814 904.956 184.236 897.133 174.158C893.216 169.113 805.185 167.435 717.555 167.861ZM717.555 167.861V131" stroke="#AD3CFF" stroke-width="13" stroke-linecap="round" stroke-linejoin="round"/>
<path d="M677.423 243.879C677.262 264.168 677.454 307.836 679.315 350.814C679.407 352.927 681.117 354.6 683.232 354.63C730.827 355.298 816.321 356.152 823.142 354.576C831.898 352.553 852.778 271.633 847.843 268.29C846.544 267.41 837.526 266.884 824.959 266.645V263.681C824.959 263.533 824.967 263.389 824.983 263.242C825.221 261.025 827.138 242.46 824.959 239.932C822.8 237.427 774.684 239.59 750.874 239.897C748.367 239.929 746.499 237.625 746.314 235.125C746.018 231.114 744.346 226.701 739.324 225.77C730.232 224.084 700.648 223.986 695.134 225.77C690.861 227.154 689.751 232.065 689.206 236.402C688.954 238.413 687.285 239.932 685.259 239.932H681.414C679.223 239.932 677.44 241.689 677.423 243.879Z" fill="white"/>
<path d="M705.913 326.935C715.906 281.381 724.405 272.098 727.638 269.671C730.591 267.453 790.847 265.994 824.959 266.645M824.959 266.645C837.526 266.884 846.544 267.41 847.843 268.29C852.778 271.633 831.898 352.553 823.142 354.576C816.321 356.152 730.827 355.298 683.232 354.63C681.117 354.6 679.407 352.927 679.315 350.814C677.454 307.836 677.262 264.168 677.423 243.879C677.44 241.689 679.223 239.932 681.414 239.932H685.259C687.285 239.932 688.954 238.413 689.206 236.402C689.751 232.065 690.861 227.154 695.134 225.77C700.648 223.986 730.232 224.084 739.324 225.77C744.346 226.701 746.018 231.114 746.314 235.125C746.499 237.625 748.367 239.929 750.874 239.897C774.684 239.59 822.8 237.427 824.959 239.932C827.138 242.46 825.221 261.025 824.983 263.242C824.967 263.389 824.959 263.533 824.959 263.681V266.645Z" stroke="#0077D7" stroke-width="13" stroke-linecap="round" stroke-linejoin="round"/>
<path d="M632.026 302.246C631.866 322.535 632.058 366.203 633.919 409.18C634.01 411.294 635.72 412.967 637.836 412.996C685.43 413.665 770.924 414.519 777.746 412.943C786.501 410.92 807.381 330 802.446 326.657C801.148 325.777 792.129 325.251 779.563 325.012V322.048C779.563 321.9 779.571 321.756 779.586 321.609C779.824 319.392 781.742 300.827 779.563 298.299C777.403 295.794 729.288 297.957 705.477 298.264C702.971 298.296 701.102 295.992 700.918 293.492C700.622 289.481 698.949 285.068 693.928 284.137C684.836 282.451 655.251 282.353 649.738 284.137C645.464 285.52 644.354 290.432 643.81 294.769C643.557 296.78 641.889 298.299 639.862 298.299H636.017C633.827 298.299 632.044 300.056 632.026 302.246Z" fill="white"/>
<path d="M660.516 385.302C670.51 339.748 679.009 330.465 682.241 328.038C685.195 325.82 745.451 324.361 779.563 325.012M779.563 325.012C792.129 325.251 801.148 325.777 802.446 326.657C807.381 330 786.501 410.92 777.746 412.943C770.924 414.519 685.43 413.665 637.836 412.996C635.72 412.967 634.01 411.294 633.919 409.18C632.058 366.203 631.866 322.535 632.026 302.246C632.044 300.056 633.827 298.299 636.017 298.299H639.862C641.889 298.299 643.557 296.78 643.81 294.769C644.354 290.432 645.464 285.52 649.738 284.137C655.251 282.353 684.836 282.451 693.928 284.137C698.949 285.068 700.622 289.481 700.918 293.492C701.102 295.992 702.971 298.296 705.477 298.264C729.288 297.957 777.403 295.794 779.563 298.299C781.742 300.827 779.824 319.392 779.586 321.609C779.571 321.756 779.563 321.9 779.563 322.048V325.012Z" stroke="#0077D7" stroke-width="13" stroke-linecap="round" stroke-linejoin="round"/>
<path d="M586.63 360.613C586.469 380.902 586.661 424.57 588.522 467.547C588.614 469.661 590.324 471.334 592.439 471.363C640.034 472.032 725.528 472.886 732.349 471.31C741.105 469.287 761.985 388.367 757.05 385.024C755.751 384.144 746.733 383.618 734.166 383.379V380.414C734.166 380.267 734.174 380.123 734.19 379.976C734.428 377.759 736.345 359.194 734.166 356.666C732.007 354.161 683.891 356.324 660.081 356.631C657.574 356.663 655.706 354.359 655.521 351.859C655.225 347.848 653.553 343.435 648.531 342.504C639.439 340.818 609.855 340.719 604.341 342.504C600.068 343.887 598.958 348.799 598.413 353.136C598.161 355.147 596.492 356.666 594.466 356.666H590.621C588.43 356.666 586.647 358.423 586.63 360.613Z" fill="white"/>
<path d="M615.12 443.669C625.113 398.115 633.612 388.832 636.845 386.405C639.798 384.187 700.054 382.728 734.166 383.379M734.166 383.379C746.733 383.618 755.751 384.144 757.05 385.024C761.985 388.367 741.105 469.287 732.349 471.31C725.528 472.886 640.034 472.032 592.439 471.363C590.324 471.334 588.614 469.661 588.522 467.547C586.661 424.57 586.469 380.902 586.63 360.613C586.647 358.423 588.43 356.666 590.621 356.666H594.466C596.492 356.666 598.161 355.147 598.413 353.136C598.958 348.799 600.068 343.887 604.341 342.504C609.855 340.719 639.439 340.818 648.531 342.504C653.553 343.435 655.225 347.848 655.521 351.859C655.706 354.359 657.574 356.663 660.081 356.631C683.891 356.324 732.007 354.161 734.166 356.666C736.345 359.194 734.428 377.759 734.19 379.976C734.174 380.123 734.166 380.267 734.166 380.414V383.379Z" stroke="#0077D7" stroke-width="13" stroke-linecap="round" stroke-linejoin="round"/>
<path d="M736.382 108.644C736.382 118.354 727.996 126.788 716.941 126.788C705.886 126.788 697.5 118.354 697.5 108.644C697.5 98.9334 705.886 90.5 716.941 90.5C727.996 90.5 736.382 98.9334 736.382 108.644Z" fill="white" stroke="#AD3CFF" stroke-width="13"/>
<path d="M673.715 83.9705C670.402 90.9813 668.535 98.9147 668.535 107.317C668.535 115.72 670.402 123.653 673.715 130.664M759.336 130.664C762.649 123.653 764.516 115.72 764.516 107.317C764.516 98.9147 762.649 90.9812 759.336 83.9705" stroke="#0077D7" stroke-width="13" stroke-linecap="round"/>
<path d="M648.26 71C642.978 81.9057 640 94.2467 640 107.317C640 120.388 642.978 132.729 648.26 143.634M784.791 143.634C790.074 132.729 793.051 120.388 793.051 107.317C793.051 94.2467 790.074 81.9057 784.791 71" stroke="#0077D7" stroke-width="13" stroke-linecap="round"/>
<path d="M412.756 201.318C405.765 192.892 98.8314 195.701 93.9372 201.318C89.043 206.936 88.3438 486.875 93.9372 493.429C99.5306 499.983 405.765 499.047 412.756 493.429C419.748 487.812 419.748 209.744 412.756 201.318Z" fill="black" stroke="black" stroke-width="13" stroke-linecap="round" stroke-linejoin="round"/>
<path d="M145 240C180.296 240 254.109 240 267 240" stroke="white" stroke-width="13" stroke-linecap="round" stroke-linejoin="round"/>
<path d="M181 271H258" stroke="white" stroke-width="13" stroke-linecap="round" stroke-linejoin="round"/>
<path d="M145 460H221" stroke="white" stroke-width="13" stroke-linecap="round" stroke-linejoin="round"/>
<path d="M221.001 303.056H294.645" stroke="white" stroke-width="13" stroke-linecap="round" stroke-linejoin="round"/>
<path d="M323.059 303.056H359.011" stroke="white" stroke-width="13" stroke-linecap="round" stroke-linejoin="round"/>
<path d="M207.084 428.308C242.65 428.308 317.028 428.308 330.017 428.308" stroke="white" stroke-width="13" stroke-linecap="round" stroke-linejoin="round"/>
<path d="M144.459 428.308H180.411" stroke="white" stroke-width="13" stroke-linecap="round" stroke-linejoin="round"/>
<path d="M221 335H257" stroke="white" stroke-width="13" stroke-linecap="round" stroke-linejoin="round"/>
<path d="M221 366H282" stroke="white" stroke-width="13" stroke-linecap="round" stroke-linejoin="round"/>
<path d="M182 397H241" stroke="white" stroke-width="13" stroke-linecap="round" stroke-linejoin="round"/>
</svg>
