<svg height="56" viewBox="0 0 233 269" fill="none" xmlns="http://www.w3.org/2000/svg">
<path d="M222.714 259.764C227.373 257.017 226.809 124.859 222.714 116.899C218.619 108.938 15.2411 111.969 10.2759 116.899C5.31079 121.829 6.5489 256.559 10.2759 259.764C14.003 262.97 218.055 262.512 222.714 259.764Z" fill="white" stroke="black" stroke-width="13" stroke-linecap="round" stroke-linejoin="round"/>
<path d="M106.373 191.796C101.389 201.584 94.7417 217.279 97.2497 222.913C97.6132 223.729 98.4971 224.103 99.3857 224.2C112.763 225.655 137.513 227.463 139.441 224.048C142.235 219.101 133.909 202.209 128.783 191.481C127.999 189.841 128.45 187.899 129.789 186.67C135.211 181.692 139.441 175.774 139.441 167.585C139.441 158.257 134.45 145 117.481 145C100.513 145 93.5255 158.257 94.0249 167.585C94.4363 175.27 100.605 182.399 105.277 186.503C106.783 187.826 107.282 190.01 106.373 191.796Z" fill="#FF9B3E" stroke="black" stroke-width="13" stroke-linecap="round" stroke-linejoin="round"/>
<path d="M115.5 7C36.58 7 50.467 73.7886 51.6918 107.945C51.772 110.182 53.6082 111.965 55.8466 111.926C63.8333 111.787 72.4763 111.669 81.4781 111.576C83.8539 111.551 85.6838 109.486 85.381 107.129C82.0903 81.5237 75.0816 36.371 115.5 36.371C156.002 36.371 149.599 82.0184 147.755 107.197C147.589 109.472 149.397 111.373 151.679 111.385C159.921 111.431 167.828 111.504 175.165 111.607C177.399 111.638 179.227 109.842 179.286 107.608C180.351 67.7692 194.927 7 115.5 7Z" fill="white" stroke="black" stroke-width="13" stroke-linecap="round" stroke-linejoin="round"/>
</svg>
