<svg width="236" height="338" viewBox="0 0 236 338" fill="none" xmlns="http://www.w3.org/2000/svg">
<path d="M53.25 114.249C28.3332 114.722 10.6136 115.409 9.66481 116.21C6.35229 119.008 5.87904 258.458 9.66481 261.723C13.4506 264.988 220.719 264.521 225.451 261.723C230.183 258.925 230.183 120.408 225.451 116.21C224.127 115.036 206.922 114.3 182.75 113.91M53.25 114.249C53.25 80.9659 34.506 7 118 7C201.494 7 182.75 73.4439 182.75 113.91M53.25 114.249C63.7734 114.049 75.5806 113.887 87.9503 113.771M182.75 113.91C172.948 113.751 162.001 113.65 150.503 113.6M87.9503 113.771C85.0884 88.847 74.4586 37 118 37C161.541 37 151.729 89.1991 150.503 113.6M87.9503 113.771C108.349 113.579 130.279 113.511 150.503 113.6" stroke="black" stroke-width="13" stroke-linecap="round" stroke-linejoin="round"/>
<path d="M71.664 295.52C70.176 294.32 66.528 292.928 61.872 292.928C48.96 292.928 43.728 301.424 43.728 309.488C43.728 317.648 48.96 326.672 61.92 326.672C66.288 326.672 70.608 325.424 72.48 323.84V315.92C70.704 317.744 66.384 319.472 62.784 319.472C55.392 319.472 51.792 314.864 51.792 309.488C51.792 304.256 55.248 300.128 62.208 300.128C64.896 300.128 69.072 301.424 71.664 303.488V295.52ZM92.145 302.72C92.001 302.672 91.569 302.624 91.281 302.624C87.969 302.624 85.665 305.216 84.369 308.144V303.296H77.313V326H84.369V312.848C85.329 311.168 87.297 310.352 89.361 310.352H92.145V302.72ZM110.358 303.296L105.654 317.552L100.95 303.296H93.51L102.726 326.528L102.39 327.536C101.43 330.512 99.654 331.52 97.542 331.52C96.15 331.52 94.806 331.184 93.798 330.656V337.088C94.566 337.472 96.006 337.904 98.022 337.904C102.678 337.904 105.414 335.216 107.43 330.08L117.846 303.296H110.358ZM131.769 320.384C129.801 320.384 128.169 319.424 127.257 317.792V311.168C128.409 309.728 129.849 308.912 131.769 308.912C134.217 308.912 136.809 310.592 136.809 314.528C136.809 318.512 134.217 320.384 131.769 320.384ZM133.545 326.672C139.257 326.672 144.057 321.296 144.057 314.528C144.057 307.28 139.593 302.624 133.929 302.624C130.617 302.624 128.457 304.064 127.113 305.408L126.441 303.296H120.297V336.8H127.257V324.512C129.129 325.952 131.337 326.672 133.545 326.672ZM157.263 326.672C160.383 326.672 162.447 325.856 163.599 324.992V319.232C162.687 320 161.295 320.576 159.519 320.576C158.079 320.576 156.351 319.952 156.351 317.648V308.672H162.975V303.296H156.351V296.528H155.919L145.119 308.192V308.672H149.343V319.616C149.343 324.32 153.519 326.672 157.263 326.672ZM178.541 326.672C185.501 326.672 190.973 321.872 190.973 314.576C190.973 307.328 185.501 302.624 178.541 302.624C171.581 302.624 166.109 307.328 166.109 314.576C166.109 321.872 171.581 326.672 178.541 326.672ZM173.405 314.576C173.405 310.784 175.709 308.912 178.541 308.912C181.373 308.912 183.725 310.784 183.725 314.576C183.725 318.464 181.373 320.384 178.541 320.384C175.709 320.384 173.405 318.464 173.405 314.576Z" fill="black"/>
<path d="M107.442 192.564C102.443 202.528 95.7325 218.595 98.2573 224.347C98.62 225.174 99.5096 225.557 100.407 225.656C113.811 227.137 138.593 228.977 140.525 225.5C143.331 220.449 134.939 203.171 129.807 192.25C129.043 190.624 129.486 188.709 130.801 187.485C136.259 182.406 140.525 176.366 140.525 168C140.525 158.5 135.525 145 118.525 145C101.525 145 94.5246 158.5 95.0249 168C95.4389 175.86 101.67 183.149 106.358 187.319C107.839 188.637 108.33 190.792 107.442 192.564Z" fill="#FF9B3E" stroke="black" stroke-width="13" stroke-linecap="round" stroke-linejoin="round"/>
</svg>
