<svg width="158" height="273" viewBox="0 0 158 273" fill="none" xmlns="http://www.w3.org/2000/svg">
<path d="M10.3666 184.922C7.64382 134.091 4.32976 15.2223 10.5099 10.7505C16.7989 6.19984 94.2946 5.65908 99.831 9.85048C118.784 24.1993 136.383 42.6488 147.827 65.5981C151.589 73.1439 152.502 185.207 147.827 189.345C143.306 193.347 40.6266 195.413 13.0651 188.306C11.496 187.902 10.4532 186.541 10.3666 184.922Z" fill="white"/>
<path d="M99.831 9.85048C94.2946 5.65908 16.7989 6.19984 10.5099 10.7505C4.32976 15.2223 7.64382 134.091 10.3666 184.922C10.4532 186.541 11.496 187.902 13.0651 188.306C40.6266 195.413 143.306 193.347 147.827 189.345C152.502 185.207 151.589 73.1439 147.827 65.5981M99.831 9.85048C118.784 24.1993 136.383 42.6488 147.827 65.5981M99.831 9.85048C98.6276 26.0331 94.6866 60.7383 97.5746 62.8982C100.463 65.0582 133.784 65.5981 147.827 65.5981" stroke="#05AD60" stroke-width="13" stroke-linecap="round" stroke-linejoin="round"/>
<path d="M30.9999 155.392C60.0003 103.948 94.7718 169.09 66.5029 165.948C48.5081 163.948 61.2783 137.617 80.5008 124.948C95.8788 114.813 125.503 125.448 126.732 155.392" stroke="#FF9B3E" stroke-width="13" stroke-linecap="round" stroke-linejoin="round"/>
<path d="M51.648 235.752C58.752 235.752 61.68 239.496 61.68 244.584C61.68 249.72 58.704 253.848 51.984 253.848H47.232V235.752H51.648ZM39.552 261H51.936C64.992 261 69.696 252.696 69.696 244.584C69.696 236.472 64.992 228.6 51.936 228.6H39.552V261ZM85.1655 261.672C92.1255 261.672 97.5975 256.872 97.5975 249.576C97.5975 242.328 92.1255 237.624 85.1655 237.624C78.2055 237.624 72.7335 242.328 72.7335 249.576C72.7335 256.872 78.2055 261.672 85.1655 261.672ZM80.0295 249.576C80.0295 245.784 82.3335 243.912 85.1655 243.912C87.9975 243.912 90.3495 245.784 90.3495 249.576C90.3495 253.464 87.9975 255.384 85.1655 255.384C82.3335 255.384 80.0295 253.464 80.0295 249.576ZM112.394 261.672C116.618 261.672 118.922 260.088 120.17 259.08V252.408C118.49 253.944 115.946 255.336 113.498 255.336C110.714 255.336 107.498 254.184 107.498 249.768C107.498 245.928 109.802 243.96 113.258 243.96C115.562 243.96 117.578 244.728 119.834 246.456V239.592C117.866 238.392 115.562 237.624 112.634 237.624C104.57 237.624 100.202 242.76 100.202 249.864C100.202 256.92 105.338 261.672 112.394 261.672Z" fill="#008649"/>
</svg>
