<svg height="54" viewBox="0 0 201 255" fill="none" xmlns="http://www.w3.org/2000/svg">
<path d="M11.4144 238.323C7.87081 172.911 3.50018 17.6769 11.558 11.8595C19.7249 5.96323 120.362 5.26257 127.551 10.6934C152.164 29.2851 175.018 53.1901 189.879 82.9255C194.765 92.7025 195.95 237.903 189.879 243.265C183.964 248.489 48.6379 251.166 14.0788 241.707C12.515 241.279 11.5021 239.942 11.4144 238.323Z" fill="white"/>
<path d="M127.551 10.6934C120.362 5.26257 19.7249 5.96323 11.558 11.8595C3.50018 17.6769 7.87081 172.911 11.4144 238.323C11.5021 239.942 12.515 241.279 14.0788 241.707C48.6379 251.166 183.964 248.489 189.879 243.265C195.95 237.903 194.765 92.7025 189.879 82.9255M127.551 10.6934C152.164 29.2851 175.018 53.1901 189.879 82.9255M127.551 10.6934C125.989 31.6612 120.871 76.6286 124.621 79.4273C128.372 82.2259 171.643 82.9255 189.879 82.9255" stroke="#05AD60" stroke-width="13" stroke-linecap="round" stroke-linejoin="round"/>
<path d="M38.023 199.423C75.6378 132.697 120.738 217.189 84.072 213.114C60.7319 210.52 77.2954 176.367 102.228 159.935C122.174 146.79 160.597 160.584 162.192 199.423" stroke="#FF9B3E" stroke-width="13" stroke-linecap="round" stroke-linejoin="round"/>
</svg>
