<svg height="65" viewBox="0 0 194 308" fill="none" xmlns="http://www.w3.org/2000/svg">
<path d="M187.257 97.9534C187.257 148.076 146.898 188.708 97.1122 188.708C92.785 188.708 88.529 188.401 84.3645 187.808C40.6159 181.573 6.96777 143.719 6.96777 97.9534C6.96777 47.8311 47.3268 7.19891 97.1122 7.19891C146.898 7.19891 187.257 47.8311 187.257 97.9534Z" fill="white"/>
<path d="M84.3645 187.808C88.529 188.401 92.785 188.708 97.1122 188.708C146.898 188.708 187.257 148.076 187.257 97.9534C187.257 47.8311 146.898 7.19891 97.1122 7.19891C47.3268 7.19891 6.96777 47.8311 6.96777 97.9534C6.96777 143.719 40.6159 181.573 84.3645 187.808ZM84.3645 187.808V251.961M141.729 301.464H85.3645C84.8122 301.464 84.3645 301.016 84.3645 300.464V251.961M84.3645 251.961H141.729" stroke="#FF9B3E" stroke-width="13" stroke-linecap="round"/>
<path d="M75.7109 57.7836V88.9126" stroke="#FF9B3E" stroke-width="13" stroke-linecap="round" stroke-linejoin="round"/>
<path d="M114.622 57.7836V88.9126" stroke="#FF9B3E" stroke-width="13" stroke-linecap="round" stroke-linejoin="round"/>
<path d="M63.6943 121.696C69.9112 131.022 85.4533 147.6 95.8148 148.636C106.176 149.672 120.337 133.094 126.899 122.733" stroke="#FF9B3E" stroke-width="13" stroke-linecap="round" stroke-linejoin="round"/>
</svg>
