<svg width="335" height="320" viewBox="0 0 335 320" fill="none" xmlns="http://www.w3.org/2000/svg">
<path d="M224 76.9704C224 115.614 192.884 146.941 154.5 146.941C151.164 146.941 147.882 146.704 144.672 146.246C110.942 141.44 85 112.255 85 76.9704C85 38.3268 116.116 7 154.5 7C192.884 7 224 38.3268 224 76.9704Z" fill="white"/>
<path d="M144.672 146.246C147.882 146.704 151.164 146.941 154.5 146.941C192.884 146.941 224 115.614 224 76.9704C224 38.3268 192.884 7 154.5 7C116.116 7 85 38.3268 85 76.9704C85 112.255 110.942 141.44 144.672 146.246ZM144.672 146.246V195.708M188.899 233.874H145.672C145.119 233.874 144.672 233.426 144.672 232.874V195.708M144.672 195.708H188.899" stroke="#FF9B3E" stroke-width="13" stroke-linecap="round"/>
<path d="M138 46V70" stroke="#FF9B3E" stroke-width="13" stroke-linecap="round" stroke-linejoin="round"/>
<path d="M168 46V70" stroke="#FF9B3E" stroke-width="13" stroke-linecap="round" stroke-linejoin="round"/>
<path d="M128.735 95.2759C133.528 102.466 145.511 115.247 153.5 116.046C161.488 116.845 172.406 104.063 177.465 96.0747" stroke="#FF9B3E" stroke-width="13" stroke-linecap="round" stroke-linejoin="round"/>
<path d="M3.552 275.6V308H11.232V275.6H3.552ZM39.8216 274.736H32.8616V287.072C31.9976 286.112 29.5976 284.624 26.3816 284.624C20.4296 284.624 16.0616 289.28 16.0616 296.528C16.0616 304.16 21.0536 308.672 26.6216 308.672C29.2136 308.672 31.3256 307.856 33.1496 306.368L33.6776 308H39.8216V274.736ZM28.4936 302.384C25.7096 302.384 23.3576 300.512 23.3576 296.528C23.3576 292.592 25.9496 290.912 28.3976 290.912C30.2696 290.912 31.7576 291.68 32.8616 293.168V299.792C31.9976 301.424 30.4616 302.384 28.4936 302.384ZM55.6676 290.528C57.8756 290.528 59.2676 292.448 59.3636 294.752H51.1556C51.5876 291.872 53.1236 290.528 55.6676 290.528ZM56.5796 308.672C61.4276 308.672 64.0676 307.472 65.7956 306.56V300.512C63.8756 301.616 60.8036 302.624 57.6356 302.624C54.5156 302.624 51.8756 301.76 51.2036 298.544H65.8916V296.144C65.8916 290.912 63.8276 284.624 55.7636 284.624C48.5636 284.624 43.8116 289.472 43.8116 296.96C43.8116 304.208 49.0916 308.672 56.5796 308.672ZM85.6898 296.144V308H92.7458V294.176C92.7458 288.032 90.0098 284.624 84.3938 284.624C81.5138 284.624 79.1618 286.064 77.3378 288.272V285.296H70.2818V308H77.3378V293.264C78.2978 291.728 80.0258 290.912 81.8498 290.912C84.4898 290.912 85.6898 292.688 85.6898 296.144ZM107.107 308.672C110.227 308.672 112.291 307.856 113.443 306.992V301.232C112.531 302 111.139 302.576 109.363 302.576C107.923 302.576 106.195 301.952 106.195 299.648V290.672H112.819V285.296H106.195V278.528H105.763L94.9631 290.192V290.672H99.1871V301.616C99.1871 306.32 103.363 308.672 107.107 308.672ZM117.344 285.296V308H124.4V285.296H117.344ZM120.896 273.872C118.544 273.872 116.768 275.6 116.768 277.856C116.768 280.112 118.544 281.984 120.896 281.984C123.2 281.984 125.024 280.112 125.024 277.856C125.024 275.6 123.2 273.872 120.896 273.872ZM138.982 308.672C142.102 308.672 144.166 307.856 145.318 306.992V301.232C144.406 302 143.014 302.576 141.238 302.576C139.798 302.576 138.07 301.952 138.07 299.648V290.672H144.694V285.296H138.07V278.528H137.638L126.838 290.192V290.672H131.062V301.616C131.062 306.32 135.238 308.672 138.982 308.672ZM163.139 285.296L158.435 299.552L153.731 285.296H146.291L155.507 308.528L155.171 309.536C154.211 312.512 152.435 313.52 150.323 313.52C148.931 313.52 147.587 313.184 146.579 312.656V319.088C147.347 319.472 148.787 319.904 150.803 319.904C155.459 319.904 158.195 317.216 160.211 312.08L170.627 285.296H163.139ZM194.199 308H203.703L189.783 291.248L201.543 275.6H192.615L181.623 290.192V275.6H173.943V308H181.623V292.976L194.199 308ZM215.605 290.528C217.813 290.528 219.205 292.448 219.301 294.752H211.093C211.525 291.872 213.061 290.528 215.605 290.528ZM216.517 308.672C221.365 308.672 224.005 307.472 225.733 306.56V300.512C223.813 301.616 220.741 302.624 217.573 302.624C214.453 302.624 211.813 301.76 211.141 298.544H225.829V296.144C225.829 290.912 223.765 284.624 215.701 284.624C208.501 284.624 203.749 289.472 203.749 296.96C203.749 304.208 209.029 308.672 216.517 308.672ZM244.139 285.296L239.435 299.552L234.731 285.296H227.291L236.507 308.528L236.171 309.536C235.211 312.512 233.435 313.52 231.323 313.52C229.931 313.52 228.587 313.184 227.579 312.656V319.088C228.347 319.472 229.787 319.904 231.803 319.904C236.459 319.904 239.195 317.216 241.211 312.08L251.627 285.296H244.139ZM265.551 302.384C263.583 302.384 261.951 301.424 261.039 299.792V293.168C262.191 291.728 263.631 290.912 265.551 290.912C267.999 290.912 270.591 292.592 270.591 296.528C270.591 300.512 267.999 302.384 265.551 302.384ZM267.327 308.672C273.039 308.672 277.839 303.296 277.839 296.528C277.839 289.28 273.375 284.624 267.711 284.624C264.399 284.624 262.239 286.064 260.895 287.408L260.223 285.296H254.079V318.8H261.039V306.512C262.911 307.952 265.119 308.672 267.327 308.672ZM299.157 309.104L303.381 304.4L300.645 302V294.512C300.645 288.752 298.197 284.624 290.709 284.624C287.013 284.624 283.893 285.776 282.021 286.928V293.072C284.181 291.632 286.677 290.672 289.557 290.672C292.485 290.672 293.733 292.016 293.925 293.648L288.165 294.944C284.325 295.808 280.533 297.536 280.533 302.144C280.533 306.128 283.605 308.672 288.021 308.672C291.141 308.672 293.493 307.568 295.557 305.936L299.157 309.104ZM287.541 301.28C287.541 299.84 288.645 298.928 290.565 298.448L293.925 297.584V301.424C293.157 302.384 291.669 303.248 289.797 303.248C288.501 303.248 287.541 302.576 287.541 301.28ZM306.251 285.296V308H313.307V285.296H306.251ZM309.803 273.872C307.451 273.872 305.675 275.6 305.675 277.856C305.675 280.112 307.451 281.984 309.803 281.984C312.107 281.984 313.931 280.112 313.931 277.856C313.931 275.6 312.107 273.872 309.803 273.872ZM333.504 284.72C333.36 284.672 332.928 284.624 332.64 284.624C329.328 284.624 327.024 287.216 325.728 290.144V285.296H318.672V308H325.728V294.848C326.688 293.168 328.656 292.352 330.72 292.352H333.504V284.72Z" fill="#FF9B3E"/>
</svg>
