<svg width="297" height="497" viewBox="0 0 297 497" fill="none" xmlns="http://www.w3.org/2000/svg">
<path d="M285.476 421.059C291.508 414.986 291.508 114.39 285.476 105.281C282.456 100.72 214.573 99.2042 147 99.5891C79.5988 99.973 12.5057 102.248 10.397 105.281C6.17432 111.353 5.57102 413.974 10.397 421.059C15.223 428.143 279.443 427.131 285.476 421.059Z" fill="white"/>
<path d="M147 99.5891C79.5988 99.973 12.5057 102.248 10.397 105.281C6.17432 111.353 5.57102 413.974 10.397 421.059C15.223 428.143 279.443 427.131 285.476 421.059C291.508 414.986 291.508 114.39 285.476 105.281C282.456 100.72 214.573 99.2042 147 99.5891ZM147 99.5891V52" stroke="black" stroke-width="13" stroke-linecap="round" stroke-linejoin="round"/>
<path d="M116.028 154.859C115.918 170.722 116.083 203.311 117.456 235.548C117.547 237.662 119.267 239.335 121.382 239.364C158.239 239.878 223.164 240.517 228.382 239.311C235.132 237.751 251.23 175.363 247.426 172.786C246.425 172.108 239.471 171.702 229.783 171.517V169.283C229.783 169.135 229.791 168.993 229.806 168.846C230.01 166.935 231.448 152.854 229.783 150.922C228.151 149.028 192.466 150.594 173.768 150.88C171.261 150.918 169.417 148.594 169.022 146.119C168.582 143.361 167.176 140.637 163.76 140.004C156.75 138.704 133.941 138.628 129.69 140.004C126.658 140.985 125.691 144.27 125.229 147.394C124.933 149.399 123.289 150.922 121.262 150.922H120.017C117.826 150.922 116.043 152.669 116.028 154.859Z" fill="white"/>
<path d="M138 218C145.705 182.879 152.257 175.722 154.75 173.85C157.027 172.14 203.483 171.015 229.783 171.517M229.783 171.517C239.471 171.702 246.425 172.108 247.426 172.786C251.23 175.363 235.132 237.751 228.382 239.311C223.164 240.517 158.239 239.878 121.382 239.364C119.267 239.335 117.547 237.662 117.456 235.548C116.083 203.311 115.918 170.722 116.028 154.859C116.043 152.669 117.826 150.922 120.017 150.922H121.262C123.289 150.922 124.933 149.399 125.229 147.394C125.691 144.27 126.658 140.985 129.69 140.004C133.941 138.628 156.75 138.704 163.76 140.004C167.176 140.637 168.582 143.361 169.022 146.119C169.417 148.594 171.261 150.918 173.768 150.88C192.466 150.594 228.151 149.028 229.783 150.922C231.448 152.854 230.01 166.935 229.806 168.846C229.791 168.993 229.783 169.135 229.783 169.283V171.517Z" stroke="#0077D7" stroke-width="13" stroke-linecap="round" stroke-linejoin="round"/>
<path d="M81.028 199.859C80.9177 215.722 81.0826 248.311 82.4564 280.548C82.5465 282.662 84.2667 284.335 86.3824 284.364C123.239 284.878 188.164 285.517 193.382 284.311C200.132 282.751 216.23 220.363 212.426 217.786C211.425 217.108 204.471 216.702 194.783 216.517V214.283C194.783 214.135 194.791 213.993 194.806 213.846C195.01 211.935 196.448 197.854 194.783 195.922C193.151 194.028 157.466 195.594 138.768 195.88C136.261 195.918 134.417 193.594 134.022 191.119C133.582 188.361 132.176 185.637 128.76 185.004C121.75 183.704 98.9407 183.628 94.6899 185.004C91.6576 185.985 90.691 189.27 90.229 192.394C89.9325 194.399 88.289 195.922 86.2625 195.922H85.0165C82.8263 195.922 81.0432 197.669 81.028 199.859Z" fill="white"/>
<path d="M103 263C110.705 227.879 117.257 220.722 119.75 218.85C122.027 217.14 168.483 216.015 194.783 216.517M194.783 216.517C204.471 216.702 211.425 217.108 212.426 217.786C216.23 220.363 200.132 282.751 193.382 284.311C188.164 285.517 123.239 284.878 86.3824 284.364C84.2667 284.335 82.5465 282.662 82.4564 280.548C81.0826 248.311 80.9177 215.722 81.028 199.859C81.0432 197.669 82.8263 195.922 85.0165 195.922H86.2625C88.289 195.922 89.9325 194.399 90.229 192.394C90.691 189.27 91.6576 185.985 94.6899 185.004C98.9407 183.628 121.75 183.704 128.76 185.004C132.176 185.637 133.582 188.361 134.022 191.119C134.417 193.594 136.261 195.918 138.768 195.88C157.466 195.594 193.151 194.028 194.783 195.922C196.448 197.854 195.01 211.935 194.806 213.846C194.791 213.993 194.783 214.135 194.783 214.283V216.517Z" stroke="#0077D7" stroke-width="13" stroke-linecap="round" stroke-linejoin="round"/>
<path d="M46.028 244.859C45.9177 260.722 46.0826 293.311 47.4564 325.548C47.5465 327.662 49.2667 329.335 51.3824 329.364C88.2386 329.878 153.164 330.517 158.382 329.311C165.132 327.751 181.23 265.363 177.426 262.786C176.425 262.108 169.471 261.702 159.783 261.517V259.283C159.783 259.135 159.791 258.993 159.806 258.846C160.01 256.935 161.448 242.854 159.783 240.922C158.151 239.028 122.466 240.594 103.768 240.88C101.261 240.918 99.417 238.594 99.022 236.119C98.5821 233.361 97.1763 230.637 93.7597 230.004C86.7497 228.704 63.9407 228.628 59.6899 230.004C56.6576 230.985 55.691 234.27 55.229 237.394C54.9325 239.399 53.289 240.922 51.2625 240.922H50.0165C47.8263 240.922 46.0432 242.669 46.028 244.859Z" fill="white"/>
<path d="M68 308C75.7047 272.879 82.2572 265.722 84.7497 263.85C87.0265 262.14 133.483 261.015 159.783 261.517M159.783 261.517C169.471 261.702 176.425 262.108 177.426 262.786C181.23 265.363 165.132 327.751 158.382 329.311C153.164 330.517 88.2386 329.878 51.3824 329.364C49.2667 329.335 47.5465 327.662 47.4564 325.548C46.0826 293.311 45.9177 260.722 46.028 244.859C46.0432 242.669 47.8263 240.922 50.0165 240.922H51.2625C53.289 240.922 54.9325 239.399 55.229 237.394C55.691 234.27 56.6576 230.985 59.6899 230.004C63.9407 228.628 86.7497 228.704 93.7597 230.004C97.1763 230.637 98.5821 233.361 99.022 236.119C99.417 238.594 101.261 240.918 103.768 240.88C122.466 240.594 158.151 239.028 159.783 240.922C161.448 242.854 160.01 256.935 159.806 258.846C159.791 258.993 159.783 259.135 159.783 259.283V261.517Z" stroke="#0077D7" stroke-width="13" stroke-linecap="round" stroke-linejoin="round"/>
<path d="M113.928 459.752C117.432 459.752 119.352 460.76 119.352 463.4C119.352 466.184 117.48 467.528 114.264 467.528H110.232V459.752H113.928ZM114.216 474.68C123.432 474.68 127.224 469.4 127.224 463.4C127.224 457.4 123.432 452.6 114.216 452.6H102.552V485H110.232V474.68H114.216ZM141.496 467.528C143.704 467.528 145.096 469.448 145.192 471.752H136.984C137.416 468.872 138.952 467.528 141.496 467.528ZM142.408 485.672C147.256 485.672 149.896 484.472 151.624 483.56V477.512C149.704 478.616 146.632 479.624 143.464 479.624C140.344 479.624 137.704 478.76 137.032 475.544H151.72V473.144C151.72 467.912 149.656 461.624 141.592 461.624C134.392 461.624 129.64 466.472 129.64 473.96C129.64 481.208 134.92 485.672 142.408 485.672ZM166.574 467.528C168.782 467.528 170.174 469.448 170.27 471.752H162.062C162.494 468.872 164.03 467.528 166.574 467.528ZM167.486 485.672C172.334 485.672 174.974 484.472 176.702 483.56V477.512C174.782 478.616 171.71 479.624 168.542 479.624C165.422 479.624 162.782 478.76 162.11 475.544H176.798V473.144C176.798 467.912 174.734 461.624 166.67 461.624C159.47 461.624 154.718 466.472 154.718 473.96C154.718 481.208 159.998 485.672 167.486 485.672ZM196.02 461.72C195.876 461.672 195.444 461.624 195.156 461.624C191.844 461.624 189.54 464.216 188.244 467.144V462.296H181.188V485H188.244V471.848C189.204 470.168 191.172 469.352 193.236 469.352H196.02V461.72Z" fill="black"/>
<path d="M75.208 363.752C78.088 363.752 79.864 364.568 79.864 367.016C79.864 369.224 78.184 370.424 75.544 370.424H72.232V363.752H75.208ZM73.144 376.952C75.688 376.952 77.176 378.104 79.096 381.416L83.416 389H92.248L87.064 379.448C85.96 377.384 84.472 375.848 82.936 374.888C86.056 372.968 87.736 369.848 87.736 366.632C87.736 360.632 83.992 356.6 75.208 356.6H64.552V389H72.232V376.952H73.144ZM104.386 371.528C106.594 371.528 107.986 373.448 108.082 375.752H99.8744C100.306 372.872 101.842 371.528 104.386 371.528ZM105.298 389.672C110.146 389.672 112.786 388.472 114.514 387.56V381.512C112.594 382.616 109.522 383.624 106.354 383.624C103.234 383.624 100.594 382.76 99.9224 379.544H114.61V377.144C114.61 371.912 112.546 365.624 104.482 365.624C97.2824 365.624 92.5304 370.472 92.5304 377.96C92.5304 385.208 97.8104 389.672 105.298 389.672ZM130.473 383.384C128.505 383.384 126.873 382.424 125.961 380.792V374.168C127.113 372.728 128.553 371.912 130.473 371.912C132.921 371.912 135.513 373.592 135.513 377.528C135.513 381.512 132.921 383.384 130.473 383.384ZM132.249 389.672C137.961 389.672 142.76 384.296 142.76 377.528C142.76 370.28 138.297 365.624 132.633 365.624C129.321 365.624 127.161 367.064 125.817 368.408L125.145 366.296H119.001V399.8H125.961V387.512C127.833 388.952 130.041 389.672 132.249 389.672ZM146.751 355.736V389H153.807V355.736H146.751ZM159.172 366.296V389H166.228V366.296H159.172ZM162.724 354.872C160.372 354.872 158.596 356.6 158.596 358.856C158.596 361.112 160.372 362.984 162.724 362.984C165.028 362.984 166.852 361.112 166.852 358.856C166.852 356.6 165.028 354.872 162.724 354.872ZM182.394 389.672C186.618 389.672 188.922 388.088 190.17 387.08V380.408C188.49 381.944 185.946 383.336 183.498 383.336C180.714 383.336 177.498 382.184 177.498 377.768C177.498 373.928 179.802 371.96 183.258 371.96C185.562 371.96 187.578 372.728 189.834 374.456V367.592C187.866 366.392 185.562 365.624 182.634 365.624C174.57 365.624 170.202 370.76 170.202 377.864C170.202 384.92 175.338 389.672 182.394 389.672ZM211.891 390.104L216.115 385.4L213.379 383V375.512C213.379 369.752 210.931 365.624 203.443 365.624C199.747 365.624 196.627 366.776 194.755 367.928V374.072C196.915 372.632 199.411 371.672 202.291 371.672C205.219 371.672 206.467 373.016 206.659 374.648L200.899 375.944C197.059 376.808 193.267 378.536 193.267 383.144C193.267 387.128 196.339 389.672 200.755 389.672C203.875 389.672 206.227 388.568 208.291 386.936L211.891 390.104ZM200.275 382.28C200.275 380.84 201.379 379.928 203.299 379.448L206.659 378.584V382.424C205.891 383.384 204.403 384.248 202.531 384.248C201.235 384.248 200.275 383.576 200.275 382.28ZM226.329 389.672C231.273 389.672 235.593 387.464 235.593 382.472C235.593 374.792 225.225 375.704 225.225 372.92C225.225 372.056 225.993 371.576 227.721 371.576C229.209 371.576 231.897 372.248 234.201 373.832V367.064C232.665 366.296 229.785 365.624 227.337 365.624C221.913 365.624 218.025 368.408 218.025 373.016C218.025 380.84 228.393 380.168 228.393 382.76C228.393 383.72 227.529 384.152 226.089 384.152C223.449 384.152 220.185 382.712 218.265 381.032V387.368C219.513 388.424 222.825 389.672 226.329 389.672Z" fill="#0B71C3"/>
<path d="M160.5 36C160.5 42.5934 154.774 48.5 147 48.5C139.226 48.5 133.5 42.5934 133.5 36C133.5 29.4066 139.226 23.5 147 23.5C154.774 23.5 160.5 29.4066 160.5 36Z" stroke="black" stroke-width="13"/>
<path d="M113.994 17C111.44 22.4052 110 28.5218 110 35C110 41.4782 111.44 47.5948 113.994 53M180.006 53C182.56 47.5948 184 41.4782 184 35C184 28.5218 182.56 22.4052 180.006 17" stroke="black" stroke-width="13" stroke-linecap="round"/>
<path d="M94.3682 7.00001C90.2956 15.4081 88 24.9228 88 35C88 45.0772 90.2956 54.5919 94.3682 63M199.632 63C203.704 54.5919 206 45.0772 206 35C206 24.9228 203.704 15.4081 199.632 7" stroke="black" stroke-width="13" stroke-linecap="round"/>
</svg>
