<svg height="117" viewBox="0 0 381 558" fill="none" xmlns="http://www.w3.org/2000/svg">
<path d="M368.195 544.311C376.019 536.434 376.019 146.548 368.195 134.733C364.278 128.818 276.231 126.852 188.586 127.351C101.164 127.849 14.1411 130.8 11.4061 134.733C5.92906 142.61 5.14656 535.122 11.4061 544.311C17.6656 553.5 360.371 552.187 368.195 544.311Z" fill="white"/>
<path d="M188.586 127.351C101.164 127.849 14.1411 130.8 11.4061 134.733C5.92906 142.61 5.14656 535.122 11.4061 544.311C17.6656 553.5 360.371 552.187 368.195 544.311C376.019 536.434 376.019 146.548 368.195 134.733C364.278 128.818 276.231 126.852 188.586 127.351ZM188.586 127.351V65.626" stroke="black" stroke-width="13" stroke-linecap="round" stroke-linejoin="round"/>
<path d="M148.423 197.879C148.262 218.168 148.454 261.836 150.315 304.814C150.407 306.927 152.117 308.6 154.232 308.63C201.827 309.298 287.321 310.152 294.142 308.576C302.898 306.553 323.778 225.633 318.843 222.29C317.544 221.41 308.526 220.884 295.959 220.645V217.681C295.959 217.533 295.967 217.389 295.983 217.242C296.221 215.025 298.138 196.46 295.959 193.932C293.8 191.427 245.684 193.59 221.874 193.897C219.367 193.929 217.499 191.625 217.314 189.125C217.018 185.114 215.346 180.701 210.324 179.77C201.232 178.084 171.648 177.986 166.134 179.77C161.861 181.154 160.751 186.065 160.206 190.402C159.954 192.413 158.285 193.932 156.259 193.932H152.414C150.223 193.932 148.44 195.689 148.423 197.879Z" fill="white"/>
<path d="M176.913 280.935C186.906 235.381 195.405 226.098 198.638 223.671C201.591 221.453 261.847 219.994 295.959 220.645M295.959 220.645C308.526 220.884 317.544 221.41 318.843 222.29C323.778 225.633 302.898 306.553 294.142 308.576C287.321 310.152 201.827 309.298 154.232 308.63C152.117 308.6 150.407 306.927 150.315 304.814C148.454 261.836 148.262 218.168 148.423 197.879C148.44 195.689 150.223 193.932 152.414 193.932H156.259C158.285 193.932 159.954 192.413 160.206 190.402C160.751 186.065 161.861 181.154 166.134 179.77C171.648 177.986 201.232 178.084 210.324 179.77C215.346 180.701 217.018 185.114 217.314 189.125C217.499 191.625 219.367 193.929 221.874 193.897C245.684 193.59 293.8 191.427 295.959 193.932C298.138 196.46 296.221 215.025 295.983 217.242C295.967 217.389 295.959 217.533 295.959 217.681V220.645Z" stroke="#0077D7" stroke-width="13" stroke-linecap="round" stroke-linejoin="round"/>
<path d="M103.026 256.246C102.866 276.535 103.058 320.203 104.919 363.18C105.01 365.294 106.72 366.967 108.836 366.996C156.43 367.665 241.924 368.519 248.746 366.943C257.501 364.92 278.381 284 273.446 280.657C272.148 279.777 263.129 279.251 250.563 279.012V276.048C250.563 275.9 250.571 275.756 250.586 275.609C250.824 273.392 252.742 254.827 250.563 252.299C248.403 249.794 200.288 251.957 176.477 252.264C173.971 252.296 172.102 249.992 171.918 247.492C171.622 243.481 169.949 239.068 164.928 238.137C155.836 236.451 126.251 236.353 120.738 238.137C116.464 239.52 115.354 244.432 114.81 248.769C114.557 250.78 112.889 252.299 110.862 252.299H107.017C104.827 252.299 103.044 254.056 103.026 256.246Z" fill="white"/>
<path d="M131.516 339.302C141.51 293.748 150.009 284.465 153.241 282.038C156.195 279.82 216.451 278.361 250.563 279.012M250.563 279.012C263.129 279.251 272.148 279.777 273.446 280.657C278.381 284 257.501 364.92 248.746 366.943C241.924 368.519 156.43 367.665 108.836 366.996C106.72 366.967 105.01 365.294 104.919 363.18C103.058 320.203 102.866 276.535 103.026 256.246C103.044 254.056 104.827 252.299 107.017 252.299H110.862C112.889 252.299 114.557 250.78 114.81 248.769C115.354 244.432 116.464 239.52 120.738 238.137C126.251 236.353 155.836 236.451 164.928 238.137C169.949 239.068 171.622 243.481 171.918 247.492C172.102 249.992 173.971 252.296 176.477 252.264C200.288 251.957 248.403 249.794 250.563 252.299C252.742 254.827 250.824 273.392 250.586 275.609C250.571 275.756 250.563 275.9 250.563 276.048V279.012Z" stroke="#0077D7" stroke-width="13" stroke-linecap="round" stroke-linejoin="round"/>
<path d="M57.6299 314.613C57.4691 334.902 57.6613 378.57 59.5221 421.547C59.6136 423.661 61.3236 425.334 63.4393 425.363C111.034 426.032 196.528 426.886 203.349 425.31C212.105 423.287 232.985 342.367 228.05 339.024C226.751 338.144 217.733 337.618 205.166 337.379V334.414C205.166 334.267 205.174 334.123 205.19 333.976C205.428 331.759 207.345 313.194 205.166 310.666C203.007 308.161 154.891 310.324 131.081 310.631C128.574 310.663 126.706 308.359 126.521 305.859C126.225 301.848 124.553 297.435 119.531 296.504C110.439 294.818 80.8548 294.719 75.3413 296.504C71.0677 297.887 69.9576 302.799 69.4131 307.136C69.1607 309.147 67.4924 310.666 65.4659 310.666H61.6207C59.4305 310.666 57.6472 312.423 57.6299 314.613Z" fill="white"/>
<path d="M86.1199 397.669C96.1132 352.115 104.612 342.832 107.845 340.405C110.798 338.187 171.054 336.728 205.166 337.379M205.166 337.379C217.733 337.618 226.751 338.144 228.05 339.024C232.985 342.367 212.105 423.287 203.349 425.31C196.528 426.886 111.034 426.032 63.4393 425.363C61.3236 425.334 59.6136 423.661 59.5221 421.547C57.6613 378.57 57.4691 334.902 57.6299 314.613C57.6472 312.423 59.4305 310.666 61.6207 310.666H65.4659C67.4924 310.666 69.1607 309.147 69.4131 307.136C69.9576 302.799 71.0677 297.887 75.3413 296.504C80.8548 294.719 110.439 294.818 119.531 296.504C124.553 297.435 126.225 301.848 126.521 305.859C126.706 308.359 128.574 310.663 131.081 310.631C154.891 310.324 203.007 308.161 205.166 310.666C207.345 313.194 205.428 331.759 205.19 333.976C205.174 334.123 205.166 334.267 205.166 334.414V337.379Z" stroke="#0077D7" stroke-width="13" stroke-linecap="round" stroke-linejoin="round"/>
<path d="M95.9845 470.51C99.8245 470.51 102.193 471.598 102.193 474.862C102.193 477.806 99.9525 479.406 96.4325 479.406H92.0165V470.51H95.9845ZM93.2325 488.11C96.6245 488.11 98.6085 489.646 101.169 494.062L106.929 504.174H118.705L111.793 491.438C110.321 488.686 108.337 486.638 106.289 485.358C110.449 482.798 112.689 478.638 112.689 474.35C112.689 466.35 107.697 460.974 95.9845 460.974H81.7765V504.174H92.0165V488.11H93.2325ZM134.889 480.878C137.833 480.878 139.689 483.438 139.817 486.51H128.873C129.449 482.67 131.497 480.878 134.889 480.878ZM136.105 505.07C142.569 505.07 146.089 503.47 148.393 502.254V494.19C145.833 495.662 141.737 497.006 137.513 497.006C133.353 497.006 129.833 495.854 128.937 491.566H148.521V488.366C148.521 481.39 145.769 473.006 135.017 473.006C125.417 473.006 119.081 479.47 119.081 489.454C119.081 499.118 126.121 505.07 136.105 505.07ZM169.671 496.686C167.047 496.686 164.871 495.406 163.655 493.23V484.398C165.191 482.478 167.111 481.39 169.671 481.39C172.935 481.39 176.391 483.63 176.391 488.878C176.391 494.19 172.935 496.686 169.671 496.686ZM172.039 505.07C179.655 505.07 186.055 497.902 186.055 488.878C186.055 479.214 180.103 473.006 172.551 473.006C168.135 473.006 165.255 474.926 163.463 476.718L162.567 473.902H154.375V518.574H163.655V502.19C166.151 504.11 169.095 505.07 172.039 505.07ZM191.375 459.822V504.174H200.783V459.822H191.375ZM207.937 473.902V504.174H217.345V473.902H207.937ZM212.673 458.67C209.537 458.67 207.169 460.974 207.169 463.982C207.169 466.99 209.537 469.486 212.673 469.486C215.745 469.486 218.177 466.99 218.177 463.982C218.177 460.974 215.745 458.67 212.673 458.67ZM238.9 505.07C244.532 505.07 247.604 502.958 249.268 501.614V492.718C247.028 494.766 243.636 496.622 240.372 496.622C236.66 496.622 232.372 495.086 232.372 489.198C232.372 484.078 235.444 481.454 240.052 481.454C243.124 481.454 245.812 482.478 248.82 484.782V475.63C246.196 474.03 243.124 473.006 239.22 473.006C228.468 473.006 222.644 479.854 222.644 489.326C222.644 498.734 229.492 505.07 238.9 505.07ZM278.229 505.646L283.861 499.374L280.213 496.174V486.19C280.213 478.51 276.949 473.006 266.965 473.006C262.037 473.006 257.877 474.542 255.381 476.078V484.27C258.261 482.35 261.589 481.07 265.429 481.07C269.333 481.07 270.997 482.862 271.253 485.038L263.573 486.766C258.453 487.918 253.397 490.222 253.397 496.366C253.397 501.678 257.493 505.07 263.381 505.07C267.541 505.07 270.677 503.598 273.429 501.422L278.229 505.646ZM262.741 495.214C262.741 493.294 264.213 492.078 266.773 491.438L271.253 490.286V495.406C270.229 496.686 268.245 497.838 265.749 497.838C264.021 497.838 262.741 496.942 262.741 495.214ZM297.479 505.07C304.071 505.07 309.831 502.126 309.831 495.47C309.831 485.23 296.007 486.446 296.007 482.734C296.007 481.582 297.031 480.942 299.335 480.942C301.319 480.942 304.903 481.838 307.975 483.95V474.926C305.927 473.902 302.087 473.006 298.823 473.006C291.591 473.006 286.407 476.718 286.407 482.862C286.407 493.294 300.231 492.398 300.231 495.854C300.231 497.134 299.079 497.71 297.159 497.71C293.639 497.71 289.287 495.79 286.727 493.55V501.998C288.391 503.406 292.807 505.07 297.479 505.07Z" fill="#0B71C3"/>
<path d="M208.027 44.8733C208.027 54.5837 199.641 63.0171 188.586 63.0171C177.531 63.0171 169.145 54.5837 169.145 44.8733C169.145 35.1629 177.531 26.7295 188.586 26.7295C199.641 26.7295 208.027 35.1629 208.027 44.8733Z" stroke="black" stroke-width="13"/>
<path d="M145.775 20.2295C142.462 27.2403 140.595 35.1738 140.595 43.5763C140.595 51.9787 142.462 59.9122 145.775 66.923M231.396 66.923C234.709 59.9122 236.576 51.9787 236.576 43.5763C236.576 35.1738 234.709 27.2403 231.396 20.2295" stroke="black" stroke-width="13" stroke-linecap="round"/>
<path d="M120.32 7.25905C115.038 18.1647 112.061 30.5057 112.061 43.5762C112.061 56.6468 115.038 68.9877 120.32 79.8934M256.852 79.8934C262.134 68.9877 265.112 56.6468 265.112 43.5762C265.112 30.5057 262.134 18.1647 256.852 7.25903" stroke="black" stroke-width="13" stroke-linecap="round"/>
</svg>
