<svg height="112" viewBox="0 0 381 534" fill="none" xmlns="http://www.w3.org/2000/svg">
<path d="M368.195 520.311C376.019 512.434 376.019 122.548 368.195 110.733C364.278 104.818 276.231 102.852 188.586 103.351C101.164 103.849 14.1411 106.8 11.4061 110.733C5.92906 118.61 5.14656 511.122 11.4061 520.311C17.6656 529.5 360.371 528.187 368.195 520.311Z" fill="white"/>
<path d="M188.586 103.351C101.164 103.849 14.1411 106.8 11.4061 110.733C5.92906 118.61 5.14656 511.122 11.4061 520.311C17.6656 529.5 360.371 528.187 368.195 520.311C376.019 512.434 376.019 122.548 368.195 110.733C364.278 104.818 276.231 102.852 188.586 103.351ZM188.586 103.351V66" stroke="#AD3CFF" stroke-width="13" stroke-linecap="round" stroke-linejoin="round"/>
<path d="M148.423 173.879C148.262 194.168 148.454 237.836 150.315 280.814C150.407 282.927 152.117 284.6 154.232 284.63C201.827 285.298 287.321 286.152 294.142 284.576C302.898 282.553 323.778 201.633 318.843 198.29C317.544 197.41 308.526 196.884 295.959 196.645V193.681C295.959 193.533 295.967 193.389 295.983 193.242C296.221 191.025 298.138 172.46 295.959 169.932C293.8 167.427 245.684 169.59 221.874 169.897C219.367 169.929 217.499 167.625 217.314 165.125C217.018 161.114 215.346 156.701 210.324 155.77C201.232 154.084 171.648 153.986 166.134 155.77C161.861 157.154 160.751 162.065 160.206 166.402C159.954 168.413 158.285 169.932 156.259 169.932H152.414C150.223 169.932 148.44 171.689 148.423 173.879Z" fill="white"/>
<path d="M176.913 256.935C186.906 211.381 195.405 202.098 198.638 199.671C201.591 197.453 261.847 195.994 295.959 196.645M295.959 196.645C308.526 196.884 317.544 197.41 318.843 198.29C323.778 201.633 302.898 282.553 294.142 284.576C287.321 286.152 201.827 285.298 154.232 284.63C152.117 284.6 150.407 282.927 150.315 280.814C148.454 237.836 148.262 194.168 148.423 173.879C148.44 171.689 150.223 169.932 152.414 169.932H156.259C158.285 169.932 159.954 168.413 160.206 166.402C160.751 162.065 161.861 157.154 166.134 155.77C171.648 153.986 201.232 154.084 210.324 155.77C215.346 156.701 217.018 161.114 217.314 165.125C217.499 167.625 219.367 169.929 221.874 169.897C245.684 169.59 293.8 167.427 295.959 169.932C298.138 172.46 296.221 191.025 295.983 193.242C295.967 193.389 295.959 193.533 295.959 193.681V196.645Z" stroke="#0077D7" stroke-width="13" stroke-linecap="round" stroke-linejoin="round"/>
<path d="M103.026 232.246C102.866 252.535 103.058 296.203 104.919 339.18C105.01 341.294 106.72 342.967 108.836 342.996C156.43 343.665 241.924 344.519 248.746 342.943C257.501 340.92 278.381 260 273.446 256.657C272.148 255.777 263.129 255.251 250.563 255.012V252.048C250.563 251.9 250.571 251.756 250.586 251.609C250.824 249.392 252.742 230.827 250.563 228.299C248.403 225.794 200.288 227.957 176.477 228.264C173.971 228.296 172.102 225.992 171.918 223.492C171.622 219.481 169.949 215.068 164.928 214.137C155.836 212.451 126.251 212.353 120.738 214.137C116.464 215.52 115.354 220.432 114.81 224.769C114.557 226.78 112.889 228.299 110.862 228.299H107.017C104.827 228.299 103.044 230.056 103.026 232.246Z" fill="white"/>
<path d="M131.516 315.302C141.51 269.748 150.009 260.465 153.241 258.038C156.195 255.82 216.451 254.361 250.563 255.012M250.563 255.012C263.129 255.251 272.148 255.777 273.446 256.657C278.381 260 257.501 340.92 248.746 342.943C241.924 344.519 156.43 343.665 108.836 342.996C106.72 342.967 105.01 341.294 104.919 339.18C103.058 296.203 102.866 252.535 103.026 232.246C103.044 230.056 104.827 228.299 107.017 228.299H110.862C112.889 228.299 114.557 226.78 114.81 224.769C115.354 220.432 116.464 215.52 120.738 214.137C126.251 212.353 155.836 212.451 164.928 214.137C169.949 215.068 171.622 219.481 171.918 223.492C172.102 225.992 173.971 228.296 176.477 228.264C200.288 227.957 248.403 225.794 250.563 228.299C252.742 230.827 250.824 249.392 250.586 251.609C250.571 251.756 250.563 251.9 250.563 252.048V255.012Z" stroke="#0077D7" stroke-width="13" stroke-linecap="round" stroke-linejoin="round"/>
<path d="M57.6299 290.613C57.4691 310.902 57.6613 354.57 59.5221 397.547C59.6136 399.661 61.3236 401.334 63.4393 401.363C111.034 402.032 196.528 402.886 203.349 401.31C212.105 399.287 232.985 318.367 228.05 315.024C226.751 314.144 217.733 313.618 205.166 313.379V310.414C205.166 310.267 205.174 310.123 205.19 309.976C205.428 307.759 207.345 289.194 205.166 286.666C203.007 284.161 154.891 286.324 131.081 286.631C128.574 286.663 126.706 284.359 126.521 281.859C126.225 277.848 124.553 273.435 119.531 272.504C110.439 270.818 80.8548 270.719 75.3413 272.504C71.0677 273.887 69.9576 278.799 69.4131 283.136C69.1607 285.147 67.4924 286.666 65.4659 286.666H61.6207C59.4305 286.666 57.6472 288.423 57.6299 290.613Z" fill="white"/>
<path d="M86.1199 373.669C96.1132 328.115 104.612 318.832 107.845 316.405C110.798 314.187 171.054 312.728 205.166 313.379M205.166 313.379C217.733 313.618 226.751 314.144 228.05 315.024C232.985 318.367 212.105 399.287 203.349 401.31C196.528 402.886 111.034 402.032 63.4393 401.363C61.3236 401.334 59.6136 399.661 59.5221 397.547C57.6613 354.57 57.4691 310.902 57.6299 290.613C57.6472 288.423 59.4305 286.666 61.6207 286.666H65.4659C67.4924 286.666 69.1607 285.147 69.4131 283.136C69.9576 278.799 71.0677 273.887 75.3413 272.504C80.8548 270.719 110.439 270.818 119.531 272.504C124.553 273.435 126.225 277.848 126.521 281.859C126.706 284.359 128.574 286.663 131.081 286.631C154.891 286.324 203.007 284.161 205.166 286.666C207.345 289.194 205.428 307.759 205.19 309.976C205.174 310.123 205.166 310.267 205.166 310.414V313.379Z" stroke="#0077D7" stroke-width="13" stroke-linecap="round" stroke-linejoin="round"/>
<path d="M95.9845 446.51C99.8245 446.51 102.193 447.598 102.193 450.862C102.193 453.806 99.9525 455.406 96.4325 455.406H92.0165V446.51H95.9845ZM93.2325 464.11C96.6245 464.11 98.6085 465.646 101.169 470.062L106.929 480.174H118.705L111.793 467.438C110.321 464.686 108.337 462.638 106.289 461.358C110.449 458.798 112.689 454.638 112.689 450.35C112.689 442.35 107.697 436.974 95.9845 436.974H81.7765V480.174H92.0165V464.11H93.2325ZM134.889 456.878C137.833 456.878 139.689 459.438 139.817 462.51H128.873C129.449 458.67 131.497 456.878 134.889 456.878ZM136.105 481.07C142.569 481.07 146.089 479.47 148.393 478.254V470.19C145.833 471.662 141.737 473.006 137.513 473.006C133.353 473.006 129.833 471.854 128.937 467.566H148.521V464.366C148.521 457.39 145.769 449.006 135.017 449.006C125.417 449.006 119.081 455.47 119.081 465.454C119.081 475.118 126.121 481.07 136.105 481.07ZM169.671 472.686C167.047 472.686 164.871 471.406 163.655 469.23V460.398C165.191 458.478 167.111 457.39 169.671 457.39C172.935 457.39 176.391 459.63 176.391 464.878C176.391 470.19 172.935 472.686 169.671 472.686ZM172.039 481.07C179.655 481.07 186.055 473.902 186.055 464.878C186.055 455.214 180.103 449.006 172.551 449.006C168.135 449.006 165.255 450.926 163.463 452.718L162.567 449.902H154.375V494.574H163.655V478.19C166.151 480.11 169.095 481.07 172.039 481.07ZM191.375 435.822V480.174H200.783V435.822H191.375ZM207.937 449.902V480.174H217.345V449.902H207.937ZM212.673 434.67C209.537 434.67 207.169 436.974 207.169 439.982C207.169 442.99 209.537 445.486 212.673 445.486C215.745 445.486 218.177 442.99 218.177 439.982C218.177 436.974 215.745 434.67 212.673 434.67ZM238.9 481.07C244.532 481.07 247.604 478.958 249.268 477.614V468.718C247.028 470.766 243.636 472.622 240.372 472.622C236.66 472.622 232.372 471.086 232.372 465.198C232.372 460.078 235.444 457.454 240.052 457.454C243.124 457.454 245.812 458.478 248.82 460.782V451.63C246.196 450.03 243.124 449.006 239.22 449.006C228.468 449.006 222.644 455.854 222.644 465.326C222.644 474.734 229.492 481.07 238.9 481.07ZM278.229 481.646L283.861 475.374L280.213 472.174V462.19C280.213 454.51 276.949 449.006 266.965 449.006C262.037 449.006 257.877 450.542 255.381 452.078V460.27C258.261 458.35 261.589 457.07 265.429 457.07C269.333 457.07 270.997 458.862 271.253 461.038L263.573 462.766C258.453 463.918 253.397 466.222 253.397 472.366C253.397 477.678 257.493 481.07 263.381 481.07C267.541 481.07 270.677 479.598 273.429 477.422L278.229 481.646ZM262.741 471.214C262.741 469.294 264.213 468.078 266.773 467.438L271.253 466.286V471.406C270.229 472.686 268.245 473.838 265.749 473.838C264.021 473.838 262.741 472.942 262.741 471.214ZM297.479 481.07C304.071 481.07 309.831 478.126 309.831 471.47C309.831 461.23 296.007 462.446 296.007 458.734C296.007 457.582 297.031 456.942 299.335 456.942C301.319 456.942 304.903 457.838 307.975 459.95V450.926C305.927 449.902 302.087 449.006 298.823 449.006C291.591 449.006 286.407 452.718 286.407 458.862C286.407 469.294 300.231 468.398 300.231 471.854C300.231 473.134 299.079 473.71 297.159 473.71C293.639 473.71 289.287 471.79 286.727 469.55V477.998C288.391 479.406 292.807 481.07 297.479 481.07Z" fill="#0B71C3"/>
<path d="M207.382 44.6438C207.382 54.3542 198.996 62.7876 187.941 62.7876C176.886 62.7876 168.5 54.3542 168.5 44.6438C168.5 34.9334 176.886 26.5 187.941 26.5C198.996 26.5 207.382 34.9334 207.382 44.6438Z" fill="white" stroke="#AD3CFF" stroke-width="13"/>
<path d="M144.715 19.9705C141.402 26.9813 139.535 34.9147 139.535 43.3172C139.535 51.7197 141.402 59.6532 144.715 66.664M230.336 66.664C233.649 59.6532 235.516 51.7197 235.516 43.3172C235.516 34.9147 233.649 26.9812 230.336 19.9705" stroke="#0077D7" stroke-width="13" stroke-linecap="round"/>
<path d="M119.26 7.00001C113.978 17.9057 111 30.2467 111 43.3172C111 56.3877 113.978 68.7287 119.26 79.6344M255.791 79.6344C261.074 68.7287 264.051 56.3877 264.051 43.3172C264.051 30.2467 261.074 17.9057 255.791 7" stroke="#0077D7" stroke-width="13" stroke-linecap="round"/>
</svg>
