<svg height="92" viewBox="0 0 381 438" fill="none" xmlns="http://www.w3.org/2000/svg">
<path d="M368.195 424.311C376.019 416.434 376.019 26.5482 368.195 14.7334C364.278 8.81849 276.231 6.85187 188.586 7.35105C101.164 7.84897 14.1411 10.8002 11.4061 14.7334C5.92906 22.61 5.14656 415.122 11.4061 424.311C17.6656 433.5 360.371 432.187 368.195 424.311Z" fill="white" stroke="#AD3CFF" stroke-width="13" stroke-linecap="round" stroke-linejoin="round"/>
<path d="M148.423 77.8793C148.262 98.1683 148.454 141.836 150.315 184.814C150.407 186.927 152.117 188.6 154.232 188.63C201.827 189.298 287.321 190.152 294.142 188.576C302.898 186.553 323.778 105.633 318.843 102.29C317.544 101.41 308.526 100.884 295.959 100.645V97.6806C295.959 97.5328 295.967 97.3893 295.983 97.2424C296.221 95.0249 298.138 76.46 295.959 73.9321C293.8 71.4266 245.684 73.5901 221.874 73.8971C219.367 73.9294 217.499 71.6254 217.314 69.1254C217.018 65.1137 215.346 60.7013 210.324 59.7702C201.232 58.0843 171.648 57.9856 166.134 59.7702C161.861 61.1535 160.751 66.0647 160.206 70.402C159.954 72.4127 158.285 73.9321 156.259 73.9321H152.414C150.223 73.9321 148.44 75.6891 148.423 77.8793Z" fill="white"/>
<path d="M176.913 160.935C186.906 115.381 195.405 106.098 198.638 103.671C201.591 101.453 261.847 99.994 295.959 100.645M295.959 100.645C308.526 100.884 317.544 101.41 318.843 102.29C323.778 105.633 302.898 186.553 294.142 188.576C287.321 190.152 201.827 189.298 154.232 188.63C152.117 188.6 150.407 186.927 150.315 184.814C148.454 141.836 148.262 98.1683 148.423 77.8793C148.44 75.6891 150.223 73.9321 152.414 73.9321H156.259C158.285 73.9321 159.954 72.4127 160.206 70.402C160.751 66.0647 161.861 61.1535 166.134 59.7702C171.648 57.9856 201.232 58.0843 210.324 59.7702C215.346 60.7013 217.018 65.1137 217.314 69.1254C217.499 71.6254 219.367 73.9294 221.874 73.8971C245.684 73.5901 293.8 71.4266 295.959 73.9321C298.138 76.46 296.221 95.0249 295.983 97.2424C295.967 97.3893 295.959 97.5328 295.959 97.6806V100.645Z" stroke="#0077D7" stroke-width="13" stroke-linecap="round" stroke-linejoin="round"/>
<path d="M103.026 136.246C102.866 156.535 103.058 200.203 104.919 243.18C105.01 245.294 106.72 246.967 108.836 246.996C156.43 247.665 241.924 248.519 248.746 246.943C257.501 244.92 278.381 164 273.446 160.657C272.148 159.777 263.129 159.251 250.563 159.012V156.048C250.563 155.9 250.571 155.756 250.586 155.609C250.824 153.392 252.742 134.827 250.563 132.299C248.403 129.794 200.288 131.957 176.477 132.264C173.971 132.296 172.102 129.992 171.918 127.492C171.622 123.481 169.949 119.068 164.928 118.137C155.836 116.451 126.251 116.353 120.738 118.137C116.464 119.52 115.354 124.432 114.81 128.769C114.557 130.78 112.889 132.299 110.862 132.299H107.017C104.827 132.299 103.044 134.056 103.026 136.246Z" fill="white"/>
<path d="M131.516 219.302C141.51 173.748 150.009 164.465 153.241 162.038C156.195 159.82 216.451 158.361 250.563 159.012M250.563 159.012C263.129 159.251 272.148 159.777 273.446 160.657C278.381 164 257.501 244.92 248.746 246.943C241.924 248.519 156.43 247.665 108.836 246.996C106.72 246.967 105.01 245.294 104.919 243.18C103.058 200.203 102.866 156.535 103.026 136.246C103.044 134.056 104.827 132.299 107.017 132.299H110.862C112.889 132.299 114.557 130.78 114.81 128.769C115.354 124.432 116.464 119.52 120.738 118.137C126.251 116.353 155.836 116.451 164.928 118.137C169.949 119.068 171.622 123.481 171.918 127.492C172.102 129.992 173.971 132.296 176.477 132.264C200.288 131.957 248.403 129.794 250.563 132.299C252.742 134.827 250.824 153.392 250.586 155.609C250.571 155.756 250.563 155.9 250.563 156.048V159.012Z" stroke="#0077D7" stroke-width="13" stroke-linecap="round" stroke-linejoin="round"/>
<path d="M57.6299 194.613C57.4691 214.902 57.6613 258.57 59.5221 301.547C59.6136 303.661 61.3236 305.334 63.4393 305.363C111.034 306.032 196.528 306.886 203.349 305.31C212.105 303.287 232.985 222.367 228.05 219.024C226.751 218.144 217.733 217.618 205.166 217.379V214.414C205.166 214.267 205.174 214.123 205.19 213.976C205.428 211.759 207.345 193.194 205.166 190.666C203.007 188.161 154.891 190.324 131.081 190.631C128.574 190.663 126.706 188.359 126.521 185.859C126.225 181.848 124.553 177.435 119.531 176.504C110.439 174.818 80.8548 174.719 75.3413 176.504C71.0677 177.887 69.9576 182.799 69.4131 187.136C69.1607 189.147 67.4924 190.666 65.4659 190.666H61.6207C59.4305 190.666 57.6472 192.423 57.6299 194.613Z" fill="white"/>
<path d="M86.1199 277.669C96.1132 232.115 104.612 222.832 107.845 220.405C110.798 218.187 171.054 216.728 205.166 217.379M205.166 217.379C217.733 217.618 226.751 218.144 228.05 219.024C232.985 222.367 212.105 303.287 203.349 305.31C196.528 306.886 111.034 306.032 63.4393 305.363C61.3236 305.334 59.6136 303.661 59.5221 301.547C57.6613 258.57 57.4691 214.902 57.6299 194.613C57.6472 192.423 59.4305 190.666 61.6207 190.666H65.4659C67.4924 190.666 69.1607 189.147 69.4131 187.136C69.9576 182.799 71.0677 177.887 75.3413 176.504C80.8548 174.719 110.439 174.818 119.531 176.504C124.553 177.435 126.225 181.848 126.521 185.859C126.706 188.359 128.574 190.663 131.081 190.631C154.891 190.324 203.007 188.161 205.166 190.666C207.345 193.194 205.428 211.759 205.19 213.976C205.174 214.123 205.166 214.267 205.166 214.414V217.379Z" stroke="#0077D7" stroke-width="13" stroke-linecap="round" stroke-linejoin="round"/>
<path d="M95.9845 350.51C99.8245 350.51 102.193 351.598 102.193 354.862C102.193 357.806 99.9525 359.406 96.4325 359.406H92.0165V350.51H95.9845ZM93.2325 368.11C96.6245 368.11 98.6085 369.646 101.169 374.062L106.929 384.174H118.705L111.793 371.438C110.321 368.686 108.337 366.638 106.289 365.358C110.449 362.798 112.689 358.638 112.689 354.35C112.689 346.35 107.697 340.974 95.9845 340.974H81.7765V384.174H92.0165V368.11H93.2325ZM134.889 360.878C137.833 360.878 139.689 363.438 139.817 366.51H128.873C129.449 362.67 131.497 360.878 134.889 360.878ZM136.105 385.07C142.569 385.07 146.089 383.47 148.393 382.254V374.19C145.833 375.662 141.737 377.006 137.513 377.006C133.353 377.006 129.833 375.854 128.937 371.566H148.521V368.366C148.521 361.39 145.769 353.006 135.017 353.006C125.417 353.006 119.081 359.47 119.081 369.454C119.081 379.118 126.121 385.07 136.105 385.07ZM169.671 376.686C167.047 376.686 164.871 375.406 163.655 373.23V364.398C165.191 362.478 167.111 361.39 169.671 361.39C172.935 361.39 176.391 363.63 176.391 368.878C176.391 374.19 172.935 376.686 169.671 376.686ZM172.039 385.07C179.655 385.07 186.055 377.902 186.055 368.878C186.055 359.214 180.103 353.006 172.551 353.006C168.135 353.006 165.255 354.926 163.463 356.718L162.567 353.902H154.375V398.574H163.655V382.19C166.151 384.11 169.095 385.07 172.039 385.07ZM191.375 339.822V384.174H200.783V339.822H191.375ZM207.937 353.902V384.174H217.345V353.902H207.937ZM212.673 338.67C209.537 338.67 207.169 340.974 207.169 343.982C207.169 346.99 209.537 349.486 212.673 349.486C215.745 349.486 218.177 346.99 218.177 343.982C218.177 340.974 215.745 338.67 212.673 338.67ZM238.9 385.07C244.532 385.07 247.604 382.958 249.268 381.614V372.718C247.028 374.766 243.636 376.622 240.372 376.622C236.66 376.622 232.372 375.086 232.372 369.198C232.372 364.078 235.444 361.454 240.052 361.454C243.124 361.454 245.812 362.478 248.82 364.782V355.63C246.196 354.03 243.124 353.006 239.22 353.006C228.468 353.006 222.644 359.854 222.644 369.326C222.644 378.734 229.492 385.07 238.9 385.07ZM278.229 385.646L283.861 379.374L280.213 376.174V366.19C280.213 358.51 276.949 353.006 266.965 353.006C262.037 353.006 257.877 354.542 255.381 356.078V364.27C258.261 362.35 261.589 361.07 265.429 361.07C269.333 361.07 270.997 362.862 271.253 365.038L263.573 366.766C258.453 367.918 253.397 370.222 253.397 376.366C253.397 381.678 257.493 385.07 263.381 385.07C267.541 385.07 270.677 383.598 273.429 381.422L278.229 385.646ZM262.741 375.214C262.741 373.294 264.213 372.078 266.773 371.438L271.253 370.286V375.406C270.229 376.686 268.245 377.838 265.749 377.838C264.021 377.838 262.741 376.942 262.741 375.214ZM297.479 385.07C304.071 385.07 309.831 382.126 309.831 375.47C309.831 365.23 296.007 366.446 296.007 362.734C296.007 361.582 297.031 360.942 299.335 360.942C301.319 360.942 304.903 361.838 307.975 363.95V354.926C305.927 353.902 302.087 353.006 298.823 353.006C291.591 353.006 286.407 356.718 286.407 362.862C286.407 373.294 300.231 372.398 300.231 375.854C300.231 377.134 299.079 377.71 297.159 377.71C293.639 377.71 289.287 375.79 286.727 373.55V381.998C288.391 383.406 292.807 385.07 297.479 385.07Z" fill="#0B71C3"/>
</svg>
