<svg  height="61" viewBox="0 0 280 292" fill="none" xmlns="http://www.w3.org/2000/svg">
<path d="M138 7.1547C139.238 6.44017 140.762 6.44017 142 7.1547L259.244 74.8453C260.481 75.5598 261.244 76.8803 261.244 78.3094V213.691C261.244 215.12 260.481 216.44 259.244 217.155L142 284.845C140.762 285.56 139.238 285.56 138 284.845L20.7564 217.155C19.5188 216.44 18.7564 215.12 18.7564 213.691V78.3094C18.7564 76.8803 19.5188 75.5598 20.7564 74.8453L138 7.1547Z" fill="white" stroke="black" stroke-width="13" stroke-linejoin="round"/>
<path d="M165.843 130.225C165.843 143.002 160.345 154.542 151.506 162.766C143.066 170.619 131.579 175.449 118.921 175.449C93.0074 175.449 72 155.202 72 130.225C72 105.248 93.0074 85 118.921 85C144.835 85 165.843 105.248 165.843 130.225Z" fill="white"/>
<path d="M151.506 162.766C160.345 154.542 165.843 143.002 165.843 130.225C165.843 105.248 144.835 85 118.921 85C93.0074 85 72 105.248 72 130.225C72 155.202 93.0074 175.449 118.921 175.449C131.579 175.449 143.066 170.619 151.506 162.766ZM151.506 162.766L188 200" stroke="black" stroke-width="13" stroke-linecap="round"/>
</svg>
