<svg  height="72" viewBox="0 0 1048 345" fill="none" xmlns="http://www.w3.org/2000/svg">
<path d="M594.456 12.8288C581.73 3.59331 23.0742 6.6718 14.1662 12.8288C5.2582 18.9858 3.98551 325.807 14.1662 332.99C24.3468 340.173 581.73 339.147 594.456 332.99C607.181 326.833 607.181 22.0643 594.456 12.8288Z" fill="white" stroke="black" stroke-width="13" stroke-linecap="round" stroke-linejoin="round"/>
<path d="M79.0451 98.4104C78.8836 118.699 79.0767 162.367 80.9461 205.344C81.038 207.458 82.7477 209.13 84.8631 209.159C132.674 209.828 218.584 210.683 225.437 209.106C234.233 207.083 255.209 126.164 250.252 122.821C248.947 121.941 239.887 121.415 227.263 121.176V118.213C227.263 118.064 227.271 117.92 227.287 117.772C227.526 115.549 229.451 96.9908 227.263 94.4635C225.092 91.9574 176.731 94.1225 152.817 94.4287C150.309 94.4608 148.44 92.154 148.254 89.6527C147.956 85.6422 146.275 81.2324 141.232 80.3017C132.098 78.6158 102.377 78.5171 96.8383 80.3017C92.5443 81.6852 91.4294 86.5977 90.8825 90.9355C90.6291 92.9452 88.9613 94.4635 86.9357 94.4635H83.0359C80.8458 94.4635 79.0626 96.2203 79.0451 98.4104Z" fill="white"/>
<path d="M107.667 181.465C117.706 135.912 126.244 126.629 129.492 124.202C132.459 121.984 192.993 120.525 227.263 121.176M227.263 121.176C239.887 121.415 248.947 121.941 250.252 122.821C255.209 126.164 234.233 207.083 225.437 209.106C218.584 210.683 132.674 209.828 84.8631 209.159C82.7477 209.13 81.038 207.458 80.9461 205.344C79.0767 162.367 78.8836 118.699 79.0451 98.4104C79.0626 96.2203 80.8458 94.4635 83.0359 94.4635H86.9357C88.9613 94.4635 90.6291 92.9452 90.8825 90.9355C91.4294 86.5977 92.5443 81.6852 96.8383 80.3017C102.377 78.5171 132.098 78.6158 141.232 80.3017C146.275 81.2324 147.956 85.6422 148.254 89.6527C148.44 92.154 150.309 94.4608 152.817 94.4287C176.731 94.1225 225.092 91.9574 227.263 94.4635C229.451 96.9908 227.526 115.549 227.287 117.772C227.271 117.92 227.263 118.064 227.263 118.213V121.176Z" stroke="#0077D7" stroke-width="13" stroke-linecap="round" stroke-linejoin="round"/>
<path d="M72.944 257.336C76.784 257.336 79.152 258.424 79.152 261.688C79.152 264.632 76.912 266.232 73.392 266.232H68.976V257.336H72.944ZM70.192 274.936C73.584 274.936 75.568 276.472 78.128 280.888L83.888 291H95.664L88.752 278.264C87.28 275.512 85.296 273.464 83.248 272.184C87.408 269.624 89.648 265.464 89.648 261.176C89.648 253.176 84.656 247.8 72.944 247.8H58.736V291H68.976V274.936H70.192ZM111.849 267.704C114.793 267.704 116.649 270.264 116.777 273.336H105.833C106.409 269.496 108.457 267.704 111.849 267.704ZM113.065 291.896C119.529 291.896 123.049 290.296 125.353 289.08V281.016C122.793 282.488 118.697 283.832 114.473 283.832C110.312 283.832 106.793 282.68 105.897 278.392H125.481V275.192C125.481 268.216 122.729 259.832 111.977 259.832C102.377 259.832 96.0405 266.296 96.0405 276.28C96.0405 285.944 103.081 291.896 113.065 291.896ZM146.63 283.512C144.006 283.512 141.83 282.232 140.614 280.056V271.224C142.15 269.304 144.07 268.216 146.63 268.216C149.894 268.216 153.35 270.456 153.35 275.704C153.35 281.016 149.894 283.512 146.63 283.512ZM148.998 291.896C156.614 291.896 163.014 284.728 163.014 275.704C163.014 266.04 157.062 259.832 149.51 259.832C145.094 259.832 142.214 261.752 140.422 263.544L139.526 260.728H131.334V305.4H140.614V289.016C143.11 290.936 146.054 291.896 148.998 291.896ZM168.334 246.648V291H177.742V246.648H168.334ZM184.897 260.728V291H194.305V260.728H184.897ZM189.633 245.496C186.497 245.496 184.129 247.8 184.129 250.808C184.129 253.816 186.497 256.312 189.633 256.312C192.705 256.312 195.137 253.816 195.137 250.808C195.137 247.8 192.705 245.496 189.633 245.496ZM215.859 291.896C221.491 291.896 224.563 289.784 226.227 288.44V279.544C223.987 281.592 220.595 283.448 217.331 283.448C213.619 283.448 209.331 281.912 209.331 276.024C209.331 270.904 212.403 268.28 217.011 268.28C220.083 268.28 222.771 269.304 225.779 271.608V262.456C223.155 260.856 220.083 259.832 216.179 259.832C205.427 259.832 199.603 266.68 199.603 276.152C199.603 285.56 206.451 291.896 215.859 291.896ZM255.188 292.472L260.82 286.2L257.172 283V273.016C257.172 265.336 253.908 259.832 243.924 259.832C238.996 259.832 234.836 261.368 232.34 262.904V271.096C235.22 269.176 238.548 267.896 242.388 267.896C246.292 267.896 247.956 269.688 248.212 271.864L240.532 273.592C235.412 274.744 230.356 277.048 230.356 283.192C230.356 288.504 234.452 291.896 240.34 291.896C244.5 291.896 247.636 290.424 250.388 288.248L255.188 292.472ZM239.7 282.04C239.7 280.12 241.172 278.904 243.732 278.264L248.212 277.112V282.232C247.188 283.512 245.204 284.664 242.708 284.664C240.98 284.664 239.7 283.768 239.7 282.04Z" fill="#0077D7"/>
<path d="M377.28 282.296C369.856 282.296 365.056 276.472 365.056 269.112C365.056 261.88 369.856 256.504 377.28 256.504C384.768 256.504 389.568 261.88 389.568 269.112C389.568 276.472 384.768 282.296 377.28 282.296ZM403.84 305.208V294.392C395.648 294.072 389.76 293.112 385.408 290.808V290.68C395.584 287.352 400.256 277.88 400.256 269.112C400.256 258.296 393.088 246.904 377.28 246.904C361.472 246.904 354.304 258.296 354.304 269.112C354.304 278.136 359.296 287.992 370.176 291C376.128 296.76 386.752 303.992 403.84 305.208ZM435.779 291V260.728H426.371V280.248C425.091 282.424 422.787 283.512 420.419 283.512C416.899 283.512 415.235 281.784 415.235 278.264V260.728H405.827V280.12C405.827 287.032 409.219 291.896 416.643 291.896C420.803 291.896 424.003 289.976 426.371 287.416V291H435.779ZM456.911 267.704C459.855 267.704 461.711 270.264 461.839 273.336H450.895C451.471 269.496 453.519 267.704 456.911 267.704ZM458.127 291.896C464.591 291.896 468.111 290.296 470.415 289.08V281.016C467.855 282.488 463.759 283.832 459.535 283.832C455.375 283.832 451.855 282.68 450.959 278.392H470.543V275.192C470.543 268.216 467.791 259.832 457.039 259.832C447.439 259.832 441.103 266.296 441.103 276.28C441.103 285.944 448.143 291.896 458.127 291.896ZM496.173 259.96C495.981 259.896 495.405 259.832 495.021 259.832C490.605 259.832 487.533 263.288 485.805 267.192V260.728H476.397V291H485.805V273.464C487.085 271.224 489.708 270.136 492.461 270.136H496.173V259.96ZM520.457 260.728L514.185 279.736L507.913 260.728H497.992L510.281 291.704L509.833 293.048C508.553 297.016 506.185 298.36 503.369 298.36C501.513 298.36 499.721 297.912 498.377 297.208V305.784C499.401 306.296 501.321 306.872 504.009 306.872C510.217 306.872 513.865 303.288 516.553 296.44L530.441 260.728H520.457Z" fill="black"/>
<path d="M643.877 210.212C642.321 180.625 640.509 114.652 644.023 112.137C647.648 109.544 688.425 109.236 691.616 111.624C702.54 119.802 716.575 134.194 723.171 147.273C725.34 151.573 725.866 211.559 723.171 213.917C720.622 216.148 663.93 217.323 646.593 213.582C645.005 213.239 643.963 211.834 643.877 210.212Z" fill="white"/>
<path d="M691.616 111.624C688.425 109.236 647.648 109.544 644.023 112.137C640.509 114.652 642.321 180.625 643.877 210.212C643.963 211.834 645.005 213.239 646.593 213.582C663.93 217.323 720.622 216.148 723.171 213.917C725.866 211.559 725.34 151.573 723.171 147.273M691.616 111.624C702.54 119.802 716.575 134.194 723.171 147.273M691.616 111.624C690.923 120.847 688.651 144.503 690.316 145.734C691.98 146.965 715.077 147.273 723.171 147.273" stroke="#05AD60" stroke-width="13" stroke-linecap="round" stroke-linejoin="round"/>
<path d="M765.877 210.212C764.321 180.625 762.509 114.652 766.023 112.137C769.648 109.544 810.425 109.236 813.616 111.624C824.54 119.802 838.575 134.194 845.171 147.273C847.34 151.573 847.866 211.559 845.171 213.917C842.622 216.148 785.93 217.323 768.593 213.582C767.005 213.239 765.963 211.834 765.877 210.212Z" fill="white"/>
<path d="M813.616 111.624C810.425 109.236 769.648 109.544 766.023 112.137C762.509 114.652 764.321 180.625 765.877 210.212C765.963 211.834 767.005 213.239 768.593 213.582C785.93 217.323 842.622 216.148 845.171 213.917C847.866 211.559 847.34 151.573 845.171 147.273M813.616 111.624C824.54 119.802 838.575 134.194 845.171 147.273M813.616 111.624C812.923 120.847 810.651 144.503 812.316 145.734C813.98 146.965 837.077 147.273 845.171 147.273" stroke="#05AD60" stroke-width="13" stroke-linecap="round" stroke-linejoin="round"/>
<path d="M887.877 210.212C886.321 180.625 884.509 114.652 888.023 112.137C891.648 109.544 932.425 109.236 935.616 111.624C946.54 119.802 960.575 134.194 967.171 147.273C969.34 151.573 969.866 211.559 967.171 213.917C964.622 216.148 907.93 217.323 890.593 213.582C889.005 213.239 887.963 211.834 887.877 210.212Z" fill="white"/>
<path d="M935.616 111.624C932.425 109.236 891.648 109.544 888.023 112.137C884.509 114.652 886.321 180.625 887.877 210.212C887.963 211.834 889.005 213.239 890.593 213.582C907.93 217.323 964.622 216.148 967.171 213.917C969.866 211.559 969.34 151.573 967.171 147.273M935.616 111.624C946.54 119.802 960.575 134.194 967.171 147.273M935.616 111.624C934.923 120.847 932.651 144.503 934.316 145.734C935.98 146.965 959.077 147.273 967.171 147.273" stroke="#05AD60" stroke-width="13" stroke-linecap="round" stroke-linejoin="round"/>
<path d="M443.509 59.1428C444.742 58.4351 446.258 58.4351 447.491 59.1428L516.67 98.847C517.913 99.5602 518.679 100.884 518.679 102.316V181.684C518.679 183.116 517.913 184.44 516.67 185.153L447.491 224.857C446.258 225.565 444.742 225.565 443.509 224.857L374.33 185.153C373.087 184.44 372.321 183.116 372.321 181.684V102.316C372.321 100.884 373.087 99.5602 374.33 98.847L443.509 59.1428Z" fill="white" stroke="black" stroke-width="13" stroke-linejoin="round"/>
<path d="M460.82 133.135C460.82 140.801 457.55 147.725 452.292 152.66C447.272 157.371 440.439 160.27 432.91 160.27C417.496 160.27 405 148.121 405 133.135C405 118.149 417.496 106 432.91 106C448.324 106 460.82 118.149 460.82 133.135Z" fill="white"/>
<path d="M452.292 152.66C457.55 147.725 460.82 140.801 460.82 133.135C460.82 118.149 448.324 106 432.91 106C417.496 106 405 118.149 405 133.135C405 148.121 417.496 160.27 432.91 160.27C440.439 160.27 447.272 157.371 452.292 152.66ZM452.292 152.66L474 175" stroke="black" stroke-width="13" stroke-linecap="round"/>
<path d="M600 255H1003.5C1024.21 255 1041 271.789 1041 292.5V292.5C1041 313.211 1024.21 330 1003.5 330H600" stroke="black" stroke-width="13"/>
<circle cx="1001.5" cy="292.5" r="37.5" stroke="black" stroke-width="13"/>
<circle cx="891.5" cy="292.5" r="37.5" stroke="black" stroke-width="13"/>
<ellipse cx="671" cy="292.5" rx="38" ry="37.5" stroke="black" stroke-width="13"/>
<circle cx="781.5" cy="292.5" r="37.5" stroke="black" stroke-width="13"/>
</svg>
