<svg width="811" height="345" viewBox="0 0 811 345" fill="none" xmlns="http://www.w3.org/2000/svg">
<path d="M459.646 11.4905C449.841 4.37551 19.3855 6.74716 12.5217 11.4905C5.65791 16.2338 4.67728 252.607 12.5217 258.14C20.3661 263.674 449.841 262.884 459.646 258.14C469.451 253.397 469.451 18.6054 459.646 11.4905Z" fill="white" stroke="black" stroke-width="13" stroke-linecap="round" stroke-linejoin="round"/>
<path d="M63.028 77.8589C62.9177 93.7215 63.0826 126.311 64.4564 158.548C64.5465 160.662 66.2667 162.335 68.3824 162.364C105.239 162.878 170.164 163.517 175.382 162.311C182.132 160.751 198.23 98.3632 194.426 95.7859C193.425 95.1075 186.471 94.702 176.783 94.5172V92.2827C176.783 92.135 176.791 91.9933 176.806 91.8464C177.01 89.9354 178.448 75.8541 176.783 73.9222C175.151 72.0285 139.466 73.5943 120.768 73.8796C118.261 73.9179 116.417 71.594 116.022 69.1185C115.582 66.3612 114.176 63.6371 110.76 63.0036C103.75 61.7038 80.9407 61.6277 76.6899 63.0036C73.6576 63.9851 72.691 67.2703 72.229 70.3942C71.9325 72.3989 70.289 73.9222 68.2625 73.9222H67.0165C64.8263 73.9222 63.0432 75.6687 63.028 77.8589Z" fill="white"/>
<path d="M85 141C92.7047 105.879 99.2572 98.7219 101.75 96.8502C104.027 95.1403 150.483 94.0155 176.783 94.5172M176.783 94.5172C186.471 94.702 193.425 95.1075 194.426 95.7859C198.23 98.3632 182.132 160.751 175.382 162.311C170.164 163.517 105.239 162.878 68.3824 162.364C66.2667 162.335 64.5465 160.662 64.4564 158.548C63.0826 126.311 62.9177 93.7215 63.028 77.8589C63.0432 75.6687 64.8263 73.9222 67.0165 73.9222H68.2625C70.289 73.9222 71.9325 72.3989 72.229 70.3942C72.691 67.2703 73.6576 63.9851 76.6899 63.0036C80.9407 61.6277 103.75 61.7038 110.76 63.0036C114.176 63.6371 115.582 66.3612 116.022 69.1185C116.417 71.594 118.261 73.9179 120.768 73.8796C139.466 73.5943 175.151 72.0285 176.783 73.9222C178.448 75.8541 177.01 89.9354 176.806 91.8464C176.791 91.9933 176.783 92.135 176.783 92.2827V94.5172Z" stroke="#0077D7" stroke-width="13" stroke-linecap="round" stroke-linejoin="round"/>
<path d="M57.208 199.752C60.088 199.752 61.864 200.568 61.864 203.016C61.864 205.224 60.184 206.424 57.544 206.424H54.232V199.752H57.208ZM55.144 212.952C57.688 212.952 59.176 214.104 61.096 217.416L65.416 225H74.248L69.064 215.448C67.96 213.384 66.472 211.848 64.936 210.888C68.056 208.968 69.736 205.848 69.736 202.632C69.736 196.632 65.992 192.6 57.208 192.6H46.552V225H54.232V212.952H55.144ZM86.3864 207.528C88.5944 207.528 89.9864 209.448 90.0824 211.752H81.8744C82.3064 208.872 83.8424 207.528 86.3864 207.528ZM87.2984 225.672C92.1464 225.672 94.7864 224.472 96.5144 223.56V217.512C94.5944 218.616 91.5224 219.624 88.3544 219.624C85.2344 219.624 82.5944 218.76 81.9224 215.544H96.6104V213.144C96.6104 207.912 94.5464 201.624 86.4824 201.624C79.2824 201.624 74.5304 206.472 74.5304 213.96C74.5304 221.208 79.8104 225.672 87.2984 225.672ZM112.473 219.384C110.505 219.384 108.873 218.424 107.961 216.792V210.168C109.113 208.728 110.553 207.912 112.473 207.912C114.921 207.912 117.513 209.592 117.513 213.528C117.513 217.512 114.921 219.384 112.473 219.384ZM114.249 225.672C119.961 225.672 124.76 220.296 124.76 213.528C124.76 206.28 120.297 201.624 114.633 201.624C111.321 201.624 109.161 203.064 107.817 204.408L107.145 202.296H101.001V235.8H107.961V223.512C109.833 224.952 112.041 225.672 114.249 225.672ZM128.751 191.736V225H135.807V191.736H128.751ZM141.172 202.296V225H148.228V202.296H141.172ZM144.724 190.872C142.372 190.872 140.596 192.6 140.596 194.856C140.596 197.112 142.372 198.984 144.724 198.984C147.028 198.984 148.852 197.112 148.852 194.856C148.852 192.6 147.028 190.872 144.724 190.872ZM164.394 225.672C168.618 225.672 170.922 224.088 172.17 223.08V216.408C170.49 217.944 167.946 219.336 165.498 219.336C162.714 219.336 159.498 218.184 159.498 213.768C159.498 209.928 161.802 207.96 165.258 207.96C167.562 207.96 169.578 208.728 171.834 210.456V203.592C169.866 202.392 167.562 201.624 164.634 201.624C156.57 201.624 152.202 206.76 152.202 213.864C152.202 220.92 157.338 225.672 164.394 225.672ZM193.891 226.104L198.115 221.4L195.379 219V211.512C195.379 205.752 192.931 201.624 185.443 201.624C181.747 201.624 178.627 202.776 176.755 203.928V210.072C178.915 208.632 181.411 207.672 184.291 207.672C187.219 207.672 188.467 209.016 188.659 210.648L182.899 211.944C179.059 212.808 175.267 214.536 175.267 219.144C175.267 223.128 178.339 225.672 182.755 225.672C185.875 225.672 188.227 224.568 190.291 222.936L193.891 226.104ZM182.275 218.28C182.275 216.84 183.379 215.928 185.299 215.448L188.659 214.584V218.424C187.891 219.384 186.403 220.248 184.531 220.248C183.235 220.248 182.275 219.576 182.275 218.28Z" fill="#0077D7"/>
<path d="M291.96 218.472C286.392 218.472 282.792 214.104 282.792 208.584C282.792 203.16 286.392 199.128 291.96 199.128C297.576 199.128 301.176 203.16 301.176 208.584C301.176 214.104 297.576 218.472 291.96 218.472ZM311.88 235.656V227.544C305.736 227.304 301.32 226.584 298.056 224.856V224.76C305.688 222.264 309.192 215.16 309.192 208.584C309.192 200.472 303.816 191.928 291.96 191.928C280.104 191.928 274.728 200.472 274.728 208.584C274.728 215.352 278.472 222.744 286.632 225C291.096 229.32 299.064 234.744 311.88 235.656ZM335.834 225V202.296H328.778V216.936C327.818 218.568 326.09 219.384 324.314 219.384C321.674 219.384 320.426 218.088 320.426 215.448V202.296H313.37V216.84C313.37 222.024 315.914 225.672 321.482 225.672C324.602 225.672 327.002 224.232 328.778 222.312V225H335.834ZM351.683 207.528C353.891 207.528 355.283 209.448 355.379 211.752H347.171C347.603 208.872 349.139 207.528 351.683 207.528ZM352.595 225.672C357.443 225.672 360.083 224.472 361.811 223.56V217.512C359.891 218.616 356.819 219.624 353.651 219.624C350.531 219.624 347.891 218.76 347.219 215.544H361.907V213.144C361.907 207.912 359.843 201.624 351.779 201.624C344.579 201.624 339.827 206.472 339.827 213.96C339.827 221.208 345.107 225.672 352.595 225.672ZM381.129 201.72C380.985 201.672 380.553 201.624 380.265 201.624C376.953 201.624 374.649 204.216 373.353 207.144V202.296H366.297V225H373.353V211.848C374.313 210.168 376.281 209.352 378.345 209.352H381.129V201.72ZM399.342 202.296L394.638 216.552L389.934 202.296H382.494L391.71 225.528L391.374 226.536C390.414 229.512 388.638 230.52 386.526 230.52C385.134 230.52 383.79 230.184 382.782 229.656V236.088C383.55 236.472 384.99 236.904 387.006 236.904C391.662 236.904 394.398 234.216 396.414 229.08L406.83 202.296H399.342Z" fill="black"/>
<path d="M498.417 162.931C497.224 139.767 495.873 89.5819 498.56 87.6534C501.355 85.6472 532.798 85.4088 535.258 87.2567C543.682 93.5825 554.504 104.716 559.59 114.834C561.262 118.16 561.667 164.564 559.59 166.389C557.653 168.089 515.178 168.997 501.147 166.254C499.553 165.942 498.5 164.552 498.417 162.931Z" fill="white"/>
<path d="M535.258 87.2567C532.798 85.4088 501.355 85.6472 498.56 87.6534C495.873 89.5819 497.224 139.767 498.417 162.931C498.5 164.552 499.553 165.942 501.147 166.254C515.178 168.997 557.653 168.089 559.59 166.389C561.667 164.564 561.262 118.16 559.59 114.834M535.258 87.2567C543.682 93.5825 554.504 104.716 559.59 114.834M535.258 87.2567C534.723 94.3909 532.972 112.691 534.255 113.643C535.539 114.596 553.348 114.834 559.59 114.834" stroke="#05AD60" stroke-width="13" stroke-linecap="round" stroke-linejoin="round"/>
<path d="M592.417 162.931C591.224 139.767 589.873 89.5819 592.56 87.6534C595.355 85.6472 626.798 85.4088 629.258 87.2567C637.682 93.5825 648.504 104.716 653.59 114.834C655.262 118.16 655.667 164.564 653.59 166.389C651.653 168.089 609.178 168.997 595.147 166.254C593.553 165.942 592.5 164.552 592.417 162.931Z" fill="white"/>
<path d="M629.258 87.2567C626.798 85.4088 595.355 85.6472 592.56 87.6534C589.873 89.5819 591.224 139.767 592.417 162.931C592.5 164.552 593.553 165.942 595.147 166.254C609.178 168.997 651.653 168.089 653.59 166.389C655.667 164.564 655.262 118.16 653.59 114.834M629.258 87.2567C637.682 93.5825 648.504 104.716 653.59 114.834M629.258 87.2567C628.723 94.3909 626.972 112.691 628.255 113.643C629.539 114.596 647.348 114.834 653.59 114.834" stroke="#05AD60" stroke-width="13" stroke-linecap="round" stroke-linejoin="round"/>
<path d="M686.417 162.931C685.224 139.767 683.873 89.5819 686.56 87.6534C689.355 85.6472 720.798 85.4088 723.258 87.2567C731.682 93.5825 742.504 104.716 747.59 114.834C749.262 118.16 749.667 164.564 747.59 166.389C745.653 168.089 703.178 168.997 689.147 166.254C687.553 165.942 686.5 164.552 686.417 162.931Z" fill="white"/>
<path d="M723.258 87.2567C720.798 85.4088 689.355 85.6472 686.56 87.6534C683.873 89.5819 685.224 139.767 686.417 162.931C686.5 164.552 687.553 165.942 689.147 166.254C703.178 168.997 745.653 168.089 747.59 166.389C749.667 164.564 749.262 118.16 747.59 114.834M723.258 87.2567C731.682 93.5825 742.504 104.716 747.59 114.834M723.258 87.2567C722.723 94.3909 720.972 112.691 722.255 113.643C723.539 114.596 741.348 114.834 747.59 114.834" stroke="#05AD60" stroke-width="13" stroke-linecap="round" stroke-linejoin="round"/>
<path d="M343 47.1547C344.238 46.4402 345.762 46.4402 347 47.1547L399.292 77.3453C400.529 78.0598 401.292 79.3803 401.292 80.8094V141.191C401.292 142.62 400.529 143.94 399.292 144.655L347 174.845C345.762 175.56 344.238 175.56 343 174.845L290.708 144.655C289.471 143.94 288.708 142.62 288.708 141.191V80.8094C288.708 79.3803 289.471 78.0598 290.708 77.3453L343 47.1547Z" fill="white" stroke="black" stroke-width="13" stroke-linejoin="round"/>
<path d="M357 104.057C357 109.999 354.465 115.366 350.39 119.191C346.499 122.843 341.203 125.089 335.367 125.089C323.42 125.089 313.734 115.673 313.734 104.057C313.734 92.4416 323.42 83.0253 335.367 83.0253C347.315 83.0253 357 92.4416 357 104.057Z" fill="white"/>
<path d="M350.39 119.191C354.465 115.366 357 109.999 357 104.057C357 92.4416 347.315 83.0253 335.367 83.0253C323.42 83.0253 313.734 92.4416 313.734 104.057C313.734 115.673 323.42 125.089 335.367 125.089C341.203 125.089 346.499 122.843 350.39 119.191ZM350.39 119.191L367.215 136.506" stroke="black" stroke-width="13" stroke-linecap="round"/>
<path d="M464 198H775C791.016 198 804 210.984 804 227V227C804 243.016 791.016 256 775 256H464" stroke="black" stroke-width="13"/>
<circle cx="774" cy="227" r="29" stroke="black" stroke-width="13"/>
<circle cx="689" cy="227" r="29" stroke="black" stroke-width="13"/>
<circle cx="519" cy="227" r="29" stroke="black" stroke-width="13"/>
<circle cx="604" cy="227" r="29" stroke="black" stroke-width="13"/>
<path d="M273.96 326.472C268.392 326.472 264.792 322.104 264.792 316.584C264.792 311.16 268.392 307.128 273.96 307.128C279.576 307.128 283.176 311.16 283.176 316.584C283.176 322.104 279.576 326.472 273.96 326.472ZM293.88 343.656V335.544C287.736 335.304 283.32 334.584 280.056 332.856V332.76C287.688 330.264 291.192 323.16 291.192 316.584C291.192 308.472 285.816 299.928 273.96 299.928C262.104 299.928 256.728 308.472 256.728 316.584C256.728 323.352 260.472 330.744 268.632 333C273.096 337.32 281.064 342.744 293.88 343.656ZM317.834 333V310.296H310.778V324.936C309.818 326.568 308.09 327.384 306.314 327.384C303.674 327.384 302.426 326.088 302.426 323.448V310.296H295.37V324.84C295.37 330.024 297.914 333.672 303.482 333.672C306.602 333.672 309.002 332.232 310.778 330.312V333H317.834ZM333.683 315.528C335.891 315.528 337.283 317.448 337.379 319.752H329.171C329.603 316.872 331.139 315.528 333.683 315.528ZM334.595 333.672C339.443 333.672 342.083 332.472 343.811 331.56V325.512C341.891 326.616 338.819 327.624 335.651 327.624C332.531 327.624 329.891 326.76 329.219 323.544H343.907V321.144C343.907 315.912 341.843 309.624 333.779 309.624C326.579 309.624 321.827 314.472 321.827 321.96C321.827 329.208 327.107 333.672 334.595 333.672ZM363.129 309.72C362.985 309.672 362.553 309.624 362.265 309.624C358.953 309.624 356.649 312.216 355.353 315.144V310.296H348.297V333H355.353V319.848C356.313 318.168 358.281 317.352 360.345 317.352H363.129V309.72ZM381.342 310.296L376.638 324.552L371.934 310.296H364.494L373.71 333.528L373.374 334.536C372.414 337.512 370.638 338.52 368.526 338.52C367.134 338.52 365.79 338.184 364.782 337.656V344.088C365.55 344.472 366.99 344.904 369.006 344.904C373.662 344.904 376.398 342.216 378.414 337.08L388.83 310.296H381.342ZM411.778 321V313.896H399.826V307.752H415.234V300.6H392.146V333H399.826V321H411.778ZM429.697 333.672C436.657 333.672 442.129 328.872 442.129 321.576C442.129 314.328 436.657 309.624 429.697 309.624C422.737 309.624 417.265 314.328 417.265 321.576C417.265 328.872 422.737 333.672 429.697 333.672ZM424.561 321.576C424.561 317.784 426.865 315.912 429.697 315.912C432.529 315.912 434.881 317.784 434.881 321.576C434.881 325.464 432.529 327.384 429.697 327.384C426.865 327.384 424.561 325.464 424.561 321.576ZM446.126 299.736V333H453.182V299.736H446.126ZM458.547 299.736V333H465.603V299.736H458.547ZM482.009 333.672C488.969 333.672 494.441 328.872 494.441 321.576C494.441 314.328 488.969 309.624 482.009 309.624C475.049 309.624 469.577 314.328 469.577 321.576C469.577 328.872 475.049 333.672 482.009 333.672ZM476.873 321.576C476.873 317.784 479.177 315.912 482.009 315.912C484.841 315.912 487.193 317.784 487.193 321.576C487.193 325.464 484.841 327.384 482.009 327.384C479.177 327.384 476.873 325.464 476.873 321.576ZM518.31 333H522.678L531.222 310.296H523.782L519.894 322.104L515.766 310.296H511.062L506.934 322.056L503.046 310.296H495.51L504.102 333H508.47L513.414 320.088L518.31 333ZM544.199 315.528C546.407 315.528 547.799 317.448 547.895 319.752H539.687C540.119 316.872 541.655 315.528 544.199 315.528ZM545.111 333.672C549.959 333.672 552.599 332.472 554.327 331.56V325.512C552.407 326.616 549.335 327.624 546.167 327.624C543.047 327.624 540.407 326.76 539.735 323.544H554.423V321.144C554.423 315.912 552.359 309.624 544.295 309.624C537.095 309.624 532.343 314.472 532.343 321.96C532.343 329.208 537.623 333.672 545.111 333.672ZM573.645 309.72C573.501 309.672 573.069 309.624 572.781 309.624C569.469 309.624 567.165 312.216 565.869 315.144V310.296H558.813V333H565.869V319.848C566.829 318.168 568.797 317.352 570.861 317.352H573.645V309.72Z" fill="black"/>
</svg>
