<svg width="216" height="289" viewBox="0 0 216 289" fill="none" xmlns="http://www.w3.org/2000/svg">
<path d="M59.96 270.472C54.392 270.472 50.792 266.104 50.792 260.584C50.792 255.16 54.392 251.128 59.96 251.128C65.576 251.128 69.176 255.16 69.176 260.584C69.176 266.104 65.576 270.472 59.96 270.472ZM79.88 287.656V279.544C73.736 279.304 69.32 278.584 66.056 276.856V276.76C73.688 274.264 77.192 267.16 77.192 260.584C77.192 252.472 71.816 243.928 59.96 243.928C48.104 243.928 42.728 252.472 42.728 260.584C42.728 267.352 46.472 274.744 54.632 277C59.096 281.32 67.064 286.744 79.88 287.656ZM103.834 277V254.296H96.7779V268.936C95.8179 270.568 94.0899 271.384 92.3139 271.384C89.6739 271.384 88.4259 270.088 88.4259 267.448V254.296H81.3699V268.84C81.3699 274.024 83.9139 277.672 89.4819 277.672C92.6019 277.672 95.0019 276.232 96.7779 274.312V277H103.834ZM119.683 259.528C121.891 259.528 123.283 261.448 123.379 263.752H115.171C115.603 260.872 117.139 259.528 119.683 259.528ZM120.595 277.672C125.443 277.672 128.083 276.472 129.811 275.56V269.512C127.891 270.616 124.819 271.624 121.651 271.624C118.531 271.624 115.891 270.76 115.219 267.544H129.907V265.144C129.907 259.912 127.843 253.624 119.779 253.624C112.579 253.624 107.827 258.472 107.827 265.96C107.827 273.208 113.107 277.672 120.595 277.672ZM149.129 253.72C148.985 253.672 148.553 253.624 148.265 253.624C144.953 253.624 142.649 256.216 141.353 259.144V254.296H134.297V277H141.353V263.848C142.313 262.168 144.281 261.352 146.345 261.352H149.129V253.72ZM167.342 254.296L162.638 268.552L157.934 254.296H150.494L159.71 277.528L159.374 278.536C158.414 281.512 156.638 282.52 154.526 282.52C153.134 282.52 151.79 282.184 150.782 281.656V288.088C151.55 288.472 152.99 288.904 155.006 288.904C159.662 288.904 162.398 286.216 164.414 281.08L174.83 254.296H167.342Z" fill="black"/>
<path d="M106 7.1547C107.238 6.44017 108.762 6.44017 110 7.1547L199.531 58.8453C200.768 59.5598 201.531 60.8803 201.531 62.3094V165.691C201.531 167.12 200.768 168.44 199.531 169.155L110 220.845C108.762 221.56 107.238 221.56 106 220.845L16.4693 169.155C15.2316 168.44 14.4693 167.12 14.4693 165.691V62.3094C14.4693 60.8803 15.2316 59.5598 16.4693 58.8453L106 7.1547Z" fill="white" stroke="black" stroke-width="13" stroke-linejoin="round"/>
<path d="M128 102C128 111.888 123.782 120.819 117 127.184C110.524 133.262 101.711 137 92 137C72.1177 137 56 121.33 56 102C56 82.67 72.1177 67 92 67C111.882 67 128 82.67 128 102Z" fill="white"/>
<path d="M117 127.184C123.782 120.819 128 111.888 128 102C128 82.67 111.882 67 92 67C72.1177 67 56 82.67 56 102C56 121.33 72.1177 137 92 137C101.711 137 110.524 133.262 117 127.184ZM117 127.184L145 156" stroke="black" stroke-width="13" stroke-linecap="round"/>
</svg>
