<svg width="503" height="407" viewBox="0 0 503 407" fill="none" xmlns="http://www.w3.org/2000/svg">
<path d="M7.17133 42.1978C6.66052 91.6874 7.00848 211.023 12.2308 327.156C12.3258 329.27 13.9329 330.938 16.0482 330.969C138.492 332.758 445.919 338.648 462.463 330.917C482.798 321.413 500.909 76.9718 495.31 68.8026C493.039 65.4881 479.31 64.9811 471 64.8234V58.9489C471 58.6583 471.032 58.3698 471.08 58.0831C471.398 56.1713 472.323 48.253 467.127 42.2592C461.336 35.5787 239.119 38.1282 176.769 38.2693C174.261 38.275 172.432 35.9725 172.339 33.4657C171.993 24.1338 166.333 14.5329 162.5 11.1254C158 7.12538 48 4.3026 41.5 11.1254C35.6521 17.2637 31.933 24.5792 30.1965 34.7602C29.856 36.7568 28.1646 38.2752 26.1391 38.2752H11.1669C8.97679 38.2752 7.19393 40.0078 7.17133 42.1978Z" fill="white"/>
<path d="M38 298.803C38 276.803 64.2019 71.0206 72.5 64.8234C80.0802 59.1625 383.44 63.1624 471 64.8234M471 64.8234C479.31 64.9811 493.039 65.4881 495.31 68.8026C500.909 76.9718 482.798 321.413 462.463 330.917C445.919 338.648 138.492 332.758 16.0482 330.969C13.9329 330.938 12.3258 329.27 12.2308 327.156C7.00848 211.023 6.66052 91.6874 7.17133 42.1978C7.19393 40.0078 8.97679 38.2752 11.1669 38.2752H26.1391C28.1646 38.2752 29.856 36.7568 30.1965 34.7602C31.933 24.5792 35.6521 17.2637 41.5 11.1254C48 4.3026 158 7.12538 162.5 11.1254C166.333 14.5329 171.993 24.1338 172.339 33.4657C172.432 35.9724 174.261 38.275 176.769 38.2693C239.119 38.1282 461.336 35.5787 467.127 42.2592C472.323 48.253 471.398 56.1713 471.08 58.0831C471.032 58.3698 471 58.6583 471 58.9489V64.8234Z" stroke="black" stroke-width="13" stroke-linecap="round" stroke-linejoin="round"/>
<path d="M112.028 148.859C111.918 164.722 112.083 197.311 113.456 229.548C113.547 231.662 115.267 233.335 117.382 233.364C154.239 233.878 219.164 234.517 224.382 233.311C231.132 231.751 247.23 169.363 243.426 166.786C242.425 166.108 235.471 165.702 225.783 165.517V163.283C225.783 163.135 225.791 162.993 225.806 162.846C226.01 160.935 227.448 146.854 225.783 144.922C224.151 143.028 188.466 144.594 169.768 144.88C167.261 144.918 165.417 142.594 165.022 140.119C164.582 137.361 163.176 134.637 159.76 134.004C152.75 132.704 129.941 132.628 125.69 134.004C122.658 134.985 121.691 138.27 121.229 141.394C120.933 143.399 119.289 144.922 117.262 144.922H116.017C113.826 144.922 112.043 146.669 112.028 148.859Z" fill="white"/>
<path d="M134 212C141.705 176.879 148.257 169.722 150.75 167.85C153.027 166.14 199.483 165.015 225.783 165.517M225.783 165.517C235.471 165.702 242.425 166.108 243.426 166.786C247.23 169.363 231.132 231.751 224.382 233.311C219.164 234.517 154.239 233.878 117.382 233.364C115.267 233.335 113.547 231.662 113.456 229.548C112.083 197.311 111.918 164.722 112.028 148.859C112.043 146.669 113.826 144.922 116.017 144.922H117.262C119.289 144.922 120.933 143.399 121.229 141.394C121.691 138.27 122.658 134.985 125.69 134.004C129.941 132.628 152.75 132.704 159.76 134.004C163.176 134.637 164.582 137.361 165.022 140.119C165.417 142.594 167.261 144.918 169.768 144.88C188.466 144.594 224.151 143.028 225.783 144.922C227.448 146.854 226.01 160.935 225.806 162.846C225.791 162.993 225.783 163.135 225.783 163.283V165.517Z" stroke="#0077D7" stroke-width="13" stroke-linecap="round" stroke-linejoin="round"/>
<path d="M114.208 369.752C117.088 369.752 118.864 370.568 118.864 373.016C118.864 375.224 117.184 376.424 114.544 376.424H111.232V369.752H114.208ZM112.144 382.952C114.688 382.952 116.176 384.104 118.096 387.416L122.416 395H131.248L126.064 385.448C124.96 383.384 123.472 381.848 121.936 380.888C125.056 378.968 126.736 375.848 126.736 372.632C126.736 366.632 122.992 362.6 114.208 362.6H103.552V395H111.232V382.952H112.144ZM143.386 377.528C145.594 377.528 146.986 379.448 147.082 381.752H138.874C139.306 378.872 140.842 377.528 143.386 377.528ZM144.298 395.672C149.146 395.672 151.786 394.472 153.514 393.56V387.512C151.594 388.616 148.522 389.624 145.354 389.624C142.234 389.624 139.594 388.76 138.922 385.544H153.61V383.144C153.61 377.912 151.546 371.624 143.482 371.624C136.282 371.624 131.53 376.472 131.53 383.96C131.53 391.208 136.81 395.672 144.298 395.672ZM169.473 389.384C167.505 389.384 165.873 388.424 164.961 386.792V380.168C166.113 378.728 167.553 377.912 169.473 377.912C171.921 377.912 174.513 379.592 174.513 383.528C174.513 387.512 171.921 389.384 169.473 389.384ZM171.249 395.672C176.961 395.672 181.76 390.296 181.76 383.528C181.76 376.28 177.297 371.624 171.633 371.624C168.321 371.624 166.161 373.064 164.817 374.408L164.145 372.296H158.001V405.8H164.961V393.512C166.833 394.952 169.041 395.672 171.249 395.672ZM185.751 361.736V395H192.807V361.736H185.751ZM198.172 372.296V395H205.228V372.296H198.172ZM201.724 360.872C199.372 360.872 197.596 362.6 197.596 364.856C197.596 367.112 199.372 368.984 201.724 368.984C204.028 368.984 205.852 367.112 205.852 364.856C205.852 362.6 204.028 360.872 201.724 360.872ZM221.394 395.672C225.618 395.672 227.922 394.088 229.17 393.08V386.408C227.49 387.944 224.946 389.336 222.498 389.336C219.714 389.336 216.498 388.184 216.498 383.768C216.498 379.928 218.802 377.96 222.258 377.96C224.562 377.96 226.578 378.728 228.834 380.456V373.592C226.866 372.392 224.562 371.624 221.634 371.624C213.57 371.624 209.202 376.76 209.202 383.864C209.202 390.92 214.338 395.672 221.394 395.672ZM250.891 396.104L255.115 391.4L252.379 389V381.512C252.379 375.752 249.931 371.624 242.443 371.624C238.747 371.624 235.627 372.776 233.755 373.928V380.072C235.915 378.632 238.411 377.672 241.291 377.672C244.219 377.672 245.467 379.016 245.659 380.648L239.899 381.944C236.059 382.808 232.267 384.536 232.267 389.144C232.267 393.128 235.339 395.672 239.755 395.672C242.875 395.672 245.227 394.568 247.291 392.936L250.891 396.104ZM239.275 388.28C239.275 386.84 240.379 385.928 242.299 385.448L245.659 384.584V388.424C244.891 389.384 243.403 390.248 241.531 390.248C240.235 390.248 239.275 389.576 239.275 388.28ZM284.961 364.52C283.473 363.32 279.825 361.928 275.169 361.928C262.257 361.928 257.025 370.424 257.025 378.488C257.025 386.648 262.257 395.672 275.217 395.672C279.585 395.672 283.905 394.424 285.777 392.84V384.92C284.001 386.744 279.681 388.472 276.081 388.472C268.689 388.472 265.089 383.864 265.089 378.488C265.089 373.256 268.545 369.128 275.505 369.128C278.193 369.128 282.369 370.424 284.961 372.488V364.52ZM307.938 396.104L312.162 391.4L309.426 389V381.512C309.426 375.752 306.978 371.624 299.49 371.624C295.794 371.624 292.674 372.776 290.802 373.928V380.072C292.962 378.632 295.458 377.672 298.338 377.672C301.266 377.672 302.514 379.016 302.706 380.648L296.946 381.944C293.106 382.808 289.314 384.536 289.314 389.144C289.314 393.128 292.386 395.672 296.802 395.672C299.922 395.672 302.274 394.568 304.338 392.936L307.938 396.104ZM296.322 388.28C296.322 386.84 297.426 385.928 299.346 385.448L302.706 384.584V388.424C301.938 389.384 300.45 390.248 298.578 390.248C297.282 390.248 296.322 389.576 296.322 388.28ZM325.832 395.672C330.056 395.672 332.36 394.088 333.608 393.08V386.408C331.928 387.944 329.384 389.336 326.936 389.336C324.152 389.336 320.936 388.184 320.936 383.768C320.936 379.928 323.24 377.96 326.696 377.96C329 377.96 331.016 378.728 333.272 380.456V373.592C331.304 372.392 329 371.624 326.072 371.624C318.008 371.624 313.64 376.76 313.64 383.864C313.64 390.92 318.776 395.672 325.832 395.672ZM338.001 361.736V395H345.057V380.264C345.969 378.776 347.648 377.912 349.569 377.912C352.065 377.912 353.409 379.592 353.409 383V395H360.465V380.888C360.465 375.224 357.921 371.624 352.113 371.624C349.089 371.624 346.737 373.16 345.057 375.224V361.736H338.001ZM376.074 377.528C378.282 377.528 379.674 379.448 379.77 381.752H371.562C371.994 378.872 373.53 377.528 376.074 377.528ZM376.986 395.672C381.834 395.672 384.474 394.472 386.202 393.56V387.512C384.282 388.616 381.21 389.624 378.042 389.624C374.922 389.624 372.282 388.76 371.61 385.544H386.298V383.144C386.298 377.912 384.234 371.624 376.17 371.624C368.97 371.624 364.218 376.472 364.218 383.96C364.218 391.208 369.498 395.672 376.986 395.672Z" fill="black"/>
<path d="M321.664 273.52C320.176 272.32 316.528 270.928 311.872 270.928C298.96 270.928 293.728 279.424 293.728 287.488C293.728 295.648 298.96 304.672 311.92 304.672C316.288 304.672 320.608 303.424 322.48 301.84V293.92C320.704 295.744 316.384 297.472 312.784 297.472C305.392 297.472 301.792 292.864 301.792 287.488C301.792 282.256 305.248 278.128 312.208 278.128C314.896 278.128 319.072 279.424 321.664 281.488V273.52ZM344.641 305.104L348.865 300.4L346.129 298V290.512C346.129 284.752 343.681 280.624 336.193 280.624C332.497 280.624 329.377 281.776 327.505 282.928V289.072C329.665 287.632 332.161 286.672 335.041 286.672C337.969 286.672 339.217 288.016 339.409 289.648L333.649 290.944C329.809 291.808 326.017 293.536 326.017 298.144C326.017 302.128 329.089 304.672 333.505 304.672C336.625 304.672 338.977 303.568 341.041 301.936L344.641 305.104ZM333.025 297.28C333.025 295.84 334.129 294.928 336.049 294.448L339.409 293.584V297.424C338.641 298.384 337.153 299.248 335.281 299.248C333.985 299.248 333.025 298.576 333.025 297.28ZM362.535 304.672C366.759 304.672 369.063 303.088 370.311 302.08V295.408C368.631 296.944 366.087 298.336 363.639 298.336C360.855 298.336 357.639 297.184 357.639 292.768C357.639 288.928 359.943 286.96 363.399 286.96C365.703 286.96 367.719 287.728 369.975 289.456V282.592C368.007 281.392 365.703 280.624 362.775 280.624C354.711 280.624 350.343 285.76 350.343 292.864C350.343 299.92 355.479 304.672 362.535 304.672ZM374.704 270.736V304H381.76V289.264C382.672 287.776 384.352 286.912 386.272 286.912C388.768 286.912 390.112 288.592 390.112 292V304H397.168V289.888C397.168 284.224 394.624 280.624 388.816 280.624C385.792 280.624 383.44 282.16 381.76 284.224V270.736H374.704ZM412.777 286.528C414.985 286.528 416.377 288.448 416.473 290.752H408.265C408.697 287.872 410.233 286.528 412.777 286.528ZM413.689 304.672C418.537 304.672 421.177 303.472 422.905 302.56V296.512C420.985 297.616 417.913 298.624 414.745 298.624C411.625 298.624 408.985 297.76 408.313 294.544H423.001V292.144C423.001 286.912 420.937 280.624 412.873 280.624C405.673 280.624 400.921 285.472 400.921 292.96C400.921 300.208 406.201 304.672 413.689 304.672Z" fill="black"/>
<path d="M114.208 278.752C117.088 278.752 118.864 279.568 118.864 282.016C118.864 284.224 117.184 285.424 114.544 285.424H111.232V278.752H114.208ZM112.144 291.952C114.688 291.952 116.176 293.104 118.096 296.416L122.416 304H131.248L126.064 294.448C124.96 292.384 123.472 290.848 121.936 289.888C125.056 287.968 126.736 284.848 126.736 281.632C126.736 275.632 122.992 271.6 114.208 271.6H103.552V304H111.232V291.952H112.144ZM143.386 286.528C145.594 286.528 146.986 288.448 147.082 290.752H138.874C139.306 287.872 140.842 286.528 143.386 286.528ZM144.298 304.672C149.146 304.672 151.786 303.472 153.514 302.56V296.512C151.594 297.616 148.522 298.624 145.354 298.624C142.234 298.624 139.594 297.76 138.922 294.544H153.61V292.144C153.61 286.912 151.546 280.624 143.482 280.624C136.282 280.624 131.53 285.472 131.53 292.96C131.53 300.208 136.81 304.672 144.298 304.672ZM169.473 298.384C167.505 298.384 165.873 297.424 164.961 295.792V289.168C166.113 287.728 167.553 286.912 169.473 286.912C171.921 286.912 174.513 288.592 174.513 292.528C174.513 296.512 171.921 298.384 169.473 298.384ZM171.249 304.672C176.961 304.672 181.76 299.296 181.76 292.528C181.76 285.28 177.297 280.624 171.633 280.624C168.321 280.624 166.161 282.064 164.817 283.408L164.145 281.296H158.001V314.8H164.961V302.512C166.833 303.952 169.041 304.672 171.249 304.672ZM185.751 270.736V304H192.807V270.736H185.751ZM198.172 281.296V304H205.228V281.296H198.172ZM201.724 269.872C199.372 269.872 197.596 271.6 197.596 273.856C197.596 276.112 199.372 277.984 201.724 277.984C204.028 277.984 205.852 276.112 205.852 273.856C205.852 271.6 204.028 269.872 201.724 269.872ZM221.394 304.672C225.618 304.672 227.922 303.088 229.17 302.08V295.408C227.49 296.944 224.946 298.336 222.498 298.336C219.714 298.336 216.498 297.184 216.498 292.768C216.498 288.928 218.802 286.96 222.258 286.96C224.562 286.96 226.578 287.728 228.834 289.456V282.592C226.866 281.392 224.562 280.624 221.634 280.624C213.57 280.624 209.202 285.76 209.202 292.864C209.202 299.92 214.338 304.672 221.394 304.672ZM250.891 305.104L255.115 300.4L252.379 298V290.512C252.379 284.752 249.931 280.624 242.443 280.624C238.747 280.624 235.627 281.776 233.755 282.928V289.072C235.915 287.632 238.411 286.672 241.291 286.672C244.219 286.672 245.467 288.016 245.659 289.648L239.899 290.944C236.059 291.808 232.267 293.536 232.267 298.144C232.267 302.128 235.339 304.672 239.755 304.672C242.875 304.672 245.227 303.568 247.291 301.936L250.891 305.104ZM239.275 297.28C239.275 295.84 240.379 294.928 242.299 294.448L245.659 293.584V297.424C244.891 298.384 243.403 299.248 241.531 299.248C240.235 299.248 239.275 298.576 239.275 297.28Z" fill="#0077D7"/>
<path d="M313.061 207.852C304.488 186.301 287.084 139.21 289.009 136.521C291.011 133.723 320.709 123.394 323.633 124.353C333.643 127.637 347.468 134.703 355.535 142.65C358.188 145.263 373.482 189.076 372.101 191.471C370.813 193.704 330.883 208.211 316.714 210.122C315.105 210.339 313.661 209.361 313.061 207.852Z" fill="white"/>
<path d="M323.633 124.353C320.709 123.394 291.011 133.723 289.009 136.521C287.084 139.21 304.488 186.301 313.061 207.852C313.661 209.361 315.105 210.339 316.714 210.122C330.883 208.211 370.813 193.704 372.101 191.471C373.482 189.076 358.188 145.263 355.535 142.65M323.633 124.353C333.643 127.637 347.468 134.703 355.535 142.65M323.633 124.353C325.419 131.281 329.641 149.174 331.162 149.663C332.684 150.152 349.625 144.655 355.535 142.65" stroke="#05AD60" stroke-width="13" stroke-linecap="round" stroke-linejoin="round"/>
<path d="M361.745 180.027C364.556 157.004 371.861 107.335 374.84 105.897C377.939 104.402 408.953 109.578 411.059 111.821C418.268 119.502 427.013 132.332 430.282 143.174C431.357 146.739 423.771 192.521 421.41 193.96C419.21 195.302 377.213 188.887 363.863 183.77C362.347 183.189 361.548 181.638 361.745 180.027Z" fill="white"/>
<path d="M411.059 111.821C408.953 109.578 377.939 104.402 374.84 105.897C371.861 107.335 364.556 157.004 361.745 180.027C361.548 181.638 362.347 183.189 363.863 183.77C377.213 188.887 419.21 195.302 421.41 193.96C423.771 192.521 431.357 146.739 430.282 143.174M411.059 111.821C418.268 119.502 427.013 132.332 430.282 143.174M411.059 111.821C409.305 118.757 404.43 136.483 405.531 137.642C406.631 138.801 424.134 142.1 430.282 143.174" stroke="#05AD60" stroke-width="13" stroke-linecap="round" stroke-linejoin="round"/>
<path d="M354.874 218.947C369.186 200.695 401.126 161.961 404.418 162.271C407.844 162.594 431.712 183.063 432.354 186.073C434.553 196.375 435.402 211.878 432.593 222.848C431.67 226.455 401.501 261.717 398.736 261.728C396.159 261.738 363.531 234.529 354.751 223.246C353.754 221.964 353.873 220.224 354.874 218.947Z" fill="white"/>
<path d="M432.354 186.073C431.712 183.063 407.844 162.594 404.418 162.271C401.126 161.961 369.186 200.695 354.874 218.947C353.873 220.224 353.754 221.964 354.751 223.246C363.531 234.529 396.159 261.738 398.736 261.728C401.501 261.717 431.67 226.455 432.593 222.848M432.354 186.073C434.553 196.375 435.402 211.878 432.593 222.848M432.354 186.073C427.266 191.102 413.927 203.752 414.269 205.313C414.612 206.874 427.886 218.749 432.593 222.848" stroke="#05AD60" stroke-width="13" stroke-linecap="round" stroke-linejoin="round"/>
</svg>
