<svg height="92" viewBox="0 0 1672 439" fill="none" xmlns="http://www.w3.org/2000/svg">
<path d="M168 240.734C198.479 237.345 236.033 239.322 251 240.734M251 240.734L223.766 203M251 240.734L223.766 274" stroke="black" stroke-width="13" stroke-linecap="round" stroke-linejoin="round"/>
<path d="M1393 236.734C1423.48 233.345 1461.03 235.322 1476 236.734M1476 236.734L1448.77 199M1476 236.734L1448.77 270" stroke="black" stroke-width="13" stroke-linecap="round" stroke-linejoin="round"/>
<path d="M297.235 51.4346C296.553 115.008 296.97 271.337 303.834 423.202C303.929 425.315 305.406 426.982 307.521 427.012C468.873 429.309 1101.56 437.012 1123.07 426.962C1149.44 414.64 1172.92 97.7193 1165.66 87.1278C1162.72 82.8305 1144.92 82.1732 1134.14 81.9688V74.2228C1134.14 73.9322 1134.17 73.6499 1134.22 73.3636C1134.61 71.1451 1135.98 60.6337 1129.12 52.714C1121.55 43.9826 602.146 47.4122 515.489 47.5448C512.98 47.5486 511.411 45.2539 511.434 42.7454C511.549 30.2105 503.822 16.9411 498.654 12.3486C492.818 7.16256 350.169 3.50278 341.74 12.3486C333.959 20.5141 329.084 30.2862 326.911 44.0293C326.595 46.0298 324.899 47.5487 322.874 47.5487H301.231C299.041 47.5487 297.258 49.2446 297.235 51.4346Z" fill="white"/>
<path d="M337.201 385.326C337.201 356.802 371.18 90.0034 381.941 81.9688C391.771 74.6292 1020.59 79.8152 1134.14 81.9688M1134.14 81.9688C1144.92 82.1732 1162.72 82.8305 1165.66 87.1278C1172.92 97.7193 1149.44 414.64 1123.07 426.962C1101.56 437.012 468.873 429.309 307.521 427.012C305.406 426.982 303.929 425.315 303.834 423.202C296.97 271.337 296.553 115.008 297.235 51.4346C297.258 49.2446 299.041 47.5487 301.231 47.5487H322.874C324.899 47.5487 326.595 46.0298 326.911 44.0293C329.084 30.2862 333.959 20.5141 341.74 12.3486C350.169 3.50278 492.818 7.16256 498.654 12.3486C503.822 16.9411 511.549 30.2105 511.434 42.7454C511.411 45.2539 512.98 47.5486 515.489 47.5448C602.146 47.4122 1121.55 43.9826 1129.12 52.714C1135.98 60.6337 1134.61 71.1451 1134.22 73.3636C1134.17 73.6499 1134.14 73.9322 1134.14 74.2228V81.9688Z" stroke="#0077D7" stroke-width="13" stroke-linecap="round" stroke-linejoin="round"/>
<path d="M472.877 226.212C471.321 196.625 469.509 130.652 473.023 128.137C476.648 125.544 517.425 125.236 520.616 127.624C531.54 135.802 545.575 150.194 552.171 163.273C554.34 167.573 554.866 227.559 552.171 229.917C549.622 232.148 492.93 233.323 475.593 229.582C474.005 229.239 472.963 227.834 472.877 226.212Z" fill="white"/>
<path d="M520.616 127.624C517.425 125.236 476.648 125.544 473.023 128.137C469.509 130.652 471.321 196.625 472.877 226.212C472.963 227.834 474.005 229.239 475.593 229.582C492.93 233.323 549.622 232.148 552.171 229.917C554.866 227.559 554.34 167.573 552.171 163.273M520.616 127.624C531.54 135.802 545.575 150.194 552.171 163.273M520.616 127.624C519.923 136.847 517.651 160.503 519.316 161.734C520.98 162.965 544.077 163.273 552.171 163.273" stroke="#05AD60" stroke-width="13" stroke-linecap="round" stroke-linejoin="round"/>
<path d="M443.877 265.212C442.321 235.625 440.509 169.652 444.023 167.137C447.648 164.544 488.425 164.236 491.616 166.624C502.54 174.802 516.575 189.194 523.171 202.273C525.34 206.573 525.866 266.559 523.171 268.917C520.622 271.148 463.93 272.323 446.593 268.582C445.005 268.239 443.963 266.834 443.877 265.212Z" fill="white"/>
<path d="M491.616 166.624C488.425 164.236 447.648 164.544 444.023 167.137C440.509 169.652 442.321 235.625 443.877 265.212C443.963 266.834 445.005 268.239 446.593 268.582C463.93 272.323 520.622 271.148 523.171 268.917C525.866 266.559 525.34 206.573 523.171 202.273M491.616 166.624C502.54 174.802 516.575 189.194 523.171 202.273M491.616 166.624C490.923 175.847 488.651 199.503 490.316 200.734C491.98 201.965 515.077 202.273 523.171 202.273" stroke="#05AD60" stroke-width="13" stroke-linecap="round" stroke-linejoin="round"/>
<path d="M415.877 304.212C414.321 274.625 412.509 208.652 416.023 206.137C419.648 203.544 460.425 203.236 463.616 205.624C474.54 213.802 488.575 228.194 495.171 241.273C497.34 245.573 497.866 305.559 495.171 307.917C492.622 310.148 435.93 311.323 418.593 307.582C417.005 307.239 415.963 305.834 415.877 304.212Z" fill="white"/>
<path d="M463.616 205.624C460.425 203.236 419.648 203.544 416.023 206.137C412.509 208.652 414.321 274.625 415.877 304.212C415.963 305.834 417.005 307.239 418.593 307.582C435.93 311.323 492.622 310.148 495.171 307.917C497.866 305.559 497.34 245.573 495.171 241.273M463.616 205.624C474.54 213.802 488.575 228.194 495.171 241.273M463.616 205.624C462.923 214.847 460.651 238.503 462.316 239.734C463.98 240.965 487.077 241.273 495.171 241.273" stroke="#05AD60" stroke-width="13" stroke-linecap="round" stroke-linejoin="round"/>
<path d="M1583.88 233.212C1582.32 203.625 1580.51 137.652 1584.02 135.137C1587.65 132.544 1628.43 132.236 1631.62 134.624C1642.54 142.802 1656.58 157.194 1663.17 170.273C1665.34 174.573 1665.87 234.559 1663.17 236.917C1660.62 239.148 1603.93 240.323 1586.59 236.582C1585 236.239 1583.96 234.834 1583.88 233.212Z" fill="white"/>
<path d="M1631.62 134.624C1628.43 132.236 1587.65 132.544 1584.02 135.137C1580.51 137.652 1582.32 203.625 1583.88 233.212C1583.96 234.834 1585 236.239 1586.59 236.582C1603.93 240.323 1660.62 239.148 1663.17 236.917C1665.87 234.559 1665.34 174.573 1663.17 170.273M1631.62 134.624C1642.54 142.802 1656.58 157.194 1663.17 170.273M1631.62 134.624C1630.92 143.847 1628.65 167.503 1630.32 168.734C1631.98 169.965 1655.08 170.273 1663.17 170.273" stroke="#05AD60" stroke-width="13" stroke-linecap="round" stroke-linejoin="round"/>
<path d="M1555.88 272.212C1554.32 242.625 1552.51 176.652 1556.02 174.137C1559.65 171.544 1600.43 171.236 1603.62 173.624C1614.54 181.802 1628.58 196.194 1635.17 209.273C1637.34 213.573 1637.87 273.559 1635.17 275.917C1632.62 278.148 1575.93 279.323 1558.59 275.582C1557 275.239 1555.96 273.834 1555.88 272.212Z" fill="white"/>
<path d="M1603.62 173.624C1600.43 171.236 1559.65 171.544 1556.02 174.137C1552.51 176.652 1554.32 242.625 1555.88 272.212C1555.96 273.834 1557 275.239 1558.59 275.582C1575.93 279.323 1632.62 278.148 1635.17 275.917C1637.87 273.559 1637.34 213.573 1635.17 209.273M1603.62 173.624C1614.54 181.802 1628.58 196.194 1635.17 209.273M1603.62 173.624C1602.92 182.847 1600.65 206.503 1602.32 207.734C1603.98 208.965 1627.08 209.273 1635.17 209.273" stroke="#05AD60" stroke-width="13" stroke-linecap="round" stroke-linejoin="round"/>
<path d="M1526.88 311.191C1525.32 281.341 1523.51 214.697 1527.02 212.158C1530.65 209.54 1571.43 209.229 1574.62 211.64C1585.54 219.894 1599.58 234.422 1606.17 247.624C1608.34 251.965 1608.87 312.517 1606.17 314.898C1603.62 317.15 1546.91 318.336 1529.58 314.557C1528 314.212 1526.96 312.81 1526.88 311.191Z" fill="white"/>
<path d="M1574.62 211.64C1571.43 209.229 1530.65 209.54 1527.02 212.158C1523.51 214.697 1525.32 281.341 1526.88 311.191C1526.96 312.81 1528 314.212 1529.58 314.557C1546.91 318.336 1603.62 317.15 1606.17 314.898C1608.87 312.517 1608.34 251.965 1606.17 247.624M1574.62 211.64C1585.54 219.894 1599.58 234.422 1606.17 247.624M1574.62 211.64C1573.92 220.949 1571.65 244.829 1573.32 246.071C1574.98 247.314 1598.08 247.624 1606.17 247.624" stroke="#05AD60" stroke-width="13" stroke-linecap="round" stroke-linejoin="round"/>
<path d="M135 189.056C135 220.567 109.704 246.112 78.5 246.112C75.7878 246.112 73.1203 245.919 70.5101 245.546C43.0897 241.626 22 217.828 22 189.056C22 157.545 47.2959 132 78.5 132C109.704 132 135 157.545 135 189.056Z" fill="white"/>
<path d="M70.5101 245.546C73.1203 245.919 75.7878 246.112 78.5 246.112C109.704 246.112 135 220.567 135 189.056C135 157.545 109.704 132 78.5 132C47.2959 132 22 157.545 22 189.056C22 217.828 43.0897 241.626 70.5101 245.546ZM70.5101 245.546V285.879M106.465 317H71.5101C70.9578 317 70.5101 316.552 70.5101 316V285.879M70.5101 285.879H106.465" stroke="#FF9B3E" stroke-width="13" stroke-linecap="round"/>
<path d="M65 169V179" stroke="#FF9B3E" stroke-width="13" stroke-linecap="round" stroke-linejoin="round"/>
<path d="M89 169V179" stroke="#FF9B3E" stroke-width="13" stroke-linecap="round" stroke-linejoin="round"/>
<path d="M58 202C61.9344 207.875 71.7705 218.318 78.3279 218.971C84.8852 219.624 93.847 209.18 98 202.653" stroke="#FF9B3E" stroke-width="13" stroke-linecap="round" stroke-linejoin="round"/>
<circle cx="1012.5" cy="231.5" r="81" stroke="black" stroke-width="13"/>
<path d="M988.877 266.005C986.003 240.286 987.679 208.595 988.877 195.965M988.877 195.965L970.02 210.892M988.877 195.965L1005.04 210.892" stroke="black" stroke-width="13" stroke-linecap="round" stroke-linejoin="round"/>
<path d="M1036.77 195.965C1039.64 221.685 1037.96 253.375 1036.77 266.005M1036.77 266.005L1055.62 251.079M1036.77 266.005L1020.6 251.079" stroke="black" stroke-width="13" stroke-linecap="round" stroke-linejoin="round"/>
<path d="M858.131 167.677C852.973 163.436 626.516 164.849 622.905 167.677C619.294 170.504 618.778 311.401 622.905 314.699C627.032 317.998 852.973 317.527 858.131 314.699C863.29 311.872 863.29 171.918 858.131 167.677Z" stroke="black" stroke-width="13" stroke-linecap="round" stroke-linejoin="round"/>
<path d="M701.879 220.191C700.322 190.341 698.507 123.697 702.023 121.158C705.648 118.54 746.425 118.229 749.616 120.64C760.54 128.894 774.575 143.422 781.171 156.624C783.34 160.965 783.866 221.517 781.171 223.898C778.622 226.15 721.911 227.336 704.584 223.557C703 223.212 701.963 221.81 701.879 220.191Z" fill="white"/>
<path d="M749.616 120.64C746.425 118.229 705.648 118.54 702.023 121.158C698.507 123.697 700.322 190.341 701.879 220.191C701.963 221.81 703 223.212 704.584 223.557C721.911 227.336 778.622 226.15 781.171 223.898C783.866 221.517 783.34 160.965 781.171 156.624M749.616 120.64C760.54 128.894 774.575 143.422 781.171 156.624M749.616 120.64C748.923 129.949 746.651 153.829 748.316 155.071C749.98 156.314 773.077 156.624 781.171 156.624" stroke="#05AD60" stroke-width="13" stroke-linecap="round" stroke-linejoin="round"/>
<path d="M655 226C719.945 226 799.394 226 831 226" stroke="black" stroke-width="13" stroke-linecap="round" stroke-linejoin="round"/>
<path d="M762.493 255.629L794.919 282.867" stroke="black" stroke-width="13" stroke-linecap="round" stroke-linejoin="round"/>
<path d="M794.919 255.629L762.493 282.867" stroke="black" stroke-width="13" stroke-linecap="round" stroke-linejoin="round"/>
<path d="M689 274.17L700.061 283.788C701.969 285.447 704.92 284.941 706.166 282.74L723 253" stroke="black" stroke-width="13" stroke-linecap="round" stroke-linejoin="round"/>
<path d="M421.864 350.336C431.336 350.336 435.24 355.328 435.24 362.112C435.24 368.96 431.272 374.464 422.312 374.464H415.976V350.336H421.864ZM405.736 384H422.248C439.656 384 445.928 372.928 445.928 362.112C445.928 351.296 439.656 340.8 422.248 340.8H405.736V384ZM466.554 384.896C475.834 384.896 483.13 378.496 483.13 368.768C483.13 359.104 475.834 352.832 466.554 352.832C457.274 352.832 449.978 359.104 449.978 368.768C449.978 378.496 457.274 384.896 466.554 384.896ZM459.706 368.768C459.706 363.712 462.778 361.216 466.554 361.216C470.33 361.216 473.466 363.712 473.466 368.768C473.466 373.952 470.33 376.512 466.554 376.512C462.778 376.512 459.706 373.952 459.706 368.768ZM502.859 384.896C508.491 384.896 511.563 382.784 513.227 381.44V372.544C510.987 374.592 507.595 376.448 504.331 376.448C500.619 376.448 496.331 374.912 496.331 369.024C496.331 363.904 499.403 361.28 504.011 361.28C507.083 361.28 509.771 362.304 512.779 364.608V355.456C510.155 353.856 507.083 352.832 503.179 352.832C492.427 352.832 486.603 359.68 486.603 369.152C486.603 378.56 493.451 384.896 502.859 384.896ZM528.876 384.896C535.468 384.896 541.228 381.952 541.228 375.296C541.228 365.056 527.404 366.272 527.404 362.56C527.404 361.408 528.428 360.768 530.732 360.768C532.716 360.768 536.3 361.664 539.372 363.776V354.752C537.324 353.728 533.484 352.832 530.22 352.832C522.988 352.832 517.804 356.544 517.804 362.688C517.804 373.12 531.628 372.224 531.628 375.68C531.628 376.96 530.476 377.536 528.556 377.536C525.036 377.536 520.684 375.616 518.124 373.376V381.824C519.788 383.232 524.204 384.896 528.876 384.896Z" fill="#05AD60"/>
<path d="M655.192 340.8H643.736L634.584 368L625.432 340.8H613.912L631.448 384.896H637.72L655.192 340.8ZM679.563 385.472L685.195 379.2L681.547 376V366.016C681.547 358.336 678.283 352.832 668.299 352.832C663.371 352.832 659.211 354.368 656.715 355.904V364.096C659.595 362.176 662.923 360.896 666.763 360.896C670.667 360.896 672.331 362.688 672.587 364.864L664.907 366.592C659.787 367.744 654.731 370.048 654.731 376.192C654.731 381.504 658.827 384.896 664.715 384.896C668.875 384.896 672.011 383.424 674.763 381.248L679.563 385.472ZM664.075 375.04C664.075 373.12 665.547 371.904 668.107 371.264L672.587 370.112V375.232C671.563 376.512 669.579 377.664 667.083 377.664C665.355 377.664 664.075 376.768 664.075 375.04ZM689.022 339.648V384H698.43V339.648H689.022ZM705.584 353.728V384H714.992V353.728H705.584ZM710.32 338.496C707.184 338.496 704.816 340.8 704.816 343.808C704.816 346.816 707.184 349.312 710.32 349.312C713.392 349.312 715.824 346.816 715.824 343.808C715.824 340.8 713.392 338.496 710.32 338.496ZM751.971 339.648H742.691V356.096C741.539 354.816 738.339 352.832 734.051 352.832C726.115 352.832 720.291 359.04 720.291 368.704C720.291 378.88 726.947 384.896 734.371 384.896C737.827 384.896 740.643 383.808 743.075 381.824L743.779 384H751.971V339.648ZM736.867 376.512C733.155 376.512 730.019 374.016 730.019 368.704C730.019 363.456 733.475 361.216 736.739 361.216C739.235 361.216 741.219 362.24 742.691 364.224V373.056C741.539 375.232 739.491 376.512 736.867 376.512ZM782.251 385.472L787.882 379.2L784.235 376V366.016C784.235 358.336 780.971 352.832 770.987 352.832C766.059 352.832 761.899 354.368 759.403 355.904V364.096C762.283 362.176 765.611 360.896 769.451 360.896C773.355 360.896 775.019 362.688 775.275 364.864L767.595 366.592C762.475 367.744 757.419 370.048 757.419 376.192C757.419 381.504 761.515 384.896 767.403 384.896C771.562 384.896 774.699 383.424 777.451 381.248L782.251 385.472ZM766.763 375.04C766.763 373.12 768.235 371.904 770.795 371.264L775.275 370.112V375.232C774.251 376.512 772.267 377.664 769.771 377.664C768.043 377.664 766.763 376.768 766.763 375.04ZM803.997 384.896C808.157 384.896 810.909 383.808 812.445 382.656V374.976C811.229 376 809.373 376.768 807.005 376.768C805.085 376.768 802.781 375.936 802.781 372.864V360.896H811.613V353.728H802.781V344.704H802.205L787.805 360.256V360.896H793.437V375.488C793.437 381.76 799.005 384.896 803.997 384.896ZM832.367 384.896C841.647 384.896 848.943 378.496 848.943 368.768C848.943 359.104 841.647 352.832 832.367 352.832C823.087 352.832 815.791 359.104 815.791 368.768C815.791 378.496 823.087 384.896 832.367 384.896ZM825.519 368.768C825.519 363.712 828.591 361.216 832.367 361.216C836.143 361.216 839.279 363.712 839.279 368.768C839.279 373.952 836.143 376.512 832.367 376.512C828.591 376.512 825.519 373.952 825.519 368.768ZM874.048 352.96C873.856 352.896 873.28 352.832 872.896 352.832C868.48 352.832 865.408 356.288 863.68 360.192V353.728H854.272V384H863.68V366.464C864.96 364.224 867.583 363.136 870.336 363.136H874.048V352.96Z" fill="black"/>
<path d="M945.864 350.336C955.336 350.336 959.24 355.328 959.24 362.112C959.24 368.96 955.272 374.464 946.312 374.464H939.976V350.336H945.864ZM929.736 384H946.248C963.656 384 969.928 372.928 969.928 362.112C969.928 351.296 963.656 340.8 946.248 340.8H929.736V384ZM995.61 352.96C995.418 352.896 994.842 352.832 994.458 352.832C990.042 352.832 986.97 356.288 985.242 360.192V353.728H975.834V384H985.242V366.464C986.522 364.224 989.146 363.136 991.898 363.136H995.61V352.96ZM1000.71 353.728V384H1010.12V353.728H1000.71ZM1005.45 338.496C1002.31 338.496 999.941 340.8 999.941 343.808C999.941 346.816 1002.31 349.312 1005.45 349.312C1008.52 349.312 1010.95 346.816 1010.95 343.808C1010.95 340.8 1008.52 338.496 1005.45 338.496ZM1013.37 353.728L1025.91 384H1033.34L1045.88 353.728H1035.9L1029.62 371.52L1023.35 353.728H1013.37ZM1063.1 360.704C1066.04 360.704 1067.9 363.264 1068.03 366.336H1057.08C1057.66 362.496 1059.71 360.704 1063.1 360.704ZM1064.31 384.896C1070.78 384.896 1074.3 383.296 1076.6 382.08V374.016C1074.04 375.488 1069.95 376.832 1065.72 376.832C1061.56 376.832 1058.04 375.68 1057.15 371.392H1076.73V368.192C1076.73 361.216 1073.98 352.832 1063.23 352.832C1053.63 352.832 1047.29 359.296 1047.29 369.28C1047.29 378.944 1054.33 384.896 1064.31 384.896ZM1102.36 352.96C1102.17 352.896 1101.59 352.832 1101.21 352.832C1096.79 352.832 1093.72 356.288 1091.99 360.192V353.728H1082.58V384H1091.99V366.464C1093.27 364.224 1095.9 363.136 1098.65 363.136H1102.36V352.96Z" fill="black"/>
<path d="M1288.5 149.155C1289.74 148.44 1291.26 148.44 1292.5 149.155L1361.68 189.095C1362.92 189.81 1363.68 191.13 1363.68 192.559V272.441C1363.68 273.87 1362.92 275.19 1361.68 275.905L1292.5 315.845C1291.26 316.56 1289.74 316.56 1288.5 315.845L1219.32 275.905C1218.08 275.19 1217.32 273.87 1217.32 272.441V192.559C1217.32 191.13 1218.08 189.81 1219.32 189.095L1288.5 149.155Z" fill="white" stroke="black" stroke-width="13" stroke-linejoin="round"/>
<path d="M1305.82 223.528C1305.82 231.306 1302.55 238.33 1297.29 243.336C1292.27 248.116 1285.44 251.056 1277.91 251.056C1262.5 251.056 1250 238.731 1250 223.528C1250 208.325 1262.5 196 1277.91 196C1293.32 196 1305.82 208.325 1305.82 223.528Z" fill="white"/>
<path d="M1297.29 243.336C1302.55 238.33 1305.82 231.306 1305.82 223.528C1305.82 208.325 1293.32 196 1277.91 196C1262.5 196 1250 208.325 1250 223.528C1250 238.731 1262.5 251.056 1277.91 251.056C1285.44 251.056 1292.27 248.116 1297.29 243.336ZM1297.29 243.336L1319 266" stroke="black" stroke-width="13" stroke-linecap="round"/>
<path d="M60.496 340.8H49.04L41.808 365.824L32.976 340.8H28.112L19.728 365.696L12.432 340.8H0.912L16.72 384.896H21.84L30.544 360.96L39.632 384.896H44.752L60.496 340.8ZM81.5475 352.96C81.3555 352.896 80.7795 352.832 80.3955 352.832C75.9795 352.832 72.9075 356.288 71.1795 360.192V353.728H61.7715V384H71.1795V366.464C72.4595 364.224 75.0835 363.136 77.8355 363.136H81.5475V352.96ZM86.6465 353.728V384H96.0545V353.728H86.6465ZM91.3825 338.496C88.2465 338.496 85.8785 340.8 85.8785 343.808C85.8785 346.816 88.2465 349.312 91.3825 349.312C94.4545 349.312 96.8865 346.816 96.8865 343.808C96.8865 340.8 94.4545 338.496 91.3825 338.496ZM115.497 384.896C119.657 384.896 122.409 383.808 123.945 382.656V374.976C122.729 376 120.873 376.768 118.505 376.768C116.585 376.768 114.281 375.936 114.281 372.864V360.896H123.113V353.728H114.281V344.704H113.705L99.305 360.256V360.896H104.937V375.488C104.937 381.76 110.505 384.896 115.497 384.896ZM143.099 360.704C146.043 360.704 147.899 363.264 148.027 366.336H137.083C137.659 362.496 139.707 360.704 143.099 360.704ZM144.315 384.896C150.779 384.896 154.299 383.296 156.603 382.08V374.016C154.043 375.488 149.947 376.832 145.723 376.832C141.562 376.832 138.043 375.68 137.147 371.392H156.731V368.192C156.731 361.216 153.979 352.832 143.227 352.832C133.627 352.832 127.291 359.296 127.291 369.28C127.291 378.944 134.331 384.896 144.315 384.896Z" fill="black"/>
<path d="M1226.28 375.296C1218.86 375.296 1214.06 369.472 1214.06 362.112C1214.06 354.88 1218.86 349.504 1226.28 349.504C1233.77 349.504 1238.57 354.88 1238.57 362.112C1238.57 369.472 1233.77 375.296 1226.28 375.296ZM1252.84 398.208V387.392C1244.65 387.072 1238.76 386.112 1234.41 383.808V383.68C1244.58 380.352 1249.26 370.88 1249.26 362.112C1249.26 351.296 1242.09 339.904 1226.28 339.904C1210.47 339.904 1203.3 351.296 1203.3 362.112C1203.3 371.136 1208.3 380.992 1219.18 384C1225.13 389.76 1235.75 396.992 1252.84 398.208ZM1284.78 384V353.728H1275.37V373.248C1274.09 375.424 1271.79 376.512 1269.42 376.512C1265.9 376.512 1264.23 374.784 1264.23 371.264V353.728H1254.83V373.12C1254.83 380.032 1258.22 384.896 1265.64 384.896C1269.8 384.896 1273 382.976 1275.37 380.416V384H1284.78ZM1305.91 360.704C1308.86 360.704 1310.71 363.264 1310.84 366.336H1299.9C1300.47 362.496 1302.52 360.704 1305.91 360.704ZM1307.13 384.896C1313.59 384.896 1317.11 383.296 1319.42 382.08V374.016C1316.86 375.488 1312.76 376.832 1308.54 376.832C1304.38 376.832 1300.86 375.68 1299.96 371.392H1319.54V368.192C1319.54 361.216 1316.79 352.832 1306.04 352.832C1296.44 352.832 1290.1 359.296 1290.1 369.28C1290.1 378.944 1297.14 384.896 1307.13 384.896ZM1345.17 352.96C1344.98 352.896 1344.4 352.832 1344.02 352.832C1339.6 352.832 1336.53 356.288 1334.8 360.192V353.728H1325.4V384H1334.8V366.464C1336.08 364.224 1338.71 363.136 1341.46 363.136H1345.17V352.96ZM1369.46 353.728L1363.18 372.736L1356.91 353.728H1346.99L1359.28 384.704L1358.83 386.048C1357.55 390.016 1355.18 391.36 1352.37 391.36C1350.51 391.36 1348.72 390.912 1347.38 390.208V398.784C1348.4 399.296 1350.32 399.872 1353.01 399.872C1359.22 399.872 1362.86 396.288 1365.55 389.44L1379.44 353.728H1369.46Z" fill="black"/>
</svg>
