<svg  height="92" viewBox="0 0 649 439" fill="none" xmlns="http://www.w3.org/2000/svg">
<path d="M7.23497 51.4346C6.55237 115.008 6.97042 271.337 13.8381 423.202C13.9337 425.315 15.5276 426.983 17.643 427.014C175.785 429.314 576.521 437.009 598.038 426.962C624.426 414.64 647.928 97.7193 640.663 87.1278C637.716 82.8305 619.901 82.1732 609.117 81.9688V74.2231C609.117 73.9323 609.147 73.6498 609.197 73.3633C609.584 71.1443 610.962 60.6334 604.091 52.714C596.529 43.998 304.569 47.4001 225.8 47.5441C223.291 47.5487 221.552 45.2535 221.575 42.7449C221.69 30.2101 213.958 16.941 208.787 12.3486C202.947 7.16256 60.2043 3.50278 51.7695 12.3486C43.9833 20.5141 39.1054 30.2863 36.9306 44.0296C36.6141 46.03 34.9187 47.5487 32.8934 47.5487H11.231C9.04086 47.5487 7.25848 49.2446 7.23497 51.4346Z" fill="white"/>
<path d="M47.2276 385.326C47.2276 356.802 81.2289 90.0034 91.9971 81.9688C101.834 74.6292 495.493 79.8152 609.117 81.9688M609.117 81.9688C619.901 82.1732 637.716 82.8305 640.663 87.1278C647.928 97.7193 624.426 414.64 598.038 426.962C576.521 437.009 175.785 429.314 17.643 427.014C15.5276 426.983 13.9337 425.315 13.8381 423.202C6.97042 271.337 6.55237 115.008 7.23497 51.4346C7.25848 49.2446 9.04086 47.5487 11.231 47.5487H32.8934C34.9187 47.5487 36.6141 46.03 36.9306 44.0296C39.1054 30.2863 43.9833 20.5141 51.7695 12.3486C60.2043 3.50278 202.947 7.16256 208.787 12.3486C213.958 16.941 221.69 30.2102 221.575 42.7449C221.552 45.2535 223.291 47.5487 225.8 47.5441C304.569 47.4001 596.529 43.998 604.091 52.714C610.962 60.6334 609.584 71.1443 609.197 73.3633C609.147 73.6498 609.117 73.9323 609.117 74.2231V81.9688Z" stroke="black" stroke-width="13" stroke-linecap="round" stroke-linejoin="round"/>
<path d="M144.045 190.411C143.884 210.7 144.076 254.367 145.935 297.344C146.026 299.458 147.736 301.13 149.852 301.16C197.389 301.828 282.773 302.682 289.586 301.106C298.331 299.083 319.185 218.164 314.256 214.821C312.959 213.941 303.952 213.415 291.401 213.176V210.211C291.401 210.064 291.408 209.921 291.424 209.774C291.662 207.558 293.577 188.991 291.401 186.463C289.244 183.958 241.193 186.121 217.41 186.428C214.904 186.461 213.036 184.157 212.852 181.658C212.557 177.646 210.886 173.233 205.871 172.302C196.789 170.616 167.241 170.517 161.735 172.302C157.466 173.685 156.358 178.596 155.814 182.933C155.562 184.944 153.893 186.463 151.866 186.463H148.036C145.845 186.463 144.062 188.22 144.045 190.411Z" fill="white"/>
<path d="M172.5 273.465C182.481 227.912 190.97 218.629 194.198 216.202C197.148 213.984 257.33 212.525 291.401 213.176M291.401 213.176C303.952 213.415 312.959 213.941 314.256 214.821C319.185 218.164 298.331 299.083 289.586 301.106C282.773 302.682 197.389 301.828 149.852 301.16C147.736 301.13 146.026 299.458 145.935 297.344C144.076 254.367 143.884 210.7 144.045 190.411C144.062 188.22 145.845 186.463 148.036 186.463H151.866C153.893 186.463 155.562 184.944 155.814 182.933C156.358 178.596 157.466 173.685 161.735 172.302C167.241 170.517 196.789 170.616 205.871 172.302C210.886 173.233 212.557 177.646 212.852 181.658C213.036 184.157 214.904 186.461 217.41 186.428C241.193 186.121 289.244 183.958 291.401 186.463C293.577 188.991 291.662 207.558 291.424 209.774C291.408 209.921 291.401 210.064 291.401 210.211V213.176Z" stroke="#0077D7" stroke-width="13" stroke-linecap="round" stroke-linejoin="round"/>
<path d="M416.552 353.36C414.568 351.76 409.704 349.904 403.496 349.904C386.28 349.904 379.304 361.232 379.304 371.984C379.304 382.864 386.28 394.896 403.56 394.896C409.384 394.896 415.144 393.232 417.64 391.12V380.56C415.272 382.992 409.512 385.296 404.712 385.296C394.856 385.296 390.056 379.152 390.056 371.984C390.056 365.008 394.664 359.504 403.944 359.504C407.528 359.504 413.096 361.232 416.552 363.984V353.36ZM447.188 395.472L452.82 389.2L449.172 386V376.016C449.172 368.336 445.908 362.832 435.924 362.832C430.996 362.832 426.836 364.368 424.34 365.904V374.096C427.22 372.176 430.548 370.896 434.388 370.896C438.292 370.896 439.956 372.688 440.212 374.864L432.532 376.592C427.412 377.744 422.356 380.048 422.356 386.192C422.356 391.504 426.452 394.896 432.34 394.896C436.5 394.896 439.636 393.424 442.388 391.248L447.188 395.472ZM431.7 385.04C431.7 383.12 433.172 381.904 435.732 381.264L440.212 380.112V385.232C439.188 386.512 437.204 387.664 434.708 387.664C432.98 387.664 431.7 386.768 431.7 385.04ZM471.047 394.896C476.679 394.896 479.751 392.784 481.415 391.44V382.544C479.175 384.592 475.783 386.448 472.519 386.448C468.807 386.448 464.519 384.912 464.519 379.024C464.519 373.904 467.591 371.28 472.199 371.28C475.271 371.28 477.959 372.304 480.967 374.608V365.456C478.343 363.856 475.271 362.832 471.367 362.832C460.615 362.832 454.791 369.68 454.791 379.152C454.791 388.56 461.639 394.896 471.047 394.896ZM487.272 349.648V394H496.68V374.352C497.896 372.368 500.135 371.216 502.696 371.216C506.024 371.216 507.816 373.456 507.816 378V394H517.224V375.184C517.224 367.632 513.832 362.832 506.088 362.832C502.056 362.832 498.92 364.88 496.68 367.632V349.648H487.272ZM538.036 370.704C540.98 370.704 542.836 373.264 542.964 376.336H532.02C532.596 372.496 534.644 370.704 538.036 370.704ZM539.252 394.896C545.716 394.896 549.236 393.296 551.54 392.08V384.016C548.98 385.488 544.884 386.832 540.66 386.832C536.5 386.832 532.98 385.68 532.084 381.392H551.668V378.192C551.668 371.216 548.916 362.832 538.164 362.832C528.564 362.832 522.228 369.296 522.228 379.28C522.228 388.944 529.268 394.896 539.252 394.896Z" fill="black"/>
<path d="M146.944 360.336C150.784 360.336 153.152 361.424 153.152 364.688C153.152 367.632 150.912 369.232 147.392 369.232H142.976V360.336H146.944ZM144.192 377.936C147.584 377.936 149.568 379.472 152.128 383.888L157.888 394H169.664L162.752 381.264C161.28 378.512 159.296 376.464 157.248 375.184C161.408 372.624 163.648 368.464 163.648 364.176C163.648 356.176 158.656 350.8 146.944 350.8H132.736V394H142.976V377.936H144.192ZM185.849 370.704C188.793 370.704 190.649 373.264 190.777 376.336H179.833C180.409 372.496 182.457 370.704 185.849 370.704ZM187.065 394.896C193.529 394.896 197.049 393.296 199.353 392.08V384.016C196.793 385.488 192.697 386.832 188.473 386.832C184.312 386.832 180.793 385.68 179.897 381.392H199.481V378.192C199.481 371.216 196.729 362.832 185.977 362.832C176.377 362.832 170.041 369.296 170.041 379.28C170.041 388.944 177.081 394.896 187.065 394.896ZM220.63 386.512C218.006 386.512 215.83 385.232 214.614 383.056V374.224C216.15 372.304 218.07 371.216 220.63 371.216C223.894 371.216 227.35 373.456 227.35 378.704C227.35 384.016 223.894 386.512 220.63 386.512ZM222.998 394.896C230.614 394.896 237.014 387.728 237.014 378.704C237.014 369.04 231.062 362.832 223.51 362.832C219.094 362.832 216.214 364.752 214.422 366.544L213.526 363.728H205.334V408.4H214.614V392.016C217.11 393.936 220.054 394.896 222.998 394.896ZM242.334 349.648V394H251.742V349.648H242.334ZM258.897 363.728V394H268.305V363.728H258.897ZM263.633 348.496C260.497 348.496 258.129 350.8 258.129 353.808C258.129 356.816 260.497 359.312 263.633 359.312C266.705 359.312 269.137 356.816 269.137 353.808C269.137 350.8 266.705 348.496 263.633 348.496ZM289.859 394.896C295.491 394.896 298.563 392.784 300.227 391.44V382.544C297.987 384.592 294.595 386.448 291.331 386.448C287.619 386.448 283.331 384.912 283.331 379.024C283.331 373.904 286.403 371.28 291.011 371.28C294.083 371.28 296.771 372.304 299.779 374.608V365.456C297.155 363.856 294.083 362.832 290.179 362.832C279.427 362.832 273.603 369.68 273.603 379.152C273.603 388.56 280.451 394.896 289.859 394.896ZM329.188 395.472L334.82 389.2L331.172 386V376.016C331.172 368.336 327.908 362.832 317.924 362.832C312.996 362.832 308.836 364.368 306.34 365.904V374.096C309.22 372.176 312.548 370.896 316.388 370.896C320.292 370.896 321.956 372.688 322.212 374.864L314.532 376.592C309.412 377.744 304.356 380.048 304.356 386.192C304.356 391.504 308.452 394.896 314.34 394.896C318.5 394.896 321.636 393.424 324.388 391.248L329.188 395.472ZM313.7 385.04C313.7 383.12 315.172 381.904 317.732 381.264L322.212 380.112V385.232C321.188 386.512 319.204 387.664 316.708 387.664C314.98 387.664 313.7 386.768 313.7 385.04Z" fill="#0077D7"/>
<path d="M404.688 268.327C393.677 240.72 370.685 178.601 373.203 175.082C375.8 171.453 414.32 158.056 418.112 159.3C431.095 163.559 449.027 172.724 459.491 183.031C462.931 186.42 482.769 243.248 480.977 246.354C479.282 249.293 425.961 268.631 408.339 270.645C406.726 270.83 405.29 269.835 404.688 268.327Z" fill="white"/>
<path d="M418.112 159.3C414.32 158.056 375.8 171.453 373.203 175.082C370.685 178.601 393.677 240.72 404.688 268.327C405.29 269.835 406.726 270.83 408.339 270.645C425.961 268.631 479.282 249.293 480.977 246.354C482.769 243.248 462.931 186.42 459.491 183.031M418.112 159.3C431.095 163.559 449.027 172.724 459.491 183.031M418.112 159.3C420.429 168.285 425.904 191.493 427.878 192.127C429.851 192.762 451.825 185.632 459.491 183.031" stroke="#05AD60" stroke-width="13" stroke-linecap="round" stroke-linejoin="round"/>
<path d="M467.451 232.286C471.026 202.78 480.633 137.242 484.53 135.362C488.549 133.422 528.777 140.136 531.508 143.046C540.859 153.008 552.201 169.649 556.441 183.711C557.835 188.335 547.996 247.716 544.934 249.583C542.038 251.349 485.974 242.753 469.543 236.071C468.039 235.459 467.256 233.897 467.451 232.286Z" fill="white"/>
<path d="M531.508 143.046C528.777 140.136 488.549 133.422 484.53 135.362C480.633 137.242 471.026 202.78 467.451 232.286C467.256 233.897 468.039 235.459 469.543 236.071C485.974 242.753 542.038 251.349 544.934 249.583C547.996 247.716 557.835 188.335 556.441 183.711M531.508 143.046C540.859 153.008 552.201 169.649 556.441 183.711M531.508 143.046C529.232 152.042 522.91 175.033 524.337 176.536C525.765 178.039 548.467 182.318 556.441 183.711" stroke="#05AD60" stroke-width="13" stroke-linecap="round" stroke-linejoin="round"/>
<path d="M458.153 282.606C476.471 259.2 518.587 208.075 522.895 208.481C527.338 208.9 558.296 235.449 559.129 239.352C561.98 252.715 563.082 272.823 559.439 287.052C558.241 291.73 519.111 337.466 515.525 337.481C512.132 337.494 468.593 301.143 457.986 286.927C457.015 285.626 457.152 283.884 458.153 282.606Z" fill="white"/>
<path d="M559.129 239.352C558.296 235.449 527.338 208.9 522.895 208.481C518.587 208.075 476.471 259.2 458.153 282.606C457.152 283.884 457.015 285.626 457.986 286.927C468.593 301.143 512.132 337.494 515.525 337.481C519.111 337.466 558.241 291.73 559.439 287.052M559.129 239.352C561.98 252.715 563.082 272.823 559.439 287.052M559.129 239.352C552.529 245.875 535.228 262.283 535.672 264.308C536.117 266.333 553.334 281.736 559.439 287.052" stroke="#05AD60" stroke-width="13" stroke-linecap="round" stroke-linejoin="round"/>
</svg>
