<svg width="1290" height="408" viewBox="0 0 1290 408" fill="none" xmlns="http://www.w3.org/2000/svg">
<path d="M129 187.231C152.502 184.605 181.459 186.137 193 187.231M193 187.231L172 158M193 187.231L172 213" stroke="black" stroke-width="13" stroke-linecap="round" stroke-linejoin="round"/>
<path d="M1073 184.231C1096.5 181.605 1125.46 183.137 1137 184.231M1137 184.231L1116 155M1137 184.231L1116 210" stroke="black" stroke-width="13" stroke-linecap="round" stroke-linejoin="round"/>
<path d="M228.171 42.1978C227.661 91.6874 228.008 211.023 233.231 327.156C233.326 329.27 234.826 330.937 236.941 330.967C362.684 332.753 848.449 338.652 865 330.917C885.335 321.413 903.446 76.9718 897.848 68.8026C895.576 65.4881 881.848 64.9811 873.537 64.8234V58.9489C873.537 58.6583 873.569 58.3698 873.617 58.0831C873.935 56.1713 874.86 48.253 869.664 42.2592C863.86 35.5632 467.867 38.14 397.659 38.2702C395.151 38.2749 393.432 35.9725 393.339 33.4657C392.993 24.1338 387.333 14.5329 383.5 11.1254C379 7.12538 269 4.3026 262.5 11.1254C256.652 17.2637 252.933 24.5792 251.197 34.7602C250.856 36.7568 249.165 38.2752 247.139 38.2752H232.167C229.977 38.2752 228.194 40.0078 228.171 42.1978Z" fill="white"/>
<path d="M259 298.803C259 276.803 285.202 71.0206 293.5 64.8234C301.08 59.1625 785.977 63.1624 873.537 64.8234M873.537 64.8234C881.848 64.9811 895.576 65.4881 897.848 68.8026C903.446 76.9718 885.335 321.413 865 330.917C848.449 338.652 362.684 332.753 236.941 330.967C234.826 330.937 233.326 329.27 233.231 327.156C228.008 211.023 227.661 91.6874 228.171 42.1978C228.194 40.0078 229.977 38.2752 232.167 38.2752H247.139C249.165 38.2752 250.856 36.7568 251.197 34.7602C252.933 24.5792 256.652 17.2637 262.5 11.1254C269 4.3026 379 7.12538 383.5 11.1254C387.333 14.5329 392.993 24.1338 393.339 33.4657C393.432 35.9724 395.151 38.2749 397.659 38.2702C467.867 38.14 863.86 35.5632 869.664 42.2592C874.86 48.253 873.935 56.1713 873.617 58.0831C873.569 58.3698 873.537 58.6583 873.537 58.9489V64.8234Z" stroke="#0077D7" stroke-width="13" stroke-linecap="round" stroke-linejoin="round"/>
<path d="M363.417 175.733C362.224 152.57 360.873 102.385 363.56 100.456C366.355 98.4499 397.798 98.2115 400.258 100.059C408.682 106.385 419.504 117.519 424.59 127.636C426.262 130.963 426.667 177.367 424.59 179.191C422.653 180.892 380.178 181.799 366.147 179.056C364.553 178.745 363.5 177.355 363.417 175.733Z" fill="white"/>
<path d="M400.258 100.059C397.798 98.2115 366.355 98.4499 363.56 100.456C360.873 102.385 362.224 152.57 363.417 175.733C363.5 177.355 364.553 178.745 366.147 179.056C380.178 181.799 422.653 180.892 424.59 179.191C426.667 177.367 426.262 130.963 424.59 127.636M400.258 100.059C408.682 106.385 419.504 117.519 424.59 127.636M400.258 100.059C399.723 107.194 397.972 125.494 399.255 126.446C400.539 127.398 418.348 127.636 424.59 127.636" stroke="#05AD60" stroke-width="13" stroke-linecap="round" stroke-linejoin="round"/>
<path d="M341.417 205.733C340.224 182.57 338.873 132.385 341.56 130.456C344.355 128.45 375.798 128.211 378.258 130.059C386.682 136.385 397.504 147.519 402.59 157.636C404.262 160.963 404.667 207.367 402.59 209.191C400.653 210.892 358.178 211.799 344.147 209.056C342.553 208.745 341.5 207.355 341.417 205.733Z" fill="white"/>
<path d="M378.258 130.059C375.798 128.211 344.355 128.45 341.56 130.456C338.873 132.385 340.224 182.57 341.417 205.733C341.5 207.355 342.553 208.745 344.147 209.056C358.178 211.799 400.653 210.892 402.59 209.191C404.667 207.367 404.262 160.963 402.59 157.636M378.258 130.059C386.682 136.385 397.504 147.519 402.59 157.636M378.258 130.059C377.723 137.194 375.972 155.494 377.255 156.446C378.539 157.398 396.348 157.636 402.59 157.636" stroke="#05AD60" stroke-width="13" stroke-linecap="round" stroke-linejoin="round"/>
<path d="M319.417 235.733C318.224 212.57 316.873 162.385 319.56 160.456C322.355 158.45 353.798 158.211 356.258 160.059C364.682 166.385 375.504 177.519 380.59 187.636C382.262 190.963 382.667 237.367 380.59 239.191C378.653 240.892 336.178 241.799 322.147 239.056C320.553 238.745 319.5 237.355 319.417 235.733Z" fill="white"/>
<path d="M356.258 160.059C353.798 158.211 322.355 158.45 319.56 160.456C316.873 162.385 318.224 212.57 319.417 235.733C319.5 237.355 320.553 238.745 322.147 239.056C336.178 241.799 378.653 240.892 380.59 239.191C382.667 237.367 382.262 190.963 380.59 187.636M356.258 160.059C364.682 166.385 375.504 177.519 380.59 187.636M356.258 160.059C355.723 167.194 353.972 185.494 355.255 186.446C356.539 187.398 374.348 187.636 380.59 187.636" stroke="#05AD60" stroke-width="13" stroke-linecap="round" stroke-linejoin="round"/>
<path d="M1220.42 180.931C1219.22 157.767 1217.87 107.582 1220.56 105.653C1223.36 103.647 1254.8 103.409 1257.26 105.257C1265.68 111.582 1276.5 122.716 1281.59 132.834C1283.26 136.16 1283.67 182.564 1281.59 184.389C1279.65 186.089 1237.18 186.997 1223.15 184.254C1221.55 183.942 1220.5 182.552 1220.42 180.931Z" fill="white"/>
<path d="M1257.26 105.257C1254.8 103.409 1223.36 103.647 1220.56 105.653C1217.87 107.582 1219.22 157.767 1220.42 180.931C1220.5 182.552 1221.55 183.942 1223.15 184.254C1237.18 186.997 1279.65 186.089 1281.59 184.389C1283.67 182.564 1283.26 136.16 1281.59 132.834M1257.26 105.257C1265.68 111.582 1276.5 122.716 1281.59 132.834M1257.26 105.257C1256.72 112.391 1254.97 130.691 1256.26 131.643C1257.54 132.596 1275.35 132.834 1281.59 132.834" stroke="#05AD60" stroke-width="13" stroke-linecap="round" stroke-linejoin="round"/>
<path d="M1198.42 210.931C1197.22 187.767 1195.87 137.582 1198.56 135.653C1201.36 133.647 1232.8 133.409 1235.26 135.257C1243.68 141.582 1254.5 152.716 1259.59 162.834C1261.26 166.16 1261.67 212.564 1259.59 214.389C1257.65 216.089 1215.18 216.997 1201.15 214.254C1199.55 213.942 1198.5 212.552 1198.42 210.931Z" fill="white"/>
<path d="M1235.26 135.257C1232.8 133.409 1201.36 133.647 1198.56 135.653C1195.87 137.582 1197.22 187.767 1198.42 210.931C1198.5 212.552 1199.55 213.942 1201.15 214.254C1215.18 216.997 1257.65 216.089 1259.59 214.389C1261.67 212.564 1261.26 166.16 1259.59 162.834M1235.26 135.257C1243.68 141.582 1254.5 152.716 1259.59 162.834M1235.26 135.257C1234.72 142.391 1232.97 160.691 1234.26 161.643C1235.54 162.596 1253.35 162.834 1259.59 162.834" stroke="#05AD60" stroke-width="13" stroke-linecap="round" stroke-linejoin="round"/>
<path d="M1176.42 240.931C1175.22 217.767 1173.87 167.582 1176.56 165.653C1179.36 163.647 1210.8 163.409 1213.26 165.257C1221.68 171.582 1232.5 182.716 1237.59 192.834C1239.26 196.16 1239.67 242.564 1237.59 244.389C1235.65 246.089 1193.18 246.997 1179.15 244.254C1177.55 243.942 1176.5 242.552 1176.42 240.931Z" fill="white"/>
<path d="M1213.26 165.257C1210.8 163.409 1179.36 163.647 1176.56 165.653C1173.87 167.582 1175.22 217.767 1176.42 240.931C1176.5 242.552 1177.55 243.942 1179.15 244.254C1193.18 246.997 1235.65 246.089 1237.59 244.389C1239.67 242.564 1239.26 196.16 1237.59 192.834M1213.26 165.257C1221.68 171.582 1232.5 182.716 1237.59 192.834M1213.26 165.257C1212.72 172.391 1210.97 190.691 1212.26 191.643C1213.54 192.596 1231.35 192.834 1237.59 192.834" stroke="#05AD60" stroke-width="13" stroke-linecap="round" stroke-linejoin="round"/>
<path d="M103 147.597C103 171.784 83.5244 191.391 59.5 191.391C57.4119 191.391 55.3581 191.243 53.3485 190.957C32.2372 187.948 16 169.682 16 147.597C16 123.41 35.4756 103.803 59.5 103.803C83.5244 103.803 103 123.41 103 147.597Z" fill="white"/>
<path d="M53.3485 190.957C55.3581 191.243 57.4119 191.391 59.5 191.391C83.5244 191.391 103 171.784 103 147.597C103 123.41 83.5244 103.803 59.5 103.803C35.4756 103.803 16 123.41 16 147.597C16 169.682 32.2372 187.948 53.3485 190.957ZM53.3485 190.957V221.915M81.0303 245.803H54.3485C53.7962 245.803 53.3485 245.355 53.3485 244.803V221.915M53.3485 221.915H81.0303" stroke="#FF9B3E" stroke-width="13" stroke-linecap="round"/>
<path d="M49 131.803V139.803" stroke="#FF9B3E" stroke-width="13" stroke-linecap="round" stroke-linejoin="round"/>
<path d="M68 131.803V139.803" stroke="#FF9B3E" stroke-width="13" stroke-linecap="round" stroke-linejoin="round"/>
<path d="M44 157.803C47 162.303 54.5 170.303 59.5 170.803C64.5 171.303 71.3333 163.303 74.5 158.303" stroke="#FF9B3E" stroke-width="13" stroke-linecap="round" stroke-linejoin="round"/>
<path d="M761.538 206.803C759.323 186.973 760.615 162.54 761.538 152.803M761.538 152.803L747 164.311M761.538 152.803L774 164.311" stroke="black" stroke-width="13" stroke-linecap="round" stroke-linejoin="round"/>
<path d="M798.462 152.803C800.677 172.632 799.385 197.065 798.462 206.803M798.462 206.803L813 195.294M798.462 206.803L786 195.294" stroke="black" stroke-width="13" stroke-linecap="round" stroke-linejoin="round"/>
<circle cx="779.5" cy="180.303" r="61" stroke="black" stroke-width="13"/>
<path d="M661.01 130.863C657.024 127.598 482.035 128.687 479.245 130.863C476.454 133.039 476.056 241.493 479.245 244.032C482.434 246.571 657.024 246.208 661.01 244.032C664.997 241.855 664.997 134.127 661.01 130.863Z" stroke="black" stroke-width="13" stroke-linecap="round" stroke-linejoin="round"/>
<path d="M540.417 170.733C539.224 147.57 537.873 97.3845 540.56 95.456C543.355 93.4499 574.798 93.2115 577.258 95.0593C585.682 101.385 596.504 112.519 601.59 122.636C603.262 125.963 603.667 172.367 601.59 174.191C599.653 175.892 557.178 176.799 543.147 174.056C541.553 173.745 540.5 172.355 540.417 170.733Z" fill="white"/>
<path d="M577.258 95.0593C574.798 93.2115 543.355 93.4499 540.56 95.456C537.873 97.3845 539.224 147.57 540.417 170.733C540.5 172.355 541.553 173.745 543.147 174.056C557.178 176.799 599.653 175.892 601.59 174.191C603.667 172.367 603.262 125.963 601.59 122.636M577.258 95.0593C585.682 101.385 596.504 112.519 601.59 122.636M577.258 95.0593C576.723 102.194 574.972 120.494 576.255 121.446C577.539 122.398 595.348 122.636 601.59 122.636" stroke="#05AD60" stroke-width="13" stroke-linecap="round" stroke-linejoin="round"/>
<path d="M504.5 176.303C554.5 175.503 615.667 175.969 640 176.303" stroke="black" stroke-width="13" stroke-linecap="round" stroke-linejoin="round"/>
<path d="M587 198.803L612 219.803" stroke="black" stroke-width="13" stroke-linecap="round" stroke-linejoin="round"/>
<path d="M612 198.803L587 219.803" stroke="black" stroke-width="13" stroke-linecap="round" stroke-linejoin="round"/>
<path d="M530 213.303L537.806 220.09C539.715 221.75 542.665 221.244 543.912 219.042L556.5 196.803" stroke="black" stroke-width="13" stroke-linecap="round" stroke-linejoin="round"/>
<path d="M323.648 271.555C330.752 271.555 333.68 275.299 333.68 280.387C333.68 285.523 330.704 289.651 323.984 289.651H319.232V271.555H323.648ZM311.552 296.803H323.936C336.992 296.803 341.696 288.499 341.696 280.387C341.696 272.275 336.992 264.403 323.936 264.403H311.552V296.803ZM357.166 297.475C364.126 297.475 369.598 292.675 369.598 285.379C369.598 278.131 364.126 273.427 357.166 273.427C350.206 273.427 344.734 278.131 344.734 285.379C344.734 292.675 350.206 297.475 357.166 297.475ZM352.03 285.379C352.03 281.587 354.334 279.715 357.166 279.715C359.998 279.715 362.35 281.587 362.35 285.379C362.35 289.267 359.998 291.187 357.166 291.187C354.334 291.187 352.03 289.267 352.03 285.379ZM384.394 297.475C388.618 297.475 390.922 295.891 392.17 294.883V288.211C390.49 289.747 387.946 291.139 385.498 291.139C382.714 291.139 379.498 289.987 379.498 285.571C379.498 281.731 381.802 279.763 385.258 279.763C387.562 279.763 389.578 280.531 391.834 282.259V275.395C389.866 274.195 387.562 273.427 384.634 273.427C376.57 273.427 372.202 278.563 372.202 285.667C372.202 292.723 377.338 297.475 384.394 297.475ZM403.907 297.475C408.851 297.475 413.171 295.267 413.171 290.275C413.171 282.595 402.803 283.507 402.803 280.723C402.803 279.859 403.571 279.379 405.299 279.379C406.787 279.379 409.475 280.051 411.779 281.635V274.867C410.243 274.099 407.363 273.427 404.915 273.427C399.491 273.427 395.603 276.211 395.603 280.819C395.603 288.643 405.971 287.971 405.971 290.563C405.971 291.523 405.107 291.955 403.667 291.955C401.027 291.955 397.763 290.515 395.843 288.835V295.171C397.091 296.227 400.403 297.475 403.907 297.475Z" fill="#05AD60"/>
<path d="M503.144 264.403H494.552L487.688 284.803L480.824 264.403H472.184L485.336 297.475H490.04L503.144 264.403ZM521.422 297.907L525.646 293.203L522.91 290.803V283.315C522.91 277.555 520.462 273.427 512.974 273.427C509.278 273.427 506.158 274.579 504.286 275.731V281.875C506.446 280.435 508.942 279.475 511.822 279.475C514.75 279.475 515.998 280.819 516.19 282.451L510.43 283.747C506.59 284.611 502.798 286.339 502.798 290.947C502.798 294.931 505.87 297.475 510.286 297.475C513.406 297.475 515.758 296.371 517.822 294.739L521.422 297.907ZM509.806 290.083C509.806 288.643 510.91 287.731 512.83 287.251L516.19 286.387V290.227C515.422 291.187 513.934 292.051 512.062 292.051C510.766 292.051 509.806 291.379 509.806 290.083ZM528.516 263.539V296.803H535.572V263.539H528.516ZM540.938 274.099V296.803H547.994V274.099H540.938ZM544.49 262.675C542.138 262.675 540.362 264.403 540.362 266.659C540.362 268.915 542.138 270.787 544.49 270.787C546.794 270.787 548.618 268.915 548.618 266.659C548.618 264.403 546.794 262.675 544.49 262.675ZM575.728 263.539H568.768V275.875C567.904 274.915 565.504 273.427 562.288 273.427C556.336 273.427 551.968 278.083 551.968 285.331C551.968 292.963 556.96 297.475 562.528 297.475C565.12 297.475 567.232 296.659 569.056 295.171L569.584 296.803H575.728V263.539ZM564.4 291.187C561.616 291.187 559.264 289.315 559.264 285.331C559.264 281.395 561.856 279.715 564.304 279.715C566.176 279.715 567.664 280.483 568.768 281.971V288.595C567.904 290.227 566.368 291.187 564.4 291.187ZM598.438 297.907L602.662 293.203L599.926 290.803V283.315C599.926 277.555 597.478 273.427 589.99 273.427C586.294 273.427 583.174 274.579 581.302 275.731V281.875C583.462 280.435 585.958 279.475 588.838 279.475C591.766 279.475 593.014 280.819 593.206 282.451L587.446 283.747C583.606 284.611 579.814 286.339 579.814 290.947C579.814 294.931 582.886 297.475 587.302 297.475C590.422 297.475 592.774 296.371 594.838 294.739L598.438 297.907ZM586.822 290.083C586.822 288.643 587.926 287.731 589.846 287.251L593.206 286.387V290.227C592.438 291.187 590.95 292.051 589.078 292.051C587.782 292.051 586.822 291.379 586.822 290.083ZM614.748 297.475C617.868 297.475 619.932 296.659 621.084 295.795V290.035C620.172 290.803 618.78 291.379 617.004 291.379C615.564 291.379 613.836 290.755 613.836 288.451V279.475H620.46V274.099H613.836V267.331H613.404L602.604 278.995V279.475H606.828V290.419C606.828 295.123 611.004 297.475 614.748 297.475ZM636.025 297.475C642.985 297.475 648.457 292.675 648.457 285.379C648.457 278.131 642.985 273.427 636.025 273.427C629.065 273.427 623.593 278.131 623.593 285.379C623.593 292.675 629.065 297.475 636.025 297.475ZM630.889 285.379C630.889 281.587 633.193 279.715 636.025 279.715C638.857 279.715 641.209 281.587 641.209 285.379C641.209 289.267 638.857 291.187 636.025 291.187C633.193 291.187 630.889 289.267 630.889 285.379ZM667.286 273.523C667.142 273.475 666.71 273.427 666.422 273.427C663.11 273.427 660.806 276.019 659.51 278.947V274.099H652.454V296.803H659.51V283.651C660.47 281.971 662.438 281.155 664.502 281.155H667.286V273.523Z" fill="black"/>
<path d="M727.648 271.555C734.752 271.555 737.68 275.299 737.68 280.387C737.68 285.523 734.704 289.651 727.984 289.651H723.232V271.555H727.648ZM715.552 296.803H727.936C740.992 296.803 745.696 288.499 745.696 280.387C745.696 272.275 740.992 264.403 727.936 264.403H715.552V296.803ZM764.958 273.523C764.814 273.475 764.382 273.427 764.094 273.427C760.782 273.427 758.478 276.019 757.182 278.947V274.099H750.126V296.803H757.182V283.651C758.142 281.971 760.109 281.155 762.174 281.155H764.958V273.523ZM768.782 274.099V296.803H775.838V274.099H768.782ZM772.334 262.675C769.982 262.675 768.206 264.403 768.206 266.659C768.206 268.915 769.982 270.787 772.334 270.787C774.638 270.787 776.462 268.915 776.462 266.659C776.462 264.403 774.638 262.675 772.334 262.675ZM778.276 274.099L787.684 296.803H793.252L802.66 274.099H795.172L790.468 287.443L785.764 274.099H778.276ZM815.574 279.331C817.782 279.331 819.174 281.251 819.27 283.555H811.062C811.494 280.675 813.03 279.331 815.574 279.331ZM816.486 297.475C821.334 297.475 823.974 296.275 825.702 295.363V289.315C823.782 290.419 820.71 291.427 817.542 291.427C814.422 291.427 811.782 290.563 811.11 287.347H825.798V284.947C825.798 279.715 823.734 273.427 815.67 273.427C808.47 273.427 803.718 278.275 803.718 285.763C803.718 293.011 808.998 297.475 816.486 297.475ZM845.02 273.523C844.876 273.475 844.444 273.427 844.156 273.427C840.844 273.427 838.54 276.019 837.244 278.947V274.099H830.188V296.803H837.244V283.651C838.204 281.971 840.172 281.155 842.236 281.155H845.02V273.523Z" fill="black"/>
<path d="M507.208 370.555C510.088 370.555 511.864 371.371 511.864 373.819C511.864 376.027 510.184 377.227 507.544 377.227H504.232V370.555H507.208ZM505.144 383.755C507.688 383.755 509.176 384.907 511.096 388.219L515.416 395.803H524.248L519.064 386.251C517.96 384.187 516.472 382.651 514.936 381.691C518.056 379.771 519.736 376.651 519.736 373.435C519.736 367.435 515.992 363.403 507.208 363.403H496.552V395.803H504.232V383.755H505.144ZM536.386 378.331C538.594 378.331 539.986 380.251 540.082 382.555H531.874C532.306 379.675 533.842 378.331 536.386 378.331ZM537.298 396.475C542.146 396.475 544.786 395.275 546.514 394.363V388.315C544.594 389.419 541.522 390.427 538.354 390.427C535.234 390.427 532.594 389.563 531.922 386.347H546.61V383.947C546.61 378.715 544.546 372.427 536.482 372.427C529.282 372.427 524.53 377.275 524.53 384.763C524.53 392.011 529.81 396.475 537.298 396.475ZM562.473 390.187C560.505 390.187 558.873 389.227 557.961 387.595V380.971C559.113 379.531 560.553 378.715 562.473 378.715C564.921 378.715 567.513 380.395 567.513 384.331C567.513 388.315 564.921 390.187 562.473 390.187ZM564.249 396.475C569.961 396.475 574.76 391.099 574.76 384.331C574.76 377.083 570.297 372.427 564.633 372.427C561.321 372.427 559.161 373.867 557.817 375.211L557.145 373.099H551.001V406.603H557.961V394.315C559.833 395.755 562.041 396.475 564.249 396.475ZM578.751 362.539V395.803H585.807V362.539H578.751ZM591.172 373.099V395.803H598.228V373.099H591.172ZM594.724 361.675C592.372 361.675 590.596 363.403 590.596 365.659C590.596 367.915 592.372 369.787 594.724 369.787C597.028 369.787 598.852 367.915 598.852 365.659C598.852 363.403 597.028 361.675 594.724 361.675ZM614.394 396.475C618.618 396.475 620.922 394.891 622.17 393.883V387.211C620.49 388.747 617.946 390.139 615.498 390.139C612.714 390.139 609.498 388.987 609.498 384.571C609.498 380.731 611.802 378.763 615.258 378.763C617.562 378.763 619.578 379.531 621.834 381.259V374.395C619.866 373.195 617.562 372.427 614.634 372.427C606.57 372.427 602.202 377.563 602.202 384.667C602.202 391.723 607.338 396.475 614.394 396.475ZM643.891 396.907L648.115 392.203L645.379 389.803V382.315C645.379 376.555 642.931 372.427 635.443 372.427C631.747 372.427 628.627 373.579 626.755 374.731V380.875C628.915 379.435 631.411 378.475 634.291 378.475C637.219 378.475 638.467 379.819 638.659 381.451L632.899 382.747C629.059 383.611 625.267 385.339 625.267 389.947C625.267 393.931 628.339 396.475 632.755 396.475C635.875 396.475 638.227 395.371 640.291 393.739L643.891 396.907ZM632.275 389.083C632.275 387.643 633.379 386.731 635.299 386.251L638.659 385.387V389.227C637.891 390.187 636.403 391.051 634.531 391.051C633.235 391.051 632.275 390.379 632.275 389.083Z" fill="#0B71C3"/>
<path d="M992 117.155C993.238 116.44 994.762 116.44 996 117.155L1048.29 147.345C1049.53 148.06 1050.29 149.38 1050.29 150.809V211.191C1050.29 212.62 1049.53 213.94 1048.29 214.655L996 244.845C994.762 245.56 993.238 245.56 992 244.845L939.708 214.655C938.471 213.94 937.708 212.62 937.708 211.191V150.809C937.708 149.38 938.471 148.06 939.708 147.345L992 117.155Z" fill="white" stroke="black" stroke-width="13" stroke-linejoin="round"/>
<path d="M1006 174.057C1006 179.999 1003.47 185.366 999.39 189.191C995.499 192.843 990.203 195.089 984.367 195.089C972.42 195.089 962.734 185.673 962.734 174.057C962.734 162.442 972.42 153.025 984.367 153.025C996.315 153.025 1006 162.442 1006 174.057Z" fill="white"/>
<path d="M999.39 189.191C1003.47 185.366 1006 179.999 1006 174.057C1006 162.442 996.315 153.025 984.367 153.025C972.42 153.025 962.734 162.442 962.734 174.057C962.734 185.673 972.42 195.089 984.367 195.089C990.203 195.089 995.499 192.843 999.39 189.191ZM999.39 189.191L1016.22 206.506" stroke="black" stroke-width="13" stroke-linecap="round"/>
<path d="M44.872 264.6H36.28L30.856 283.368L24.232 264.6H20.584L14.296 283.272L8.824 264.6H0.184L12.04 297.672H15.88L22.408 279.72L29.224 297.672H33.064L44.872 264.6ZM60.6606 273.72C60.5166 273.672 60.0846 273.624 59.7966 273.624C56.4846 273.624 54.1806 276.216 52.8846 279.144V274.296H45.8286V297H52.8846V283.848C53.8446 282.168 55.8126 281.352 57.8766 281.352H60.6606V273.72ZM64.4849 274.296V297H71.5409V274.296H64.4849ZM68.0369 262.872C65.6849 262.872 63.9089 264.6 63.9089 266.856C63.9089 269.112 65.6849 270.984 68.0369 270.984C70.3409 270.984 72.1649 269.112 72.1649 266.856C72.1649 264.6 70.3409 262.872 68.0369 262.872ZM86.1228 297.672C89.2428 297.672 91.3068 296.856 92.4588 295.992V290.232C91.5468 291 90.1548 291.576 88.3788 291.576C86.9388 291.576 85.2108 290.952 85.2108 288.648V279.672H91.8348V274.296H85.2108V267.528H84.7788L73.9787 279.192V279.672H78.2028V290.616C78.2028 295.32 82.3788 297.672 86.1228 297.672ZM106.824 279.528C109.032 279.528 110.424 281.448 110.52 283.752H102.312C102.744 280.872 104.28 279.528 106.824 279.528ZM107.736 297.672C112.584 297.672 115.224 296.472 116.952 295.56V289.512C115.032 290.616 111.96 291.624 108.792 291.624C105.672 291.624 103.032 290.76 102.36 287.544H117.048V285.144C117.048 279.912 114.984 273.624 106.92 273.624C99.7199 273.624 94.9679 278.472 94.9679 285.96C94.9679 293.208 100.248 297.672 107.736 297.672Z" fill="black"/>
<path d="M943.96 290.472C938.392 290.472 934.792 286.104 934.792 280.584C934.792 275.16 938.392 271.128 943.96 271.128C949.576 271.128 953.176 275.16 953.176 280.584C953.176 286.104 949.576 290.472 943.96 290.472ZM963.88 307.656V299.544C957.736 299.304 953.32 298.584 950.056 296.856V296.76C957.688 294.264 961.192 287.16 961.192 280.584C961.192 272.472 955.816 263.928 943.96 263.928C932.104 263.928 926.728 272.472 926.728 280.584C926.728 287.352 930.472 294.744 938.632 297C943.096 301.32 951.064 306.744 963.88 307.656ZM987.834 297V274.296H980.778V288.936C979.818 290.568 978.09 291.384 976.314 291.384C973.674 291.384 972.426 290.088 972.426 287.448V274.296H965.37V288.84C965.37 294.024 967.914 297.672 973.482 297.672C976.602 297.672 979.002 296.232 980.778 294.312V297H987.834ZM1003.68 279.528C1005.89 279.528 1007.28 281.448 1007.38 283.752H999.171C999.603 280.872 1001.14 279.528 1003.68 279.528ZM1004.6 297.672C1009.44 297.672 1012.08 296.472 1013.81 295.56V289.512C1011.89 290.616 1008.82 291.624 1005.65 291.624C1002.53 291.624 999.891 290.76 999.219 287.544H1013.91V285.144C1013.91 279.912 1011.84 273.624 1003.78 273.624C996.579 273.624 991.827 278.472 991.827 285.96C991.827 293.208 997.107 297.672 1004.6 297.672ZM1033.13 273.72C1032.99 273.672 1032.55 273.624 1032.27 273.624C1028.95 273.624 1026.65 276.216 1025.35 279.144V274.296H1018.3V297H1025.35V283.848C1026.31 282.168 1028.28 281.352 1030.35 281.352H1033.13V273.72ZM1051.34 274.296L1046.64 288.552L1041.93 274.296H1034.49L1043.71 297.528L1043.37 298.536C1042.41 301.512 1040.64 302.52 1038.53 302.52C1037.13 302.52 1035.79 302.184 1034.78 301.656V308.088C1035.55 308.472 1036.99 308.904 1039.01 308.904C1043.66 308.904 1046.4 306.216 1048.41 301.08L1058.83 274.296H1051.34Z" fill="black"/>
</svg>
