<svg height="92" viewBox="0 0 572 439" fill="none" xmlns="http://www.w3.org/2000/svg">
<path d="M168.879 232.191C167.322 202.341 165.507 135.697 169.023 133.158C172.648 130.54 213.425 130.229 216.616 132.64C227.54 140.894 241.575 155.422 248.171 168.624C250.34 172.965 250.866 233.517 248.171 235.898C245.622 238.15 188.911 239.336 171.584 235.557C170 235.212 168.963 233.81 168.879 232.191Z" fill="white"/>
<path d="M216.616 132.64C213.425 130.229 172.648 130.54 169.023 133.158C165.507 135.697 167.322 202.341 168.879 232.191C168.963 233.81 170 235.212 171.584 235.557C188.911 239.336 245.622 238.15 248.171 235.898C250.866 233.517 250.34 172.965 248.171 168.624M216.616 132.64C227.54 140.894 241.575 155.422 248.171 168.624M216.616 132.64C215.923 141.949 213.651 165.829 215.316 167.071C216.98 168.314 240.077 168.624 248.171 168.624" stroke="#05AD60" stroke-width="13" stroke-linecap="round" stroke-linejoin="round"/>
<path d="M47.2394 385.326C47.2394 356.802 81.2506 90.0034 92.0219 81.9688C101.861 74.6292 418.45 79.8152 532.107 81.9688M532.107 81.9688C542.894 82.1732 560.715 82.8305 563.663 87.1278C570.93 97.7193 547.421 414.64 521.025 426.962C499.504 437.008 174.724 429.316 17.6849 427.015C15.5696 426.984 13.9357 425.315 13.8401 423.202C6.97041 271.337 6.55224 115.008 7.23504 51.4346C7.25856 49.2446 9.04093 47.5487 11.2311 47.5487H32.9021C34.9274 47.5487 36.6227 46.0301 36.9394 44.0297C39.1147 30.2864 43.9941 20.5142 51.7825 12.3486C60.2198 3.50278 203.005 7.16256 208.846 12.3486C214.018 16.941 221.753 30.21 221.638 42.7446C221.615 45.2533 223.406 47.5487 225.915 47.5438C301.79 47.3957 519.521 44.0037 527.08 52.714C533.953 60.6333 532.575 71.1439 532.188 73.3632C532.138 73.6498 532.107 73.9323 532.107 74.2232V81.9688Z" stroke="#0077D7" stroke-width="13" stroke-linecap="round" stroke-linejoin="round" stroke-dasharray="26 26"/>
<circle cx="291.5" cy="252.5" r="81" fill="white" stroke="black" stroke-width="13"/>
<path d="M268.491 286.886C265.617 261.167 267.294 229.476 268.491 216.846M268.491 216.846L249.634 231.773M268.491 216.846L284.654 231.773" stroke="black" stroke-width="13" stroke-linecap="round" stroke-linejoin="round"/>
<path d="M316.381 216.846C319.255 242.566 317.579 274.256 316.381 286.886M316.381 286.886L335.238 271.96M316.381 286.886L300.218 271.96" stroke="black" stroke-width="13" stroke-linecap="round" stroke-linejoin="round"/>
<path d="M357.877 364.212C356.321 334.625 354.509 268.652 358.023 266.137C361.648 263.544 402.425 263.236 405.616 265.624C416.54 273.802 430.575 288.194 437.171 301.273C439.34 305.573 439.866 365.559 437.171 367.917C434.622 370.148 377.93 371.323 360.593 367.582C359.005 367.239 357.963 365.834 357.877 364.212Z" fill="white"/>
<path d="M405.616 265.624C402.425 263.236 361.648 263.544 358.023 266.137C354.509 268.652 356.321 334.625 357.877 364.212C357.963 365.834 359.005 367.239 360.593 367.582C377.93 371.323 434.622 370.148 437.171 367.917C439.866 365.559 439.34 305.573 437.171 301.273M405.616 265.624C416.54 273.802 430.575 288.194 437.171 301.273M405.616 265.624C404.923 274.847 402.651 298.503 404.316 299.734C405.98 300.965 429.077 301.273 437.171 301.273" stroke="#05AD60" stroke-width="13" stroke-linecap="round" stroke-linejoin="round"/>
</svg>
