<svg width="444" height="405" viewBox="0 0 444 405" fill="none" xmlns="http://www.w3.org/2000/svg">
<path d="M67.016 389.888C68.84 390.944 72.824 392.672 77.816 392.672C84.44 392.672 89.528 389.456 89.528 382.544C89.528 372.272 75.464 373.088 75.464 368.528C75.464 366.896 76.76 365.648 79.832 365.648C82.232 365.648 85.016 366.896 87.704 369.056V361.232C85.736 359.84 82.04 358.928 78.296 358.928C72.632 358.928 67.448 362.144 67.448 368.48C67.448 378.752 81.464 377.6 81.464 382.688C81.464 384.752 79.592 385.952 77.288 385.952C73.112 385.952 69.464 383.744 67.016 381.68V389.888ZM103.435 392.672C106.555 392.672 108.619 391.856 109.771 390.992V385.232C108.859 386 107.467 386.576 105.691 386.576C104.251 386.576 102.523 385.952 102.523 383.648V374.672H109.147V369.296H102.523V362.528H102.091L91.2912 374.192V374.672H95.5153V385.616C95.5153 390.32 99.6913 392.672 103.435 392.672ZM124.712 392.672C131.672 392.672 137.144 387.872 137.144 380.576C137.144 373.328 131.672 368.624 124.712 368.624C117.752 368.624 112.28 373.328 112.28 380.576C112.28 387.872 117.752 392.672 124.712 392.672ZM119.576 380.576C119.576 376.784 121.88 374.912 124.712 374.912C127.544 374.912 129.896 376.784 129.896 380.576C129.896 384.464 127.544 386.384 124.712 386.384C121.88 386.384 119.576 384.464 119.576 380.576ZM155.973 368.72C155.829 368.672 155.397 368.624 155.109 368.624C151.797 368.624 149.493 371.216 148.197 374.144V369.296H141.141V392H148.197V378.848C149.157 377.168 151.125 376.352 153.189 376.352H155.973V368.72ZM177.125 393.104L181.349 388.4L178.613 386V378.512C178.613 372.752 176.165 368.624 168.677 368.624C164.981 368.624 161.861 369.776 159.989 370.928V377.072C162.149 375.632 164.645 374.672 167.525 374.672C170.453 374.672 171.701 376.016 171.893 377.648L166.133 378.944C162.293 379.808 158.501 381.536 158.501 386.144C158.501 390.128 161.573 392.672 165.989 392.672C169.109 392.672 171.461 391.568 173.525 389.936L177.125 393.104ZM165.509 385.28C165.509 383.84 166.613 382.928 168.533 382.448L171.893 381.584V385.424C171.125 386.384 169.637 387.248 167.765 387.248C166.469 387.248 165.509 386.576 165.509 385.28ZM194.251 380.768C192.187 380.768 190.555 379.472 190.555 377.264C190.555 375.008 192.187 373.712 194.251 373.712C196.267 373.712 197.947 375.008 197.947 377.264C197.947 379.472 196.267 380.768 194.251 380.768ZM194.347 399.632C190.219 399.632 188.731 398.432 188.731 396.992C188.731 395.696 190.267 394.496 193.819 394.496H195.451C199.099 394.496 200.443 395.6 200.443 396.848C200.443 398.384 198.571 399.632 194.347 399.632ZM183.739 377.312C183.739 381.056 186.235 383.36 188.587 384.224V384.416C186.571 384.992 184.507 386.384 184.507 388.592C184.507 390.224 185.947 391.376 187.771 392.048V392.192C185.563 392.96 181.963 394.448 181.963 398.048C181.963 401.696 185.947 404.336 193.579 404.336C202.555 404.336 207.211 400.976 207.211 395.888C207.211 391.904 203.899 389.12 197.275 388.976L194.443 388.928C192.091 388.88 190.603 388.16 190.603 387.2C190.603 386.576 190.939 386 191.707 385.568C192.571 385.808 193.531 385.904 194.491 385.904C201.115 385.904 204.763 382.208 204.763 377.6C204.763 376.304 204.475 375.056 203.947 373.904L207.403 374.048V368.864L198.811 369.44C197.371 368.912 195.739 368.624 193.915 368.624C188.107 368.624 183.739 372.032 183.739 377.312ZM221.121 374.528C223.329 374.528 224.721 376.448 224.817 378.752H216.609C217.041 375.872 218.577 374.528 221.121 374.528ZM222.033 392.672C226.881 392.672 229.521 391.472 231.249 390.56V384.512C229.329 385.616 226.257 386.624 223.089 386.624C219.969 386.624 217.329 385.76 216.657 382.544H231.345V380.144C231.345 374.912 229.281 368.624 221.217 368.624C214.017 368.624 209.265 373.472 209.265 380.96C209.265 388.208 214.545 392.672 222.033 392.672ZM259.757 366.752C266.861 366.752 269.789 370.496 269.789 375.584C269.789 380.72 266.813 384.848 260.093 384.848H255.341V366.752H259.757ZM247.661 392H260.045C273.101 392 277.805 383.696 277.805 375.584C277.805 367.472 273.101 359.6 260.045 359.6H247.661V392ZM297.067 368.72C296.923 368.672 296.491 368.624 296.203 368.624C292.891 368.624 290.587 371.216 289.291 374.144V369.296H282.235V392H289.291V378.848C290.251 377.168 292.219 376.352 294.283 376.352H297.067V368.72ZM300.891 369.296V392H307.947V369.296H300.891ZM304.443 357.872C302.091 357.872 300.315 359.6 300.315 361.856C300.315 364.112 302.091 365.984 304.443 365.984C306.747 365.984 308.571 364.112 308.571 361.856C308.571 359.6 306.747 357.872 304.443 357.872ZM310.385 369.296L319.793 392H325.361L334.769 369.296H327.281L322.577 382.64L317.873 369.296H310.385ZM347.683 374.528C349.891 374.528 351.283 376.448 351.379 378.752H343.171C343.603 375.872 345.139 374.528 347.683 374.528ZM348.595 392.672C353.443 392.672 356.083 391.472 357.811 390.56V384.512C355.891 385.616 352.819 386.624 349.651 386.624C346.531 386.624 343.891 385.76 343.219 382.544H357.907V380.144C357.907 374.912 355.843 368.624 347.779 368.624C340.579 368.624 335.827 373.472 335.827 380.96C335.827 388.208 341.107 392.672 348.595 392.672ZM377.129 368.72C376.985 368.672 376.553 368.624 376.265 368.624C372.953 368.624 370.649 371.216 369.353 374.144V369.296H362.297V392H369.353V378.848C370.313 377.168 372.281 376.352 374.345 376.352H377.129V368.72Z" fill="black"/>
<path d="M131.417 179.931C130.224 156.767 128.873 106.582 131.56 104.653C134.355 102.647 165.798 102.409 168.258 104.257C176.682 110.582 187.504 121.716 192.59 131.834C194.262 135.16 194.667 181.564 192.59 183.389C190.653 185.089 148.178 185.997 134.147 183.254C132.553 182.942 131.5 181.552 131.417 179.931Z" fill="white"/>
<path d="M168.258 104.257C165.798 102.409 134.355 102.647 131.56 104.653C128.873 106.582 130.224 156.767 131.417 179.931C131.5 181.552 132.553 182.942 134.147 183.254C148.178 185.997 190.653 185.089 192.59 183.389C194.667 181.564 194.262 135.16 192.59 131.834M168.258 104.257C176.682 110.582 187.504 121.716 192.59 131.834M168.258 104.257C167.723 111.391 165.972 129.691 167.255 130.643C168.539 131.596 186.348 131.834 192.59 131.834" stroke="#05AD60" stroke-width="13" stroke-linecap="round" stroke-linejoin="round"/>
<path d="M38 298.803C38 276.803 64.2019 71.0206 72.5 64.8234C80.0802 59.1625 323.977 63.1624 411.537 64.8234M411.537 64.8234C419.848 64.9811 433.576 65.4881 435.848 68.8026C441.446 76.9718 423.335 321.413 403 330.917C386.459 338.647 137.385 332.76 16.0844 330.97C13.9691 330.939 12.3258 329.27 12.2308 327.156C7.00848 211.023 6.66052 91.6874 7.17133 42.1978C7.19393 40.0078 8.97679 38.2752 11.1669 38.2752H26.1391C28.1646 38.2752 29.856 36.7568 30.1965 34.7602C31.933 24.5792 35.6521 17.2637 41.5 11.1254C48 4.3026 158 7.12538 162.5 11.1254C166.333 14.5329 171.993 24.1338 172.339 33.4657C172.432 35.9724 174.288 38.275 176.797 38.2689C236.265 38.1238 401.879 35.5844 407.664 42.2592C412.86 48.253 411.935 56.1713 411.617 58.0831C411.569 58.3698 411.537 58.6583 411.537 58.9489V64.8234Z" stroke="#0077D7" stroke-width="13" stroke-linecap="round" stroke-linejoin="round" stroke-dasharray="26 26"/>
<circle cx="226.5" cy="196.5" r="61" fill="white" stroke="black" stroke-width="13"/>
<path d="M208.538 223C206.323 203.17 207.615 178.738 208.538 169M208.538 169L194 180.508M208.538 169L221 180.508" stroke="black" stroke-width="13" stroke-linecap="round" stroke-linejoin="round"/>
<path d="M245.462 169C247.677 188.83 246.385 213.262 245.462 223M245.462 223L260 211.492M245.462 223L233 211.492" stroke="black" stroke-width="13" stroke-linecap="round" stroke-linejoin="round"/>
<path d="M277.417 281.931C276.224 258.767 274.873 208.582 277.56 206.653C280.355 204.647 311.798 204.409 314.258 206.257C322.682 212.582 333.504 223.716 338.59 233.834C340.262 237.16 340.667 283.564 338.59 285.389C336.653 287.089 294.178 287.997 280.147 285.254C278.553 284.942 277.5 283.552 277.417 281.931Z" fill="white"/>
<path d="M314.258 206.257C311.798 204.409 280.355 204.647 277.56 206.653C274.873 208.582 276.224 258.767 277.417 281.931C277.5 283.552 278.553 284.942 280.147 285.254C294.178 287.997 336.653 287.089 338.59 285.389C340.667 283.564 340.262 237.16 338.59 233.834M314.258 206.257C322.682 212.582 333.504 223.716 338.59 233.834M314.258 206.257C313.723 213.391 311.972 231.691 313.255 232.643C314.539 233.596 332.348 233.834 338.59 233.834" stroke="#05AD60" stroke-width="13" stroke-linecap="round" stroke-linejoin="round"/>
</svg>
