<svg height="96" viewBox="0 0 249 459" fill="none" xmlns="http://www.w3.org/2000/svg">
<path d="M238.243 446.887C243.252 440.603 243.252 129.558 238.243 120.133C235.735 115.414 179.366 113.845 123.254 114.243C67.2852 114.64 11.5719 116.995 9.82086 120.133C6.31437 126.417 5.81339 439.556 9.82086 446.887C13.8283 454.218 233.234 453.171 238.243 446.887Z" fill="white"/>
<path d="M123.254 114.243C67.2852 114.64 11.5719 116.995 9.82086 120.133C6.31437 126.417 5.81339 439.556 9.82086 446.887C13.8283 454.218 233.234 453.171 238.243 446.887C243.252 440.603 243.252 129.558 238.243 120.133C235.735 115.414 179.366 113.845 123.254 114.243ZM123.254 114.243V65" stroke="black" stroke-width="13" stroke-linecap="round" stroke-linejoin="round"/>
<path d="M193.714 330.518C196.762 327.467 196.762 176.464 193.714 171.888C192.188 169.597 157.887 168.835 123.742 169.029C89.6842 169.222 55.782 170.365 54.7165 171.888C52.5828 174.939 52.2779 326.959 54.7165 330.518C57.1551 334.077 190.666 333.568 193.714 330.518Z" fill="white" stroke="#AD3CFF" stroke-width="13" stroke-linecap="round" stroke-linejoin="round"/>
<path d="M98.0091 210.347C97.962 219.979 98.0788 237.89 98.8092 255.85C98.8952 257.964 100.613 259.637 102.729 259.666C125.014 259.969 162.24 260.319 165.294 259.613C169.337 258.679 178.778 225.644 176.5 224.101C175.9 223.695 170.801 224.212 165 224.101L166.113 217.667C166.126 217.587 166.138 217.509 166.146 217.429C166.264 216.326 167.134 207.846 166.133 206.686C165.211 205.617 147.111 206.39 135.82 206.625C133.313 206.677 131.487 204.334 130.941 201.888C130.586 200.294 129.793 198.896 128.203 198.601C124.006 197.823 110.045 197.777 107.5 198.601C105.906 199.117 105.43 201.302 105.233 203.399C105.057 205.271 103.584 206.686 101.705 206.686C99.6728 206.686 98.019 208.315 98.0091 210.347Z" fill="white"/>
<path d="M118.174 241.852C122.5 226.101 126.711 226.536 128.203 225.415C129.567 224.391 149.252 223.801 165 224.101M165 224.101C170.801 224.212 175.9 223.695 176.5 224.101C178.778 225.644 169.337 258.679 165.294 259.613C162.24 260.319 125.014 259.969 102.729 259.666C100.613 259.637 98.8952 257.964 98.8092 255.85C98.0788 237.89 97.962 219.979 98.0091 210.347C98.019 208.315 99.6728 206.686 101.705 206.686V206.686C103.584 206.686 105.057 205.271 105.233 203.399C105.43 201.302 105.906 199.117 107.5 198.601C110.045 197.777 124.006 197.823 128.203 198.601C129.793 198.896 130.586 200.294 130.941 201.888C131.487 204.334 133.313 206.677 135.82 206.625C147.111 206.39 165.211 205.617 166.133 206.686C167.134 207.846 166.264 216.326 166.146 217.429C166.138 217.509 166.126 217.587 166.113 217.667L165 224.101Z" stroke="#0077D7" stroke-width="13" stroke-linecap="round" stroke-linejoin="round"/>
<path d="M74.0091 253.347C73.962 262.979 74.0788 280.89 74.8092 298.85C74.8952 300.964 76.6134 302.637 78.7291 302.666C101.014 302.969 138.24 303.319 141.294 302.613C145.337 301.679 154.778 268.644 152.5 267.101C151.9 266.695 146.801 267.212 141 267.101L142.113 260.667C142.126 260.587 142.138 260.509 142.146 260.429C142.264 259.326 143.134 250.846 142.133 249.686C141.211 248.617 123.111 249.39 111.82 249.625C109.313 249.677 107.487 247.334 106.941 244.888C106.586 243.294 105.793 241.896 104.203 241.601C100.006 240.823 86.0454 240.777 83.5 241.601C81.9061 242.117 81.4297 244.302 81.2326 246.399C81.0567 248.271 79.5843 249.686 77.7046 249.686C75.6728 249.686 74.019 251.315 74.0091 253.347Z" fill="white"/>
<path d="M94.1736 284.852C98.5 269.101 102.711 269.536 104.203 268.415C105.567 267.391 125.252 266.801 141 267.101M141 267.101C146.801 267.212 151.9 266.695 152.5 267.101C154.778 268.644 145.337 301.679 141.294 302.613C138.24 303.319 101.014 302.969 78.7291 302.666C76.6134 302.637 74.8952 300.964 74.8092 298.85C74.0788 280.89 73.962 262.979 74.0091 253.347C74.019 251.315 75.6728 249.686 77.7046 249.686V249.686C79.5843 249.686 81.0567 248.271 81.2326 246.399C81.4297 244.302 81.9061 242.117 83.5 241.601C86.0454 240.777 100.006 240.823 104.203 241.601C105.793 241.896 106.586 243.294 106.941 244.888C107.487 247.334 109.313 249.677 111.82 249.625C123.111 249.39 141.211 248.617 142.133 249.686C143.134 250.846 142.264 259.326 142.146 260.429C142.138 260.509 142.126 260.587 142.113 260.667L141 267.101Z" stroke="#0077D7" stroke-width="13" stroke-linecap="round" stroke-linejoin="round"/>
<path d="M78.904 376.336C83.576 376.336 86.136 377.68 86.136 381.2C86.136 384.912 83.64 386.704 79.352 386.704H73.976V376.336H78.904ZM79.288 396.24C91.576 396.24 96.632 389.2 96.632 381.2C96.632 373.2 91.576 366.8 79.288 366.8H63.736V410H73.976V396.24H79.288ZM115.661 386.704C118.605 386.704 120.461 389.264 120.589 392.336H109.645C110.221 388.496 112.269 386.704 115.661 386.704ZM116.877 410.896C123.341 410.896 126.861 409.296 129.165 408.08V400.016C126.605 401.488 122.509 402.832 118.285 402.832C114.125 402.832 110.605 401.68 109.709 397.392H129.293V394.192C129.293 387.216 126.541 378.832 115.789 378.832C106.189 378.832 99.853 385.296 99.853 395.28C99.853 404.944 106.893 410.896 116.877 410.896ZM149.099 386.704C152.043 386.704 153.899 389.264 154.027 392.336H143.083C143.659 388.496 145.707 386.704 149.099 386.704ZM150.315 410.896C156.779 410.896 160.299 409.296 162.603 408.08V400.016C160.043 401.488 155.947 402.832 151.723 402.832C147.562 402.832 144.043 401.68 143.147 397.392H162.731V394.192C162.731 387.216 159.979 378.832 149.227 378.832C139.627 378.832 133.291 385.296 133.291 395.28C133.291 404.944 140.331 410.896 150.315 410.896ZM188.36 378.96C188.168 378.896 187.592 378.832 187.208 378.832C182.792 378.832 179.72 382.288 177.992 386.192V379.728H168.584V410H177.992V392.464C179.272 390.224 181.896 389.136 184.648 389.136H188.36V378.96Z" fill="#AD3CFF"/>
<path d="M142.027 44.6143C142.027 54.3247 133.641 62.7581 122.586 62.7581C111.531 62.7581 103.145 54.3247 103.145 44.6143C103.145 34.9039 111.531 26.4705 122.586 26.4705C133.641 26.4705 142.027 34.9039 142.027 44.6143Z" fill="white" stroke="black" stroke-width="13"/>
<path d="M79.7751 19.9705C76.4625 26.9813 74.5952 34.9147 74.5952 43.3172C74.5952 51.7197 76.4625 59.6532 79.7751 66.664M165.396 66.664C168.709 59.6532 170.576 51.7197 170.576 43.3172C170.576 34.9147 168.709 26.9812 165.396 19.9705" stroke="#0077D7" stroke-width="13" stroke-linecap="round"/>
<path d="M54.3203 7.00001C49.0381 17.9057 46.0605 30.2467 46.0605 43.3172C46.0605 56.3877 49.0381 68.7287 54.3203 79.6344M190.852 79.6344C196.134 68.7287 199.112 56.3877 199.112 43.3172C199.112 30.2467 196.134 17.9057 190.852 7" stroke="#0077D7" stroke-width="13" stroke-linecap="round"/>
</svg>
