<svg width="540" height="402" viewBox="0 0 540 402" fill="none" xmlns="http://www.w3.org/2000/svg">
<path d="M524.591 103.997C513.379 97.6637 21.1625 99.7749 13.3139 103.997C5.46535 108.22 4.34402 318.638 13.3139 323.564C22.2838 328.49 513.379 327.787 524.591 323.564C535.803 319.342 535.803 110.331 524.591 103.997Z" fill="white" stroke="black" stroke-width="13" stroke-linecap="round" stroke-linejoin="round"/>
<path d="M390 178.774C381.919 178.963 376.172 179.237 375.864 179.557C374.79 180.673 374.636 236.29 375.864 237.592C377.092 238.894 444.314 238.708 445.849 237.592C447.384 236.476 447.384 181.231 445.849 179.557C445.42 179.088 439.84 178.795 432 178.639M390 178.774C390 165.5 383.921 136 411 136C438.079 136 432 162.5 432 178.639M390 178.774C402.241 178.488 419.839 178.398 432 178.639" stroke="black" stroke-width="13" stroke-linecap="round" stroke-linejoin="round"/>
<path d="M169 199.021C114.827 199.144 61.456 199.808 59.7608 200.691C56.329 202.476 55.8386 291.464 59.7608 293.547C61.7318 294.594 116.937 295.04 172 294.997M169 199.021C224.5 198.894 280.842 199.335 283.323 200.691C288.226 203.369 288.226 291.761 283.323 293.547C280.884 294.435 226.512 294.955 172 294.997M169 199.021L172 294.997" stroke="black" stroke-width="13" stroke-linecap="round" stroke-linejoin="round"/>
<path d="M100.51 10.7505C106.799 6.19984 184.295 5.65908 189.831 9.85048C208.784 24.1993 226.383 42.6488 237.827 65.5981C240.511 70.9805 241.744 129.542 240.534 164.18C240.46 166.322 238.696 168 236.554 168H103.379C101.238 168 99.477 166.337 99.3866 164.198C96.9896 107.426 95.065 14.6903 100.51 10.7505Z" fill="white"/>
<path d="M189.831 9.85048C184.295 5.65908 106.799 6.19984 100.51 10.7505C95.065 14.6903 96.9896 107.426 99.3866 164.198C99.477 166.337 101.238 168 103.379 168H236.554C238.696 168 240.46 166.322 240.534 164.18C241.744 129.542 240.511 70.9805 237.827 65.5981M189.831 9.85048C208.784 24.1993 226.383 42.6488 237.827 65.5981M189.831 9.85048C188.628 26.0331 184.687 60.7383 187.575 62.8982C190.463 65.0582 223.784 65.5981 237.827 65.5981" stroke="#05AD60" stroke-width="13" stroke-linecap="round" stroke-linejoin="round"/>
<path d="M219.144 357.6H210.552L203.688 378L196.824 357.6H188.184L201.336 390.672H206.04L219.144 357.6ZM237.422 391.104L241.646 386.4L238.91 384V376.512C238.91 370.752 236.462 366.624 228.974 366.624C225.278 366.624 222.158 367.776 220.286 368.928V375.072C222.446 373.632 224.942 372.672 227.822 372.672C230.75 372.672 231.998 374.016 232.19 375.648L226.43 376.944C222.59 377.808 218.798 379.536 218.798 384.144C218.798 388.128 221.87 390.672 226.286 390.672C229.406 390.672 231.758 389.568 233.822 387.936L237.422 391.104ZM225.806 383.28C225.806 381.84 226.91 380.928 228.83 380.448L232.19 379.584V383.424C231.422 384.384 229.934 385.248 228.062 385.248C226.766 385.248 225.806 384.576 225.806 383.28ZM244.516 356.736V390H251.572V356.736H244.516ZM256.938 367.296V390H263.994V367.296H256.938ZM260.49 355.872C258.138 355.872 256.362 357.6 256.362 359.856C256.362 362.112 258.138 363.984 260.49 363.984C262.794 363.984 264.618 362.112 264.618 359.856C264.618 357.6 262.794 355.872 260.49 355.872ZM291.728 356.736H284.768V369.072C283.904 368.112 281.504 366.624 278.288 366.624C272.336 366.624 267.968 371.28 267.968 378.528C267.968 386.16 272.96 390.672 278.528 390.672C281.12 390.672 283.232 389.856 285.056 388.368L285.584 390H291.728V356.736ZM280.4 384.384C277.616 384.384 275.264 382.512 275.264 378.528C275.264 374.592 277.856 372.912 280.304 372.912C282.176 372.912 283.664 373.68 284.768 375.168V381.792C283.904 383.424 282.368 384.384 280.4 384.384ZM314.438 391.104L318.662 386.4L315.926 384V376.512C315.926 370.752 313.478 366.624 305.99 366.624C302.294 366.624 299.174 367.776 297.302 368.928V375.072C299.462 373.632 301.958 372.672 304.838 372.672C307.766 372.672 309.014 374.016 309.206 375.648L303.446 376.944C299.606 377.808 295.814 379.536 295.814 384.144C295.814 388.128 298.886 390.672 303.302 390.672C306.422 390.672 308.774 389.568 310.838 387.936L314.438 391.104ZM302.822 383.28C302.822 381.84 303.926 380.928 305.846 380.448L309.206 379.584V383.424C308.438 384.384 306.95 385.248 305.078 385.248C303.782 385.248 302.822 384.576 302.822 383.28ZM330.748 390.672C333.868 390.672 335.932 389.856 337.084 388.992V383.232C336.172 384 334.78 384.576 333.004 384.576C331.564 384.576 329.836 383.952 329.836 381.648V372.672H336.46V367.296H329.836V360.528H329.404L318.604 372.192V372.672H322.828V383.616C322.828 388.32 327.004 390.672 330.748 390.672ZM352.025 390.672C358.985 390.672 364.457 385.872 364.457 378.576C364.457 371.328 358.985 366.624 352.025 366.624C345.065 366.624 339.593 371.328 339.593 378.576C339.593 385.872 345.065 390.672 352.025 390.672ZM346.889 378.576C346.889 374.784 349.193 372.912 352.025 372.912C354.857 372.912 357.209 374.784 357.209 378.576C357.209 382.464 354.857 384.384 352.025 384.384C349.193 384.384 346.889 382.464 346.889 378.576ZM383.286 366.72C383.142 366.672 382.71 366.624 382.422 366.624C379.11 366.624 376.806 369.216 375.51 372.144V367.296H368.454V390H375.51V376.848C376.47 375.168 378.438 374.352 380.502 374.352H383.286V366.72Z" fill="black"/>
<path d="M364.664 260.52C363.176 259.32 359.528 257.928 354.872 257.928C341.96 257.928 336.728 266.424 336.728 274.488C336.728 282.648 341.96 291.672 354.92 291.672C359.288 291.672 363.608 290.424 365.48 288.84V280.92C363.704 282.744 359.384 284.472 355.784 284.472C348.392 284.472 344.792 279.864 344.792 274.488C344.792 269.256 348.248 265.128 355.208 265.128C357.896 265.128 362.072 266.424 364.664 268.488V260.52ZM385.145 267.72C385.001 267.672 384.569 267.624 384.281 267.624C380.969 267.624 378.665 270.216 377.369 273.144V268.296H370.313V291H377.369V277.848C378.329 276.168 380.297 275.352 382.361 275.352H385.145V267.72ZM403.358 268.296L398.654 282.552L393.95 268.296H386.51L395.726 291.528L395.39 292.536C394.43 295.512 392.654 296.52 390.542 296.52C389.15 296.52 387.806 296.184 386.798 295.656V302.088C387.566 302.472 389.006 302.904 391.022 302.904C395.678 302.904 398.414 300.216 400.43 295.08L410.846 268.296H403.358ZM424.769 285.384C422.801 285.384 421.169 284.424 420.257 282.792V276.168C421.409 274.728 422.849 273.912 424.769 273.912C427.217 273.912 429.809 275.592 429.809 279.528C429.809 283.512 427.217 285.384 424.769 285.384ZM426.545 291.672C432.257 291.672 437.057 286.296 437.057 279.528C437.057 272.28 432.593 267.624 426.929 267.624C423.617 267.624 421.457 269.064 420.113 270.408L419.441 268.296H413.297V301.8H420.257V289.512C422.129 290.952 424.337 291.672 426.545 291.672ZM450.263 291.672C453.383 291.672 455.447 290.856 456.599 289.992V284.232C455.687 285 454.295 285.576 452.519 285.576C451.079 285.576 449.351 284.952 449.351 282.648V273.672H455.975V268.296H449.351V261.528H448.919L438.119 273.192V273.672H442.343V284.616C442.343 289.32 446.519 291.672 450.263 291.672ZM471.541 291.672C478.501 291.672 483.973 286.872 483.973 279.576C483.973 272.328 478.501 267.624 471.541 267.624C464.581 267.624 459.109 272.328 459.109 279.576C459.109 286.872 464.581 291.672 471.541 291.672ZM466.405 279.576C466.405 275.784 468.709 273.912 471.541 273.912C474.373 273.912 476.725 275.784 476.725 279.576C476.725 283.464 474.373 285.384 471.541 285.384C468.709 285.384 466.405 283.464 466.405 279.576Z" fill="black"/>
<path d="M57 171C136 166.5 204.5 167.5 287 171" stroke="black" stroke-width="13" stroke-linecap="round" stroke-linejoin="round"/>
<path d="M203.547 226.774C203.547 226.774 235 252 250.717 266.396" stroke="black" stroke-width="13" stroke-linecap="round" stroke-linejoin="round"/>
<path d="M250.717 226.774C250.717 226.774 224 244 203.547 266.396" stroke="black" stroke-width="13" stroke-linecap="round" stroke-linejoin="round"/>
<path d="M91 250C97.5227 254.254 103.241 260.76 106.969 265.594C108.965 268.183 113.33 267.807 114.771 264.873C119.375 255.501 128.715 238.626 142 225" stroke="black" stroke-width="13" stroke-linecap="round" stroke-linejoin="round"/>
</svg>
