<svg height="90" viewBox="0 0 696 429" fill="none" xmlns="http://www.w3.org/2000/svg">
<path d="M678.097 133.177C663.56 124.974 25.3628 127.708 15.1865 133.177C5.0102 138.646 3.55632 411.17 15.1865 417.55C26.8167 423.93 663.559 423.019 678.097 417.55C692.634 412.081 692.634 141.38 678.097 133.177Z" fill="white" stroke="black" stroke-width="13" stroke-linecap="round" stroke-linejoin="round"/>
<path d="M503.375 229.502C492.937 229.747 485.514 230.103 485.116 230.517C483.729 231.965 483.53 304.132 485.116 305.822C486.702 307.511 573.531 307.27 575.513 305.822C577.496 304.373 577.496 232.69 575.513 230.517C574.959 229.91 567.751 229.529 557.625 229.327M503.375 229.502C503.375 212.278 495.523 174 530.5 174C565.477 174 557.625 208.385 557.625 229.327M503.375 229.502C519.187 229.131 541.917 229.014 557.625 229.327" stroke="black" stroke-width="13" stroke-linecap="round" stroke-linejoin="round"/>
<path d="M217.113 256.027C146.923 256.188 77.7735 257.053 75.5771 258.201C71.1306 260.526 70.4953 376.395 75.5771 379.108C78.1308 380.471 149.658 381.051 221 380.996M217.113 256.027C289.022 255.862 362.021 256.436 365.236 258.201C371.588 261.689 371.588 376.783 365.236 379.108C362.076 380.265 291.629 380.942 221 380.996M217.113 256.027L221 380.996" stroke="black" stroke-width="13" stroke-linecap="round" stroke-linejoin="round"/>
<path d="M127.558 11.8686C135.725 5.96128 236.362 5.2593 243.551 10.7003C268.164 29.327 291.019 53.277 305.879 83.0684C309.394 90.1148 310.994 167.372 309.355 212.179C309.276 214.32 307.513 216 305.371 216H130.14C127.999 216 126.239 214.35 126.148 212.211C123.013 138.623 120.45 17.0097 127.558 11.8686Z" fill="white"/>
<path d="M243.551 10.7003C236.362 5.2593 135.725 5.96128 127.558 11.8686C120.45 17.0097 123.013 138.623 126.148 212.211C126.239 214.35 127.999 216 130.14 216H305.371C307.513 216 309.276 214.32 309.355 212.179C310.994 167.372 309.394 90.1148 305.879 83.0684M243.551 10.7003C268.164 29.327 291.019 53.277 305.879 83.0684M243.551 10.7003C241.989 31.7076 236.871 76.7596 240.621 79.5635C244.372 82.3674 287.643 83.0684 305.879 83.0684" stroke="#05AD60" stroke-width="13" stroke-linecap="round" stroke-linejoin="round"/>
<path d="M471.552 336.36C469.568 334.76 464.704 332.904 458.496 332.904C441.28 332.904 434.304 344.232 434.304 354.984C434.304 365.864 441.28 377.896 458.56 377.896C464.384 377.896 470.144 376.232 472.64 374.12V363.56C470.272 365.992 464.512 368.296 459.712 368.296C449.856 368.296 445.056 362.152 445.056 354.984C445.056 348.008 449.664 342.504 458.944 342.504C462.528 342.504 468.096 344.232 471.552 346.984V336.36ZM498.86 345.96C498.668 345.896 498.092 345.832 497.708 345.832C493.292 345.832 490.22 349.288 488.492 353.192V346.728H479.084V377H488.492V359.464C489.772 357.224 492.396 356.136 495.148 356.136H498.86V345.96ZM523.144 346.728L516.872 365.736L510.6 346.728H500.68L512.968 377.704L512.52 379.048C511.24 383.016 508.872 384.36 506.056 384.36C504.2 384.36 502.408 383.912 501.064 383.208V391.784C502.088 392.296 504.008 392.872 506.696 392.872C512.904 392.872 516.552 389.288 519.24 382.44L533.128 346.728H523.144ZM551.693 369.512C549.069 369.512 546.893 368.232 545.677 366.056V357.224C547.213 355.304 549.133 354.216 551.693 354.216C554.957 354.216 558.413 356.456 558.413 361.704C558.413 367.016 554.957 369.512 551.693 369.512ZM554.061 377.896C561.677 377.896 568.076 370.728 568.076 361.704C568.076 352.04 562.125 345.832 554.573 345.832C550.157 345.832 547.277 347.752 545.485 349.544L544.589 346.728H536.397V391.4H545.677V375.016C548.173 376.936 551.117 377.896 554.061 377.896ZM585.685 377.896C589.845 377.896 592.597 376.808 594.133 375.656V367.976C592.917 369 591.061 369.768 588.693 369.768C586.773 369.768 584.469 368.936 584.469 365.864V353.896H593.301V346.728H584.469V337.704H583.893L569.492 353.256V353.896H575.125V368.488C575.125 374.76 580.693 377.896 585.685 377.896ZM614.054 377.896C623.334 377.896 630.63 371.496 630.63 361.768C630.63 352.104 623.334 345.832 614.054 345.832C604.774 345.832 597.478 352.104 597.478 361.768C597.478 371.496 604.774 377.896 614.054 377.896ZM607.206 361.768C607.206 356.712 610.278 354.216 614.054 354.216C617.83 354.216 620.966 356.712 620.966 361.768C620.966 366.952 617.83 369.512 614.054 369.512C610.278 369.512 607.206 366.952 607.206 361.768Z" fill="black"/>
<path d="M72 220C174.357 214.023 263.109 215.351 370 220" stroke="black" stroke-width="13" stroke-linecap="round" stroke-linejoin="round"/>
<path d="M261.605 292.056C261.605 292.056 302.401 324.775 322.787 343.448" stroke="black" stroke-width="13" stroke-linecap="round" stroke-linejoin="round"/>
<path d="M322.787 292.056C322.787 292.056 288.134 314.399 261.606 343.448" stroke="black" stroke-width="13" stroke-linecap="round" stroke-linejoin="round"/>
<path d="M116 322.447C125.298 328.528 133.333 338.155 138.054 344.524C140.002 347.153 144.35 346.782 145.758 343.828C151.291 332.224 163.778 308.744 182 290" stroke="black" stroke-width="13" stroke-linecap="round" stroke-linejoin="round"/>
</svg>
