<svg width="977" height="754" viewBox="0 0 977 754" fill="none" xmlns="http://www.w3.org/2000/svg">
<path d="M145.367 423.922C142.644 373.091 139.33 254.222 145.51 249.75C151.799 245.2 229.295 244.659 234.831 248.85C253.784 263.199 271.383 281.649 282.827 304.598C286.589 312.144 287.502 424.207 282.827 428.345C278.306 432.347 175.627 434.413 148.065 427.306C146.496 426.902 145.453 425.541 145.367 423.922Z" fill="white"/>
<path d="M234.831 248.85C229.295 244.659 151.799 245.2 145.51 249.75C139.33 254.222 142.644 373.091 145.367 423.922C145.453 425.541 146.496 426.902 148.065 427.306C175.627 434.413 278.306 432.347 282.827 428.345C287.502 424.207 286.589 312.144 282.827 304.598M234.831 248.85C253.784 263.199 271.383 281.649 282.827 304.598M234.831 248.85C233.628 265.033 229.687 299.738 232.575 301.898C235.463 304.058 268.784 304.598 282.827 304.598" stroke="#05AD60" stroke-width="13" stroke-linecap="round" stroke-linejoin="round"/>
<path d="M98.3666 465.922C95.6438 415.091 92.3298 296.222 98.5099 291.75C104.799 287.2 182.295 286.659 187.831 290.85C206.784 305.199 224.383 323.649 235.827 346.598C239.589 354.144 240.502 466.207 235.827 470.345C231.306 474.347 128.627 476.413 101.065 469.306C99.496 468.902 98.4532 467.541 98.3666 465.922Z" fill="white"/>
<path d="M187.831 290.85C182.295 286.659 104.799 287.2 98.5099 291.75C92.3298 296.222 95.6438 415.091 98.3666 465.922C98.4532 467.541 99.496 468.902 101.065 469.306C128.627 476.413 231.306 474.347 235.827 470.345C240.502 466.207 239.589 354.144 235.827 346.598M187.831 290.85C206.784 305.199 224.383 323.649 235.827 346.598M187.831 290.85C186.628 307.033 182.687 341.738 185.575 343.898C188.463 346.058 221.784 346.598 235.827 346.598" stroke="#008649" stroke-width="13" stroke-linecap="round" stroke-linejoin="round"/>
<path d="M57.3666 518.922C54.6438 468.091 51.3298 349.222 57.5099 344.75C63.7989 340.2 141.295 339.659 146.831 343.85C165.784 358.199 183.383 376.649 194.827 399.598C198.589 407.144 199.502 519.207 194.827 523.345C190.306 527.347 87.6266 529.413 60.0651 522.306C58.496 521.902 57.4532 520.541 57.3666 518.922Z" fill="white"/>
<path d="M146.831 343.85C141.295 339.659 63.7989 340.2 57.5099 344.75C51.3298 349.222 54.6438 468.091 57.3666 518.922C57.4532 520.541 58.496 521.902 60.0651 522.306C87.6266 529.413 190.306 527.347 194.827 523.345C199.502 519.207 198.589 407.144 194.827 399.598M146.831 343.85C165.784 358.199 183.383 376.649 194.827 399.598M146.831 343.85C145.628 360.033 141.687 394.738 144.575 396.898C147.463 399.058 180.784 399.598 194.827 399.598" stroke="#05AD60" stroke-width="13" stroke-linecap="round" stroke-linejoin="round"/>
<path d="M342 382.692C393.777 376.949 457.574 380.299 483 382.692M483 382.692L452.951 345M483 382.692L452.951 415" stroke="black" stroke-width="13" stroke-linecap="round" stroke-linejoin="round"/>
<path d="M829.759 283.053V318C829.759 320.209 827.926 321.884 825.973 320.851C816.068 315.614 799.786 293.698 791.068 280.63C790.273 279.438 788.953 278.756 787.522 278.835C729.686 282.054 619.494 282.658 612.921 274.77C604.596 264.779 608.299 135.484 613.294 125.493C618.29 115.502 926.334 115.502 934.659 125.493C942.985 135.484 937.647 267.428 932.652 275.754C928.822 282.138 868.411 281.546 834.075 279.042C831.741 278.872 829.759 280.713 829.759 283.053Z" fill="white" stroke="#05AD60" stroke-width="13" stroke-linecap="round" stroke-linejoin="round"/>
<path d="M830.576 639.846V675C830.576 677.209 828.744 678.885 826.79 677.854C816.842 672.605 800.473 650.56 791.714 637.423C790.919 636.231 789.571 635.55 788.14 635.632C731.09 638.889 659.6 640.457 653 632.533C644.639 622.494 643.003 546.557 648.019 536.518C653.036 526.479 925.547 525.49 933.908 535.529C942.268 545.568 938.924 624.167 933.907 632.533C930.06 638.948 869.371 638.352 834.892 635.835C832.558 635.665 830.576 637.506 830.576 639.846Z" fill="white" stroke="#05AD60" stroke-width="13" stroke-linecap="round" stroke-linejoin="round"/>
<path d="M619.79 455.867V491C619.79 493.209 621.629 494.888 623.569 493.83C633.27 488.541 648.553 466.556 657.21 453.446C657.999 452.251 659.372 451.573 660.801 451.655C716.974 454.883 752.858 455.486 759.467 447.568C767.842 437.534 765.482 347.559 760.457 337.525C755.432 327.492 544.079 327.492 535.704 337.525C527.329 347.559 531.708 440.195 536.733 448.556C540.582 454.961 582.5 454.374 615.464 451.865C617.797 451.687 619.79 453.527 619.79 455.867Z" fill="white" stroke="#008649" stroke-width="13" stroke-linecap="round" stroke-linejoin="round"/>
</svg>
