<svg width="977" height="754" viewBox="0 0 977 754" fill="none" xmlns="http://www.w3.org/2000/svg">
<path d="M646 172.565V319.555C646 320.489 646.327 321.393 646.923 322.111L698.585 384.297C699.465 385.357 700.829 385.889 702.194 385.705L892.188 360.184C895.606 359.725 896.88 355.444 894.269 353.191L829.387 297.197C828.506 296.437 828 295.331 828 294.168V152.488C828 150.097 825.917 148.24 823.542 148.514L649.542 168.591C647.523 168.824 646 170.533 646 172.565Z" fill="white" stroke="black" stroke-width="16" stroke-linejoin="round"/>
<path d="M478 304.793V555.028C478 555.804 477.775 556.562 477.351 557.212L400.722 674.815C399.857 676.143 398.289 676.835 396.724 676.579L59.4372 621.345C56.0888 620.797 54.9008 616.591 57.4675 614.372L171.855 515.474C172.734 514.714 173.239 513.61 173.239 512.448V270.489C173.239 268.098 175.323 266.241 177.699 266.515L474.459 300.819C476.477 301.053 478 302.761 478 304.793Z" fill="white" stroke="black" stroke-width="16" stroke-linejoin="round"/>
<path d="M214.066 348.522C213.845 373.891 214.066 430.552 216.511 486.106C216.604 488.22 218.295 489.891 220.411 489.921C280.797 490.77 390.865 491.876 399.601 489.868C410.749 487.304 437.335 371.617 431.052 367.381C429.398 366.266 417.915 365.599 401.914 365.296V361.698C401.914 361.406 401.945 361.122 402.004 360.836C402.476 358.548 404.552 347.64 401.914 344.595C399.123 341.372 333.083 344.246 302.956 344.567C300.448 344.593 298.582 342.295 298.533 339.788C298.428 334.404 296.51 327.93 289.573 326.649C277.996 324.513 240.326 324.388 233.306 326.649C227.55 328.504 226.301 335.36 225.644 341.067C225.412 343.079 223.73 344.595 221.705 344.595H218.058C215.868 344.595 214.085 346.332 214.066 348.522Z" fill="white"/>
<path d="M239.449 472.633C252.173 414.91 273.879 372.206 277.996 369.13C281.756 366.32 358.48 364.471 401.914 365.296M401.914 365.296C417.915 365.599 429.398 366.266 431.052 367.381C437.335 371.617 410.749 487.304 399.601 489.868C390.865 491.876 280.797 490.77 220.411 489.921C218.295 489.891 216.604 488.22 216.511 486.106C214.066 430.552 213.845 373.891 214.066 348.522C214.085 346.332 215.868 344.595 218.058 344.595H221.705C223.73 344.595 225.412 343.079 225.644 341.067C226.301 335.36 227.55 328.504 233.306 326.649C240.326 324.388 277.996 324.513 289.573 326.649C296.51 327.93 298.428 334.404 298.533 339.788C298.582 342.295 300.448 344.593 302.956 344.567C333.083 344.246 399.123 341.372 401.914 344.595C404.552 347.64 402.476 358.548 402.004 360.836C401.945 361.122 401.914 361.406 401.914 361.698V365.296Z" stroke="#0077D7" stroke-width="13" stroke-linecap="round" stroke-linejoin="round"/>
<path d="M679.027 205.789C678.925 219.727 679.063 248.797 680.285 277.623C680.374 279.737 682.088 281.41 684.204 281.439C717.217 281.896 774.817 282.456 779.463 281.386C785.497 279.996 798.5 227.5 796.487 223.978C796.007 223.138 789.527 223.014 781.011 222.853L780.715 222.847V220.855C780.715 220.724 780.721 220.595 780.734 220.465C780.908 218.631 782.21 204.352 780.715 202.624C779.27 200.952 746.491 202.306 729.375 202.578C726.868 202.618 725.036 200.276 724.514 197.824C724.031 195.553 722.745 193.419 719.906 192.894C713.64 191.736 693.25 191.668 689.45 192.894C686.64 193.801 685.814 196.915 685.418 199.787C685.196 201.401 683.865 202.624 682.236 202.624C680.475 202.624 679.041 204.027 679.027 205.789Z" fill="white"/>
<path d="M702.775 261.042C709.663 229.746 711.412 227.594 713.64 225.926C715.675 224.402 757.205 222.4 780.715 222.847M780.715 222.847C789.376 223.012 796.001 223.128 796.487 223.978C798.5 227.5 785.497 279.996 779.463 281.386C774.817 282.456 717.217 281.896 684.204 281.439C682.088 281.41 680.374 279.737 680.285 277.623C679.063 248.797 678.925 219.727 679.027 205.789C679.041 204.027 680.475 202.624 682.236 202.624V202.624C683.865 202.624 685.196 201.401 685.418 199.787C685.814 196.915 686.64 193.801 689.45 192.894C693.25 191.668 713.64 191.736 719.906 192.894C722.745 193.419 724.031 195.553 724.514 197.824C725.036 200.276 726.868 202.618 729.375 202.578C746.491 202.306 779.27 200.952 780.715 202.624C782.21 204.352 780.908 218.631 780.734 220.465C780.721 220.595 780.715 220.724 780.715 220.855V222.847Z" stroke="#0077D7" stroke-width="13" stroke-linecap="round" stroke-linejoin="round"/>
<path d="M209 520C304.253 530.606 396.022 543.752 430 549" stroke="black" stroke-width="13" stroke-linecap="round" stroke-linejoin="round"/>
<path d="M716 313.5C740.333 310.5 763.4 308.6 777 307" stroke="black" stroke-width="13" stroke-linecap="round" stroke-linejoin="round"/>
<path d="M461 81L512.873 111.181C514.649 112.214 515.353 114.423 514.503 116.293L492.473 164.76C491.633 166.607 492.31 168.791 494.047 169.84L540.815 198.077C542.61 199.161 543.263 201.447 542.312 203.316L518.013 251.045C516.937 253.16 517.927 255.741 520.142 256.593L564.217 273.545C566.298 274.345 567.323 276.693 566.494 278.764L545.419 331.454C544.625 333.438 545.531 335.696 547.477 336.581L595.059 358.209C597.183 359.174 598.034 361.746 596.903 363.787L570.286 411.871C569.089 414.033 570.119 416.752 572.448 417.578L625.764 436.497C628.02 437.297 629.072 439.886 628.016 442.033L600.886 497.166C599.865 499.242 600.812 501.748 602.949 502.63L658.025 525.36C660.172 526.246 661.116 528.768 660.077 530.846L630 591" stroke="#980000" stroke-width="13" stroke-linecap="round" stroke-linejoin="round"/>
</svg>
