<svg width="977" height="754" viewBox="0 0 977 754" fill="none" xmlns="http://www.w3.org/2000/svg">
<path d="M862 506.565V653.81C862 654.587 861.774 655.346 861.35 655.996L816.424 724.819C815.558 726.145 813.992 726.835 812.429 726.58L615.451 694.381C612.1 693.834 610.912 689.624 613.482 687.406L678.613 631.197C679.494 630.437 680 629.331 680 628.168V486.488C680 484.097 682.083 482.24 684.458 482.514L858.458 502.591C860.477 502.824 862 504.533 862 506.565Z" fill="white" stroke="black" stroke-width="16" stroke-linejoin="round"/>
<path d="M83 238.565V385.555C83 386.489 83.3266 387.393 83.9232 388.111L135.585 450.297C136.465 451.357 137.829 451.889 139.194 451.705L329.188 426.184C332.606 425.725 333.88 421.444 331.269 419.191L266.387 363.197C265.506 362.437 265 361.331 265 360.168V218.488C265 216.097 262.917 214.24 260.542 214.514L86.5415 234.591C84.5231 234.824 83 236.533 83 238.565Z" fill="white" stroke="black" stroke-width="16" stroke-linejoin="round"/>
<path d="M108 261.996C108 257.435 111.412 253.596 115.941 253.059L232.941 239.192C238.294 238.558 243 242.739 243 248.13V338.004C243 342.565 239.588 346.404 235.059 346.941L118.059 360.808C112.706 361.442 108 357.261 108 351.87V261.996Z" fill="black"/>
<path d="M242 365L120 379" stroke="black" stroke-width="16" stroke-linecap="round" stroke-linejoin="round"/>
<path d="M837 529.996C837 525.435 833.588 521.596 829.059 521.059L712.059 507.192C706.706 506.558 702 510.739 702 516.13V606.004C702 610.565 705.412 614.404 709.941 614.941L826.941 628.808C832.294 629.442 837 625.261 837 619.87V529.996Z" fill="black"/>
<path d="M703 633L828 650" stroke="black" stroke-width="16" stroke-linecap="round" stroke-linejoin="round"/>
<rect x="655.937" y="80.1864" width="71" height="143" rx="15.5" transform="rotate(5.51786 655.937 80.1864)" fill="white" stroke="black" stroke-width="15"/>
<rect width="40" height="111" rx="11" transform="matrix(-0.995366 -0.096156 -0.096156 0.995366 709.689 100.951)" fill="black"/>
<path d="M340 298C451.2 219.6 504 210 575 202" stroke="#AD3CFF" stroke-width="15" stroke-linecap="round" stroke-linejoin="round"/>
<path d="M319 499C435.8 594.2 520.667 614.667 585 623" stroke="#AD3CFF" stroke-width="15" stroke-linecap="round" stroke-linejoin="round"/>
<path d="M736 278C754 332 761 382 754 433" stroke="#AD3CFF" stroke-width="13" stroke-linecap="round" stroke-linejoin="round"/>
</svg>
