<svg width="1242" height="160" viewBox="0 0 1242 160" fill="none" xmlns="http://www.w3.org/2000/svg">
<path d="M277 98.5002C279.5 149.5 290 151.5 310.5 151.5C339 151.5 343.5 140 342.5 132.5C341.5 125 331 105.5 339 98.5002C345.187 93.0872 395.5 103 404.5 87.0001C413.5 71.0001 396.5 38.0001 370 34.0001C343.5 30.0001 327 61 326 56.5C325 52 314 29.0001 297.5 34.0001C281 39.0001 274.5 47.5002 277 98.5002Z" fill="#6300FF"/>
<path d="M1113.52 98.2072C1116.02 149.207 1126.52 151.207 1147.02 151.207C1175.52 151.207 1180.02 139.707 1179.02 132.207C1178.02 124.707 1171.02 105.207 1179.02 98.2072C1192.16 86.7072 1230 104 1239 88C1248 72 1227.5 37.7071 1201 33.7071C1174.5 29.7071 1163.52 60.7071 1162.52 56.2071C1161.52 51.7071 1150.52 28.7071 1134.02 33.7071C1117.52 38.7071 1111.02 47.2072 1113.52 98.2072Z" fill="#6300FF"/>
<path d="M452.958 145.5C439 125.43 445.958 103.07 441.958 92.5703C429.958 92.5703 423.458 92.5703 418.958 88.0703C414.149 83.2614 413.232 59.6401 418.958 49.0703C425.458 37.0703 447.958 45.5703 452.958 39.0703C456.241 34.8019 450.458 29.0703 455.458 20.0703C460.458 11.0703 467.958 5.07034 490.458 7.57034C508.458 9.57034 506.791 29.4036 504.958 43.0703C508.124 44.237 524.958 36.5703 540.458 43.0703C558.535 50.6511 544.103 84.686 536.958 88.0703C527.458 92.5703 508.424 92.5703 497.458 92.5703C490.458 92.5703 490.458 111.164 507.458 108.57C536.958 104.07 543.958 109.57 547.458 120.57C550.958 131.57 540.458 153.07 512.458 157.57C500.245 159.533 466.972 165.652 452.958 145.5Z" fill="#6300FF"/>
<path d="M867.458 141.07C849 120.5 863.458 89.5703 863.458 85.5703C858.791 83.4037 848.458 85.5703 843.958 81.0703C839.149 76.2614 834.775 54.6401 840.5 44.0703C847 32.0703 867.5 43 872.5 36.5C875.783 32.2316 871.958 22.0703 876.958 13.0703C881.958 4.07034 889.458 -1.92966 911.958 0.570345C929.958 2.57034 930.791 25.3333 928.958 39C932.124 40.1667 947 32.5 962.5 39C980.577 46.5808 962.958 74.5703 958.458 81.0703C953.958 87.5703 928 81.0703 918 85.5703C913.896 87.417 911.958 104.164 928.958 101.57C958.458 97.0703 965 104.957 965 116.5C965 140.93 945.958 147.57 933.958 150.57C921.958 153.57 883.851 159.34 867.458 141.07Z" fill="#6300FF"/>
<path d="M564.5 84.5C568.037 135.534 567 156 588 156C609 156 625 148 622 136.5C619 125 617 113.111 627 112C634 111.222 634.833 114.001 636.5 136.5C637.5 150 649 154 667 149C683.408 144.442 696.5 144.5 691 106C686.755 76.285 684 50 667 45C650 40 629 61.5 622 59.5C615 57.5 616.81 57.5 616 49C614 28 612 4.99996 588 6.99996C564 8.99996 561 34 564.5 84.5Z" fill="#6300FF"/>
<path d="M707 108C700 129 716.5 148.5 762 153C800 153 829 139 829 113C829 79.4739 766.134 81.6257 775 77C786.5 71 822 93.1664 822 52C822 37.6822 808 25 767 24C726 23 707 46 707 66C707 86 748 90 750 96C752 102 714 87 707 108Z" fill="#6300FF"/>
<path fill-rule="evenodd" clip-rule="evenodd" d="M1.00002 108C-1.99998 49.9998 42 37 62 33C82 29 134 38.5 136 71.5C137.429 95.073 108.592 100.514 90.6556 103.898C83.4828 105.252 78.0533 106.276 77 108C71.5 117 81.5 116.5 92.5 114.5C93.7272 114.277 95.1038 113.979 96.5882 113.658C108.408 111.101 127.058 107.066 131.5 127.5C136.5 150.5 91 156 62 158C33 160 2.57761 138.5 1.00002 108ZM61.3094 83.8306C59.8095 79.8306 63.8093 72.8303 72.3095 69.8304C78.9796 67.4763 87.3094 70.3303 88.8094 75.8303C89.9243 79.9185 86.8958 80.6919 81.5715 82.0515C79.7328 82.5211 77.6202 83.0605 75.3099 83.8306C63.8099 87.6639 62.8094 87.8306 61.3094 83.8306Z" fill="#6300FF"/>
<path fill-rule="evenodd" clip-rule="evenodd" d="M141.5 135.5C128.5 99 168.5 84.5 178 81.5C183.245 79.8438 183.5 72 178 72C159 72 147 71.9999 141.5 50C136.497 29.9893 163.029 29.9933 206.142 29.9997C206.923 29.9999 207.709 30 208.5 30C261.009 30 269 93 268 101.5C267.89 102.43 267.793 103.647 267.678 105.083C266.743 116.77 264.648 142.938 245.5 146.5C240.313 147.465 235.459 145.519 230.834 143.664C225.651 141.585 220.756 139.622 216 142C197.5 156 148 163.5 141.5 135.5ZM209.145 106.156C210.373 109.813 205.958 117.025 199.384 119.377L199.383 119.377C193.335 121.541 187.174 123.745 184.239 118.139C181.303 112.532 184.599 109.817 193.051 106.793C203.417 103.084 207.916 102.499 209.145 106.156Z" fill="#6300FF"/>
<path fill-rule="evenodd" clip-rule="evenodd" d="M1005.31 80.5625C1008.88 78.4959 1011.71 76.8632 1012.96 75.5115C1016.65 71.5108 1012.54 71.5111 1007.12 71.5115L1006.96 71.5115C995.958 71.5115 984.458 66.5116 984.458 55.5116C984.458 44.5116 991.958 27.0116 1044.46 26.0116C1096.96 25.0116 1104.96 89.0116 1103.96 97.5116C1103.85 98.4415 1103.75 99.6586 1103.64 101.094C1102.7 112.781 1100.61 138.949 1081.46 142.512C1076.27 143.477 1071.42 141.53 1066.79 139.675C1061.61 137.597 1056.71 135.634 1051.96 138.012C1033.46 152.012 983.959 159.512 977.459 131.512C967.162 102.602 991.683 88.4343 1005.31 80.5625ZM1036 104.5C1037.23 108.157 1032.96 111.025 1026.38 113.377L1026.38 113.377C1020.34 115.541 1014.17 117.745 1011.24 112.139C1008.3 106.533 1011.24 100.793 1020.05 100.793C1031.06 100.793 1034.77 100.843 1036 104.5Z" fill="#6300FF"/>
</svg>
