<svg height="170" viewBox="0 0 2789 810" fill="none" xmlns="http://www.w3.org/2000/svg">
<path d="M479.712 637.596C566 546 643.03 524.439 709 497" stroke="#AD3CFF" stroke-width="15" stroke-linecap="round" stroke-linejoin="round"/>
<path d="M2068 485.242C2161.92 488.956 2299.01 536.653 2336.5 563" stroke="#AD3CFF" stroke-width="15" stroke-linecap="round" stroke-linejoin="round"/>
<path d="M1262.5 647C1172.5 558.5 1124.5 527 1005.71 501" stroke="#AD3CFF" stroke-width="15" stroke-linecap="round" stroke-linejoin="round"/>
<path d="M1430 669.366C1556.03 662.321 1692.34 604.393 1791.5 534" stroke="#AD3CFF" stroke-width="15" stroke-linecap="round" stroke-linejoin="round"/>
<rect x="1304.31" y="570.186" width="95.7824" height="188.53" rx="15.5" transform="rotate(5.51786 1304.31 570.186)" fill="white" stroke="black" stroke-width="15"/>
<path d="M236 553.565V700.555C236 701.489 236.327 702.393 236.923 703.111L288.585 765.297C289.465 766.357 290.829 766.889 292.194 766.705L482.188 741.184C485.606 740.725 486.88 736.444 484.269 734.191L419.387 678.197C418.506 677.437 418 676.331 418 675.168V533.488C418 531.097 415.917 529.24 413.542 529.514L239.542 549.591C237.523 549.824 236 551.533 236 553.565Z" fill="white" stroke="black" stroke-width="13" stroke-linejoin="round"/>
<path d="M269.027 586.789C268.925 600.727 269.063 629.797 270.285 658.623C270.374 660.737 272.088 662.41 274.204 662.439C307.217 662.896 364.817 663.456 369.463 662.386C375.497 660.996 388.5 608.5 386.487 604.978C386.007 604.138 379.527 604.014 371.011 603.853L370.715 603.847V601.855C370.715 601.724 370.721 601.595 370.734 601.465C370.908 599.631 372.21 585.352 370.715 583.624C369.27 581.952 336.491 583.306 319.375 583.578C316.868 583.618 315.036 581.276 314.514 578.824C314.031 576.553 312.745 574.419 309.906 573.894C303.64 572.736 283.25 572.668 279.45 573.894C276.64 574.801 275.814 577.915 275.418 580.787C275.196 582.401 273.865 583.624 272.236 583.624C270.475 583.624 269.041 585.027 269.027 586.789Z" fill="white"/>
<path d="M292.775 642.042C299.663 610.746 301.412 608.594 303.64 606.926C305.675 605.402 347.205 603.4 370.715 603.847M370.715 603.847C379.376 604.012 386.001 604.128 386.487 604.978C388.5 608.5 375.497 660.996 369.463 662.386C364.817 663.456 307.217 662.896 274.204 662.439C272.088 662.41 270.374 660.737 270.285 658.623C269.063 629.797 268.925 600.727 269.027 586.789C269.041 585.027 270.475 583.624 272.236 583.624V583.624C273.865 583.624 275.196 582.401 275.418 580.787C275.814 577.915 276.64 574.801 279.45 573.894C283.25 572.668 303.64 572.736 309.906 573.894C312.745 574.419 314.031 576.553 314.514 578.824C315.036 581.276 316.868 583.618 319.375 583.578C336.491 583.306 369.27 581.952 370.715 583.624C372.21 585.352 370.908 599.631 370.734 601.465C370.721 601.595 370.715 601.724 370.715 601.855V603.847Z" stroke="#0077D7" stroke-width="13" stroke-linecap="round" stroke-linejoin="round"/>
<path d="M306 694.5C330.333 691.5 353.4 689.6 367 688" stroke="black" stroke-width="13" stroke-linecap="round" stroke-linejoin="round"/>
<path d="M2367 462.565V609.555C2367 610.489 2367.33 611.393 2367.92 612.111L2419.59 674.297C2420.47 675.357 2421.83 675.889 2423.19 675.705L2613.19 650.184C2616.61 649.725 2617.88 645.444 2615.27 643.191L2550.39 587.197C2549.51 586.437 2549 585.331 2549 584.168V442.488C2549 440.097 2546.92 438.24 2544.54 438.514L2370.54 458.591C2368.52 458.824 2367 460.533 2367 462.565Z" fill="white" stroke="black" stroke-width="13" stroke-linejoin="round"/>
<path d="M2400.03 495.789C2399.92 509.727 2400.06 538.797 2401.28 567.623C2401.37 569.737 2403.09 571.41 2405.2 571.439C2438.22 571.896 2495.82 572.456 2500.46 571.386C2506.5 569.996 2519.5 517.5 2517.49 513.978C2517.01 513.138 2510.53 513.014 2502.01 512.853L2501.72 512.847V510.855C2501.72 510.724 2501.72 510.595 2501.73 510.465C2501.91 508.631 2503.21 494.352 2501.72 492.624C2500.27 490.952 2467.49 492.306 2450.38 492.578C2447.87 492.618 2446.04 490.276 2445.51 487.824C2445.03 485.553 2443.74 483.419 2440.91 482.894C2434.64 481.736 2414.25 481.668 2410.45 482.894C2407.64 483.801 2406.81 486.915 2406.42 489.787C2406.2 491.401 2404.87 492.624 2403.24 492.624C2401.47 492.624 2400.04 494.027 2400.03 495.789Z" fill="white"/>
<path d="M2423.78 551.042C2430.66 519.746 2432.41 517.594 2434.64 515.926C2436.68 514.402 2478.2 512.4 2501.72 512.847M2501.72 512.847C2510.38 513.012 2517 513.128 2517.49 513.978C2519.5 517.5 2506.5 569.996 2500.46 571.386C2495.82 572.456 2438.22 571.896 2405.2 571.439C2403.09 571.41 2401.37 569.737 2401.28 567.623C2400.06 538.797 2399.92 509.727 2400.03 495.789C2400.04 494.027 2401.47 492.624 2403.24 492.624V492.624C2404.87 492.624 2406.2 491.401 2406.42 489.787C2406.81 486.915 2407.64 483.801 2410.45 482.894C2414.25 481.668 2434.64 481.736 2440.91 482.894C2443.74 483.419 2445.03 485.553 2445.51 487.824C2446.04 490.276 2447.87 492.618 2450.38 492.578C2467.49 492.306 2500.27 490.952 2501.72 492.624C2503.21 494.352 2501.91 508.631 2501.73 510.465C2501.72 510.595 2501.72 510.724 2501.72 510.855V512.847Z" stroke="#0077D7" stroke-width="13" stroke-linecap="round" stroke-linejoin="round"/>
<path d="M2437 603.5C2461.33 600.5 2484.4 598.6 2498 597" stroke="black" stroke-width="13" stroke-linecap="round" stroke-linejoin="round"/>
<path d="M7 470.5C7 527.109 53.0141 573 109.775 573C157.176 573 197.082 540.997 208.955 497.474C218.167 497.074 236.472 491 235.991 469.901C235.51 448.801 218.082 444.725 209.428 445.325C198.176 400.888 157.827 368 109.775 368C53.0141 368 7 413.891 7 470.5Z" fill="white" stroke="black" stroke-width="13"/>
<path d="M101 423L109 471" stroke="black" stroke-width="13" stroke-linecap="round" stroke-linejoin="round"/>
<path d="M133 419L142 466" stroke="black" stroke-width="13" stroke-linecap="round" stroke-linejoin="round"/>
<path d="M101 503C104.388 510.865 114.152 526.473 126.109 525.989C138.065 525.505 151.018 514.495 156 509.05" stroke="black" stroke-width="13" stroke-linecap="round" stroke-linejoin="round"/>
<path d="M1478.98 598C1529.49 598 1570.44 557.109 1570.44 506.668C1570.44 493.864 1567.8 481.676 1563.04 470.616C1598.51 473.5 1626.08 455.594 1627 444.778L1598.72 426.151C1603.73 406.122 1583.82 379.346 1559.01 384.691C1528.32 391.301 1524.71 417.536 1528.32 429.753C1514.09 420.628 1497.15 415.336 1478.98 415.336C1437.9 415.336 1403.14 442.388 1391.6 479.629L1343 521.089L1400.83 554.136C1416.89 580.439 1445.88 598 1478.98 598Z" fill="white" stroke="black" stroke-width="13" stroke-linejoin="round"/>
<path d="M1451 452L1447 502" stroke="black" stroke-width="13" stroke-linecap="round" stroke-linejoin="round"/>
<path d="M1426 462L1421 513" stroke="black" stroke-width="13" stroke-linecap="round" stroke-linejoin="round"/>
<path d="M1425 551.282C1428 556.917 1435.8 567.703 1443 565.771C1450.2 563.839 1456 546.452 1458 538" stroke="black" stroke-width="13" stroke-linecap="round" stroke-linejoin="round"/>
<path d="M2669.5 568C2607.37 568 2557 618.368 2557 680.5C2557 703.102 2563.67 724.146 2575.14 741.776C2577.56 745.504 2578.66 749.984 2577.85 754.356L2575.9 764.856C2574.3 773.51 2579.98 781.835 2588.63 783.488L2687.61 802.418C2693.81 803.603 2699.9 799.935 2701.76 793.906C2702.95 790.031 2705.99 787.029 2709.77 785.577C2752.01 769.378 2782 728.441 2782 680.5C2782 618.368 2731.63 568 2669.5 568Z" fill="white" stroke="black" stroke-width="13" stroke-linejoin="round"/>
<path d="M2660 647C2664 678.5 2685 695 2711.5 705" stroke="black" stroke-width="13" stroke-linecap="round" stroke-linejoin="round"/>
<path d="M2643 684L2634 727" stroke="black" stroke-width="13" stroke-linecap="round" stroke-linejoin="round"/>
<path d="M2662 730L2669.5 694" stroke="black" stroke-width="13" stroke-linecap="round" stroke-linejoin="round"/>
<path d="M2612 746C2622 756.5 2653.5 768.5 2680 759.5" stroke="black" stroke-width="13" stroke-linecap="round" stroke-linejoin="round"/>
<path d="M716 314H884.445C887.147 314 889.755 314.995 891.771 316.794L977 392.887V523C977 529.075 972.075 534 966 534H798.242L718.903 447.729C717.036 445.699 716 443.041 716 440.283V314Z" fill="white"/>
<path d="M716 314H884.445C887.147 314 889.755 314.995 891.771 316.794L977 392.887M716 314V440.283C716 443.041 717.036 445.699 718.903 447.729L798.242 534M716 314L798.242 392.887M977 392.887V523C977 529.075 972.075 534 966 534H798.242M977 392.887H798.242M798.242 534V392.887" stroke="black" stroke-width="13" stroke-linecap="round" stroke-linejoin="round"/>
<line x1="732.215" y1="351.983" x2="732.215" y2="434.471" stroke="black" stroke-width="10" stroke-linecap="round" stroke-linejoin="round"/>
<line x1="744.449" y1="365.584" x2="744.449" y2="448.073" stroke="black" stroke-width="10" stroke-linecap="round" stroke-linejoin="round"/>
<line x1="756.684" y1="379.185" x2="756.684" y2="461.674" stroke="black" stroke-width="10" stroke-linecap="round" stroke-linejoin="round"/>
<line x1="768.918" y1="392.787" x2="768.918" y2="475.275" stroke="black" stroke-width="10" stroke-linecap="round" stroke-linejoin="round"/>
<path d="M1778 342H1946.44C1949.15 342 1951.75 342.995 1953.77 344.794L2039 420.887V551C2039 557.075 2034.08 562 2028 562H1860.24L1780.9 475.729C1779.04 473.699 1778 471.041 1778 468.283V342Z" fill="white"/>
<path d="M1778 342H1946.44C1949.15 342 1951.75 342.995 1953.77 344.794L2039 420.887M1778 342V468.283C1778 471.041 1779.04 473.699 1780.9 475.729L1860.24 562M1778 342L1860.24 420.887M2039 420.887V551C2039 557.075 2034.08 562 2028 562H1860.24M2039 420.887H1860.24M1860.24 562V420.887" stroke="black" stroke-width="13" stroke-linecap="round" stroke-linejoin="round"/>
<line x1="1794.21" y1="379.983" x2="1794.21" y2="462.471" stroke="black" stroke-width="10" stroke-linecap="round" stroke-linejoin="round"/>
<line x1="1806.45" y1="393.584" x2="1806.45" y2="476.073" stroke="black" stroke-width="10" stroke-linecap="round" stroke-linejoin="round"/>
<line x1="1818.68" y1="407.185" x2="1818.68" y2="489.674" stroke="black" stroke-width="10" stroke-linecap="round" stroke-linejoin="round"/>
<line x1="1830.92" y1="420.787" x2="1830.92" y2="503.275" stroke="black" stroke-width="10" stroke-linecap="round" stroke-linejoin="round"/>
<path fill-rule="evenodd" clip-rule="evenodd" d="M854 44C869.319 44 882.339 53.8418 887.083 67.5474C892.538 64.0367 899.031 62 906 62C925.33 62 941 77.67 941 97C941 97.1708 940.999 97.3414 940.996 97.5117C957.469 100.356 970 114.714 970 132C970 147.876 959.429 161.284 944.942 165.568C945.64 169.795 946 174.112 946 178.5C946 230.139 896.08 272 834.5 272C772.92 272 723 230.139 723 178.5C723 163.332 727.307 149.008 734.951 136.34C727.626 129.925 723 120.503 723 110C723 90.67 738.67 75 758 75C760.816 75 763.555 75.3326 766.178 75.9607C770.164 61.012 783.796 50 800 50C809.569 50 818.242 53.8403 824.56 60.0639C830.789 50.3994 841.647 44 854 44Z" fill="white"/>
<path d="M887.083 67.5474L880.941 69.6734C881.593 71.5581 883.075 73.039 884.959 73.6906C886.844 74.3423 888.924 74.0925 890.601 73.0132L887.083 67.5474ZM940.996 97.5117L934.497 97.4185C934.451 100.617 936.739 103.373 939.891 103.917L940.996 97.5117ZM944.942 165.568L943.099 159.335C939.955 160.264 937.995 163.391 938.529 166.626L944.942 165.568ZM734.951 136.34L740.517 139.698C742.144 137.001 741.604 133.525 739.234 131.45L734.951 136.34ZM766.178 75.9607L764.665 82.2821C768.093 83.1028 771.551 81.0412 772.459 77.635L766.178 75.9607ZM824.56 60.0639L819.999 64.6946C821.392 66.0675 823.33 66.7396 825.275 66.5244C827.219 66.3092 828.964 65.2297 830.023 63.5853L824.56 60.0639ZM893.226 65.4213C887.604 49.1787 872.174 37.5 854 37.5V50.5C866.464 50.5 877.075 58.5049 880.941 69.6734L893.226 65.4213ZM906 55.5C897.747 55.5 890.038 57.916 883.565 62.0816L890.601 73.0132C895.038 70.1574 900.316 68.5 906 68.5V55.5ZM947.5 97C947.5 74.0802 928.92 55.5 906 55.5V68.5C921.74 68.5 934.5 81.2599 934.5 97H947.5ZM947.496 97.6049C947.499 97.4034 947.5 97.2018 947.5 97H934.5C934.5 97.1399 934.499 97.2794 934.497 97.4185L947.496 97.6049ZM939.891 103.917C953.3 106.232 963.5 117.931 963.5 132H976.5C976.5 111.498 961.639 94.4794 942.102 91.1064L939.891 103.917ZM963.5 132C963.5 144.918 954.9 155.845 943.099 159.335L946.785 171.801C963.959 166.722 976.5 150.834 976.5 132H963.5ZM952.5 178.5C952.5 173.755 952.11 169.084 951.355 164.51L938.529 166.626C939.169 170.506 939.5 174.469 939.5 178.5H952.5ZM834.5 278.5C898.551 278.5 952.5 234.754 952.5 178.5H939.5C939.5 225.524 893.609 265.5 834.5 265.5V278.5ZM716.5 178.5C716.5 234.754 770.449 278.5 834.5 278.5V265.5C775.391 265.5 729.5 225.524 729.5 178.5H716.5ZM729.386 132.982C721.172 146.594 716.5 162.071 716.5 178.5H729.5C729.5 164.594 733.442 151.421 740.517 139.698L729.386 132.982ZM716.5 110C716.5 122.454 721.994 133.633 730.669 141.23L739.234 131.45C733.258 126.217 729.5 118.551 729.5 110H716.5ZM758 68.5C735.08 68.5 716.5 87.0802 716.5 110H729.5C729.5 94.2599 742.26 81.5 758 81.5V68.5ZM767.692 69.6393C764.576 68.8934 761.33 68.5 758 68.5V81.5C760.303 81.5 762.533 81.7718 764.665 82.2821L767.692 69.6393ZM800 43.5C780.777 43.5 764.622 56.5636 759.898 74.2864L772.459 77.635C775.705 65.4603 786.814 56.5 800 56.5V43.5ZM829.121 55.4331C821.636 48.0604 811.344 43.5 800 43.5V56.5C807.794 56.5 814.847 59.6202 819.999 64.6946L829.121 55.4331ZM854 37.5C839.346 37.5 826.472 45.0999 819.096 56.5424L830.023 63.5853C835.106 55.699 843.948 50.5 854 50.5V37.5Z" fill="black"/>
<circle cx="862.5" cy="180.5" r="33.5" stroke="black" stroke-width="13"/>
<circle cx="795.5" cy="180.5" r="33.5" stroke="black" stroke-width="13"/>
<circle cx="796" cy="180" r="10" fill="black"/>
<circle cx="863" cy="180" r="10" fill="black"/>
<path d="M810 232C817.5 249 842.5 245.5 846 232" stroke="black" stroke-width="13" stroke-linecap="round" stroke-linejoin="round"/>
<path d="M1825.51 308.035H1936.51C1939.82 308.035 1942.51 305.348 1942.51 302.035V256.359C1942.51 252.264 1946.56 249.28 1950.62 249.813C1966.84 251.94 1992.3 248.024 1991.51 219.535C1990.74 191.938 1965.96 194.097 1950.95 198.207C1946.84 199.332 1942.51 196.38 1942.51 192.121V175.535C1958.84 167.535 1986.5 147.535 1980.5 116.035C1972.65 74.7765 1878 -11.4652 1871 10.5348C1863.98 32.607 1777.25 68.5348 1778.01 126.035C1778.36 153.287 1800.45 167.038 1814.86 171.755C1817.54 172.631 1819.51 175.043 1819.51 177.861V302.035C1819.51 305.348 1822.19 308.035 1825.51 308.035Z" fill="white"/>
<path d="M1940.5 130.535L1942.51 175.535M1942.51 175.535V192.121C1942.51 196.38 1946.84 199.332 1950.95 198.207C1965.96 194.097 1990.74 191.938 1991.51 219.535C1992.3 248.024 1966.84 251.94 1950.62 249.813C1946.56 249.28 1942.51 252.264 1942.51 256.359V302.035C1942.51 305.348 1939.82 308.035 1936.51 308.035H1825.51C1822.19 308.035 1819.51 305.348 1819.51 302.035V177.861C1819.51 175.043 1817.54 172.631 1814.86 171.755C1800.45 167.038 1778.36 153.287 1778.01 126.035C1777.25 68.5348 1863.98 32.607 1871 10.5348C1878 -11.4652 1972.65 74.7765 1980.5 116.035C1986.5 147.535 1958.84 167.535 1942.51 175.535Z" stroke="black" stroke-width="13" stroke-linecap="round" stroke-linejoin="round"/>
<path d="M1855 202.035C1872.5 197.535 1884.5 185.035 1886 169.035" stroke="black" stroke-width="13" stroke-linecap="round" stroke-linejoin="round"/>
<path d="M1900.5 169.035C1900.5 190.535 1908.5 199.035 1923 200.535" stroke="black" stroke-width="13" stroke-linecap="round" stroke-linejoin="round"/>
<path d="M1912.5 261.259C1901.82 278.678 1859.07 293.874 1855.5 259.035" stroke="black" stroke-width="13" stroke-linecap="round" stroke-linejoin="round"/>
<path d="M831.027 431.789C830.925 445.727 831.063 474.797 832.285 503.623C832.374 505.737 834.088 507.41 836.204 507.439C869.217 507.896 926.817 508.456 931.463 507.386C937.497 505.996 950.5 453.5 948.487 449.978C948.007 449.138 941.527 449.014 933.011 448.853L932.715 448.847V446.855C932.715 446.724 932.721 446.595 932.734 446.465C932.908 444.631 934.21 430.352 932.715 428.624C931.27 426.952 898.491 428.306 881.375 428.578C878.868 428.618 877.036 426.276 876.514 423.824C876.031 421.553 874.745 419.419 871.906 418.894C865.64 417.736 845.25 417.668 841.45 418.894C838.64 419.801 837.814 422.915 837.418 425.787C837.196 427.401 835.865 428.624 834.236 428.624C832.475 428.624 831.041 430.027 831.027 431.789Z" fill="white"/>
<path d="M854.775 487.042C861.663 455.746 863.412 453.594 865.64 451.926C867.675 450.402 909.205 448.4 932.715 448.847M932.715 448.847C941.376 449.012 948.001 449.128 948.487 449.978C950.5 453.5 937.497 505.996 931.463 507.386C926.817 508.456 869.217 507.896 836.204 507.439C834.088 507.41 832.374 505.737 832.285 503.623C831.063 474.797 830.925 445.727 831.027 431.789C831.041 430.027 832.475 428.624 834.236 428.624V428.624C835.865 428.624 837.196 427.401 837.418 425.787C837.814 422.915 838.64 419.801 841.45 418.894C845.25 417.668 865.64 417.736 871.906 418.894C874.745 419.419 876.031 421.553 876.514 423.824C877.036 426.276 878.868 428.618 881.375 428.578C898.491 428.306 931.27 426.952 932.715 428.624C934.21 430.352 932.908 444.631 932.734 446.465C932.721 446.595 932.715 446.724 932.715 446.855V448.847Z" stroke="#0077D7" stroke-width="13" stroke-linecap="round" stroke-linejoin="round"/>
<path d="M1893.03 459.789C1892.92 473.727 1893.06 502.797 1894.28 531.623C1894.37 533.737 1896.09 535.41 1898.2 535.439C1931.22 535.896 1988.82 536.456 1993.46 535.386C1999.5 533.996 2012.5 481.5 2010.49 477.978C2010.01 477.138 2003.53 477.014 1995.01 476.853L1994.72 476.847V474.855C1994.72 474.724 1994.72 474.595 1994.73 474.465C1994.91 472.631 1996.21 458.352 1994.72 456.624C1993.27 454.952 1960.49 456.306 1943.38 456.578C1940.87 456.618 1939.04 454.276 1938.51 451.824C1938.03 449.553 1936.74 447.419 1933.91 446.894C1927.64 445.736 1907.25 445.668 1903.45 446.894C1900.64 447.801 1899.81 450.915 1899.42 453.787C1899.2 455.401 1897.87 456.624 1896.24 456.624C1894.47 456.624 1893.04 458.027 1893.03 459.789Z" fill="white"/>
<path d="M1916.78 515.042C1923.66 483.746 1925.41 481.594 1927.64 479.926C1929.68 478.402 1971.2 476.4 1994.72 476.847M1994.72 476.847C2003.38 477.012 2010 477.128 2010.49 477.978C2012.5 481.5 1999.5 533.996 1993.46 535.386C1988.82 536.456 1931.22 535.896 1898.2 535.439C1896.09 535.41 1894.37 533.737 1894.28 531.623C1893.06 502.797 1892.92 473.727 1893.03 459.789C1893.04 458.027 1894.47 456.624 1896.24 456.624V456.624C1897.87 456.624 1899.2 455.401 1899.42 453.787C1899.81 450.915 1900.64 447.801 1903.45 446.894C1907.25 445.668 1927.64 445.736 1933.91 446.894C1936.74 447.419 1938.03 449.553 1938.51 451.824C1939.04 454.276 1940.87 456.618 1943.38 456.578C1960.49 456.306 1993.27 454.952 1994.72 456.624C1996.21 458.352 1994.91 472.631 1994.73 474.465C1994.72 474.595 1994.72 474.724 1994.72 474.855V476.847Z" stroke="#0077D7" stroke-width="13" stroke-linecap="round" stroke-linejoin="round"/>
<path d="M1304.01 650.347C1303.96 659.979 1304.08 677.89 1304.81 695.85C1304.9 697.964 1306.61 699.637 1308.73 699.666C1331.01 699.969 1368.24 700.319 1371.29 699.613C1375.34 698.679 1384.78 665.644 1382.5 664.101C1381.9 663.695 1376.8 664.212 1371 664.101L1372.11 657.667C1372.13 657.587 1372.14 657.509 1372.15 657.429C1372.26 656.326 1373.13 647.846 1372.13 646.686C1371.21 645.617 1353.11 646.39 1341.82 646.625C1339.31 646.677 1337.49 644.334 1336.94 641.888C1336.59 640.294 1335.79 638.896 1334.2 638.601C1330.01 637.823 1316.05 637.777 1313.5 638.601C1311.91 639.117 1311.43 641.302 1311.23 643.399C1311.06 645.271 1309.58 646.686 1307.7 646.686C1305.67 646.686 1304.02 648.315 1304.01 650.347Z" fill="white"/>
<path d="M1324.17 681.852C1328.5 666.101 1332.71 666.536 1334.2 665.415C1335.57 664.391 1355.25 663.801 1371 664.101M1371 664.101C1376.8 664.212 1381.9 663.695 1382.5 664.101C1384.78 665.644 1375.34 698.679 1371.29 699.613C1368.24 700.319 1331.01 699.969 1308.73 699.666C1306.61 699.637 1304.9 697.964 1304.81 695.85C1304.08 677.89 1303.96 659.979 1304.01 650.347C1304.02 648.315 1305.67 646.686 1307.7 646.686V646.686C1309.58 646.686 1311.06 645.271 1311.23 643.399C1311.43 641.302 1311.91 639.117 1313.5 638.601C1316.05 637.777 1330.01 637.823 1334.2 638.601C1335.79 638.896 1336.59 640.294 1336.94 641.888C1337.49 644.334 1339.31 646.677 1341.82 646.625C1353.11 646.39 1371.21 645.617 1372.13 646.686C1373.13 647.846 1372.26 656.326 1372.15 657.429C1372.14 657.509 1372.13 657.587 1372.11 657.667L1371 664.101Z" stroke="#0077D7" stroke-width="13" stroke-linecap="round" stroke-linejoin="round"/>
</svg>
