<svg width="119" height="150" viewBox="0 0 119 150" fill="none" xmlns="http://www.w3.org/2000/svg">
<path d="M9.42283 136.365C7.43964 98.8044 5.07684 12.9908 9.56638 9.74227C14.1648 6.41493 70.8283 6.01954 74.8764 9.08422C88.7345 19.5758 101.603 33.0658 109.97 49.846C112.721 55.3633 113.388 137.302 109.97 140.328C106.7 143.222 33.1976 144.731 12.1055 139.734C10.5287 139.36 9.50827 137.983 9.42283 136.365Z" fill="white"/>
<path d="M74.8764 9.08422C70.8283 6.01954 14.1648 6.41493 9.56638 9.74227C5.07684 12.9908 7.43964 98.8044 9.42283 136.365C9.50827 137.983 10.5287 139.36 12.1055 139.734C33.1976 144.731 106.7 143.222 109.97 140.328C113.388 137.302 112.721 55.3632 109.97 49.846M74.8764 9.08422C88.7345 19.5758 101.603 33.0658 109.97 49.846M74.8764 9.08422C73.9965 20.9167 71.1149 46.2925 73.2266 47.8718C75.3383 49.4511 99.702 49.846 109.97 49.846" stroke="#05AD60" stroke-width="13" stroke-linecap="round" stroke-linejoin="round"/>
</svg>
