<svg width="146" height="308" viewBox="0 0 146 308" fill="none" xmlns="http://www.w3.org/2000/svg">
<path d="M66.1823 109.883C66.1823 140.764 66.7714 164.997 66.1823 180.449M66.1823 109.883L45.6365 126.837M66.1823 109.883L87.956 126.837M66.1823 180.449L87.956 161.011M66.1823 180.449L45.6365 163.372" stroke="black" stroke-width="13" stroke-linecap="round" stroke-linejoin="round"/>
<path d="M36.4167 83.9306C35.2239 60.7675 33.8731 10.5819 36.56 8.65343C39.355 6.64724 70.7976 6.40884 73.2582 8.25666C81.6818 14.5825 92.5037 25.7161 97.5897 35.8336C99.2619 39.1602 99.6674 85.5644 97.5897 87.3888C95.653 89.0893 53.1784 89.9968 39.1468 87.2539C37.5535 86.9424 36.5002 85.5519 36.4167 83.9306Z" fill="white"/>
<path d="M73.2582 8.25666C70.7976 6.40884 39.355 6.64724 36.56 8.65343C33.8731 10.5819 35.2239 60.7675 36.4167 83.9306C36.5002 85.5519 37.5535 86.9424 39.1468 87.2539C53.1784 89.9968 95.653 89.0893 97.5897 87.3888C99.6674 85.5644 99.2619 39.1602 97.5897 35.8336M73.2582 8.25666C81.6818 14.5825 92.5037 25.7161 97.5897 35.8336M73.2582 8.25666C72.7234 15.3909 70.9718 33.6911 72.2554 34.6433C73.539 35.5955 91.3483 35.8336 97.5897 35.8336" stroke="#05AD60" stroke-width="13" stroke-linecap="round" stroke-linejoin="round"/>
<path d="M7.028 215.859C6.91766 231.722 7.08261 264.311 8.45644 296.548C8.54653 298.662 10.2667 300.335 12.3824 300.364C49.2386 300.878 114.164 301.517 119.382 300.311C126.132 298.751 142.23 236.363 138.426 233.786C137.425 233.108 130.471 232.702 120.783 232.517V230.283C120.783 230.135 120.791 229.993 120.806 229.846C121.01 227.935 122.448 213.854 120.783 211.922C119.151 210.028 83.4662 211.594 64.7679 211.88C62.2614 211.918 60.417 209.594 60.022 207.119C59.5821 204.361 58.1763 201.637 54.7597 201.004C47.7497 199.704 24.9407 199.628 20.6899 201.004C17.6576 201.985 16.691 205.27 16.229 208.394C15.9325 210.399 14.289 211.922 12.2625 211.922H11.0165C8.8263 211.922 7.04324 213.669 7.028 215.859Z" fill="white"/>
<path d="M29 279C36.7047 243.879 43.2572 236.722 45.7497 234.85C48.0265 233.14 94.4832 232.015 120.783 232.517M120.783 232.517C130.471 232.702 137.425 233.108 138.426 233.786C142.23 236.363 126.132 298.751 119.382 300.311C114.164 301.517 49.2386 300.878 12.3824 300.364C10.2667 300.335 8.54653 298.662 8.45644 296.548C7.08261 264.311 6.91766 231.722 7.028 215.859C7.04324 213.669 8.8263 211.922 11.0165 211.922H12.2625C14.289 211.922 15.9325 210.399 16.229 208.394C16.691 205.27 17.6576 201.985 20.6899 201.004C24.9407 199.628 47.7497 199.704 54.7597 201.004C58.1763 201.637 59.5821 204.361 60.022 207.119C60.417 209.594 62.2614 211.918 64.7679 211.88C83.4662 211.594 119.151 210.028 120.783 211.922C122.448 213.854 121.01 227.935 120.806 229.846C120.791 229.993 120.783 230.135 120.783 230.283V232.517Z" stroke="#0077D7" stroke-width="13" stroke-linecap="round" stroke-linejoin="round"/>
</svg>
