<svg width="142" height="112" viewBox="0 0 142 112" fill="none" xmlns="http://www.w3.org/2000/svg">
<path d="M7.0299 21.9959C6.91755 37.2075 7.06905 68.9904 8.411 100.449C8.50117 102.563 10.2196 104.235 12.3351 104.264C48.1844 104.762 111.19 105.379 116.258 104.211C122.82 102.7 136.962 45.6078 134.772 41.777C134.25 40.8635 127.203 40.7296 117.942 40.5536L117.62 40.5475V38.364C117.62 38.2328 117.626 38.1024 117.639 37.9718C117.822 36.0429 119.249 20.4383 117.62 18.5538C116.035 16.7218 79.8448 18.2307 61.3557 18.5111C58.8482 18.5491 57.0072 16.2195 56.5786 13.7486C56.124 11.1284 54.747 8.57505 51.4876 7.9726C44.6724 6.71293 22.4975 6.6392 18.3649 7.9726C15.3083 8.95877 14.4107 12.3448 13.9803 15.4684C13.7384 17.2238 12.2914 18.5538 10.5194 18.5538C8.60366 18.5538 7.04405 20.0803 7.0299 21.9959Z" fill="white"/>
<path d="M32.8564 82.0865C40.3469 48.0506 42.2492 45.7098 44.6724 43.8959C46.8859 42.2389 92.051 40.0613 117.62 40.5475M117.62 40.5475C127.039 40.7266 134.244 40.8529 134.772 41.777C136.962 45.6078 122.82 102.7 116.258 104.211C111.19 105.379 48.1844 104.762 12.3351 104.264C10.2196 104.235 8.50117 102.563 8.411 100.449C7.06905 68.9904 6.91755 37.2075 7.0299 21.9959C7.04405 20.0803 8.60366 18.5538 10.5194 18.5538V18.5538C12.2914 18.5538 13.7384 17.2238 13.9803 15.4684C14.4107 12.3448 15.3083 8.95877 18.3649 7.9726C22.4975 6.6392 44.6724 6.71293 51.4876 7.9726C54.747 8.57505 56.124 11.1284 56.5786 13.7486C57.0072 16.2195 58.8482 18.5491 61.3557 18.5111C79.8448 18.2307 116.035 16.7218 117.62 18.5538C119.249 20.4383 117.822 36.0429 117.639 37.9718C117.626 38.1024 117.62 38.2328 117.62 38.364V40.5475Z" stroke="#0077D7" stroke-width="13" stroke-linecap="round" stroke-linejoin="round"/>
</svg>
