<svg width="142" height="150" viewBox="0 0 142 150" fill="none" xmlns="http://www.w3.org/2000/svg">
<path d="M23.3675 139.034V81.574C23.3675 79.3648 21.5809 77.656 19.374 77.755C14.8931 77.956 8.87924 77.8851 7.00184 74.5055C4.44508 69.903 57.1198 6.48866 70.9277 7.00007C84.7357 7.51147 136.899 70.4142 134.853 74.5055C133.144 77.9238 130.721 78.4861 124.601 78.5786C122.368 78.6123 120.564 80.4266 120.599 82.6603L121.493 138.97C121.528 141.204 119.727 143.034 117.493 143.034H88.5715H55.5856H27.3675C25.1584 143.034 23.3675 141.243 23.3675 139.034Z" fill="white"/>
<path d="M55.5856 143.034H27.3675C25.1584 143.034 23.3675 141.243 23.3675 139.034V81.574C23.3675 79.3648 21.5809 77.656 19.374 77.755C14.8931 77.956 8.87924 77.8851 7.00184 74.5055C4.44508 69.903 57.1198 6.48866 70.9277 7.00007C84.7357 7.51147 136.899 70.4142 134.853 74.5055C133.144 77.9238 130.721 78.4861 124.601 78.5786C122.368 78.6123 120.564 80.4266 120.599 82.6603L121.493 138.97C121.528 141.204 119.727 143.034 117.493 143.034H88.5715M55.5856 143.034C55.5856 130.078 55.5856 103.247 55.5856 101.61C55.5856 100.143 73.6637 100.758 85.514 101.392C87.6547 101.507 89.307 103.301 89.2673 105.445L88.5715 143.034M55.5856 143.034H88.5715" stroke="#AD3CFF" stroke-width="13" stroke-linecap="round" stroke-linejoin="round"/>
</svg>
