<svg width="354" height="320" viewBox="0 0 354 320" fill="none" xmlns="http://www.w3.org/2000/svg">
<path d="M71.3261 191.266C108.934 116.049 167.854 80.9484 188.091 72.5662M188.091 72.5662L161.586 59.6371M188.091 72.5662L179.136 101.006" stroke="black" stroke-width="13" stroke-linecap="round" stroke-linejoin="round"/>
<path d="M288.815 147.484C251.135 222.665 192.182 257.709 171.937 266.072M171.937 266.072L198.43 279.027M171.937 266.072L180.919 237.641" stroke="black" stroke-width="13" stroke-linecap="round" stroke-linejoin="round"/>
<path d="M79.4167 158.931C78.2239 135.767 76.8731 85.5819 79.56 83.6534C82.355 81.6472 113.798 81.4088 116.258 83.2567C124.682 89.5825 135.504 100.716 140.59 110.834C142.262 114.16 142.667 160.564 140.59 162.389C138.653 164.089 96.1784 164.997 82.1468 162.254C80.5535 161.942 79.5002 160.552 79.4167 158.931Z" fill="white"/>
<path d="M116.258 83.2567C113.798 81.4088 82.355 81.6472 79.56 83.6534C76.8731 85.5819 78.2239 135.767 79.4167 158.931C79.5002 160.552 80.5535 161.942 82.1468 162.254C96.1784 164.997 138.653 164.089 140.59 162.389C142.667 160.564 142.262 114.16 140.59 110.834M116.258 83.2567C124.682 89.5825 135.504 100.716 140.59 110.834M116.258 83.2567C115.723 90.3909 113.972 108.691 115.255 109.643C116.539 110.596 134.348 110.834 140.59 110.834" stroke="#05AD60" stroke-width="13" stroke-linecap="round" stroke-linejoin="round"/>
<path d="M218.417 242.931C217.224 219.767 215.873 169.582 218.56 167.653C221.355 165.647 252.798 165.409 255.258 167.257C263.682 173.582 274.504 184.716 279.59 194.834C281.262 198.16 281.667 244.564 279.59 246.389C277.653 248.089 235.178 248.997 221.147 246.254C219.553 245.942 218.5 244.552 218.417 242.931Z" fill="white"/>
<path d="M255.258 167.257C252.798 165.409 221.355 165.647 218.56 167.653C215.873 169.582 217.224 219.767 218.417 242.931C218.5 244.552 219.553 245.942 221.147 246.254C235.178 248.997 277.653 248.089 279.59 246.389C281.667 244.564 281.262 198.16 279.59 194.834M255.258 167.257C263.682 173.582 274.504 184.716 279.59 194.834M255.258 167.257C254.723 174.391 252.972 192.691 254.255 193.643C255.539 194.596 273.348 194.834 279.59 194.834" stroke="#05AD60" stroke-width="13" stroke-linecap="round" stroke-linejoin="round"/>
<path d="M7.028 227.859C6.91766 243.722 7.08261 276.311 8.45644 308.548C8.54653 310.662 10.2667 312.335 12.3824 312.364C49.2386 312.878 114.164 313.517 119.382 312.311C126.132 310.751 142.23 248.363 138.426 245.786C137.425 245.108 130.471 244.702 120.783 244.517V242.283C120.783 242.135 120.791 241.993 120.806 241.846C121.01 239.935 122.448 225.854 120.783 223.922C119.151 222.028 83.4662 223.594 64.7679 223.88C62.2614 223.918 60.417 221.594 60.022 219.119C59.5821 216.361 58.1763 213.637 54.7597 213.004C47.7497 211.704 24.9407 211.628 20.6899 213.004C17.6576 213.985 16.691 217.27 16.229 220.394C15.9325 222.399 14.289 223.922 12.2625 223.922H11.0165C8.8263 223.922 7.04324 225.669 7.028 227.859Z" fill="white"/>
<path d="M29 291C36.7047 255.879 43.2572 248.722 45.7497 246.85C48.0265 245.14 94.4832 244.015 120.783 244.517M120.783 244.517C130.471 244.702 137.425 245.108 138.426 245.786C142.23 248.363 126.132 310.751 119.382 312.311C114.164 313.517 49.2386 312.878 12.3824 312.364C10.2667 312.335 8.54653 310.662 8.45644 308.548C7.08261 276.311 6.91766 243.722 7.028 227.859C7.04324 225.669 8.8263 223.922 11.0165 223.922H12.2625C14.289 223.922 15.9325 222.399 16.229 220.394C16.691 217.27 17.6576 213.985 20.6899 213.004C24.9407 211.628 47.7497 211.704 54.7597 213.004C58.1763 213.637 59.5821 216.361 60.022 219.119C60.417 221.594 62.2614 223.918 64.7679 223.88C83.4662 223.594 119.151 222.028 120.783 223.922C122.448 225.854 121.01 239.935 120.806 241.846C120.791 241.993 120.783 242.135 120.783 242.283V244.517Z" stroke="#0077D7" stroke-width="13" stroke-linecap="round" stroke-linejoin="round"/>
<path d="M215.028 22.8589C214.918 38.7215 215.083 71.3105 216.456 103.548C216.547 105.662 218.267 107.335 220.382 107.364C257.239 107.878 322.164 108.517 327.382 107.311C334.132 105.751 350.23 43.3632 346.426 40.7859C345.425 40.1075 338.471 39.702 328.783 39.5172V37.2827C328.783 37.135 328.791 36.9933 328.806 36.8464C329.01 34.9354 330.448 20.8541 328.783 18.9222C327.151 17.0285 291.466 18.5943 272.768 18.8796C270.261 18.9179 268.417 16.594 268.022 14.1185C267.582 11.3612 266.176 8.63713 262.76 8.00361C255.75 6.70377 232.941 6.6277 228.69 8.00361C225.658 8.9851 224.691 12.2703 224.229 15.3942C223.933 17.3989 222.289 18.9222 220.262 18.9222H219.017C216.826 18.9222 215.043 20.6687 215.028 22.8589Z" fill="white"/>
<path d="M237 86C244.705 50.8789 251.257 43.7219 253.75 41.8502C256.027 40.1403 302.483 39.0155 328.783 39.5172M328.783 39.5172C338.471 39.702 345.425 40.1075 346.426 40.7859C350.23 43.3632 334.132 105.751 327.382 107.311C322.164 108.517 257.239 107.878 220.382 107.364C218.267 107.335 216.547 105.662 216.456 103.548C215.083 71.3105 214.918 38.7215 215.028 22.8589C215.043 20.6687 216.826 18.9222 219.017 18.9222H220.262C222.289 18.9222 223.933 17.3989 224.229 15.3942C224.691 12.2703 225.658 8.9851 228.69 8.00361C232.941 6.6277 255.75 6.70377 262.76 8.00361C266.176 8.63713 267.582 11.3612 268.022 14.1185C268.417 16.594 270.261 18.9179 272.768 18.8796C291.466 18.5943 327.151 17.0285 328.783 18.9222C330.448 20.8541 329.01 34.9354 328.806 36.8464C328.791 36.9933 328.783 37.135 328.783 37.2827V39.5172Z" stroke="#0077D7" stroke-width="13" stroke-linecap="round" stroke-linejoin="round"/>
</svg>
